<?xml version="1.0" encoding="utf-8"?>
<!-- Generator: Adobe Illustrator 16.0.0, SVG Export Plug-In . SVG Version: 6.00 Build 0)  -->
<!DOCTYPE svg PUBLIC "-//W3C//DTD SVG 1.1//EN" "http://www.w3.org/Graphics/SVG/1.1/DTD/svg11.dtd">
<svg version="1.1" id="Layer_1" xmlns="http://www.w3.org/2000/svg" xmlns:xlink="http://www.w3.org/1999/xlink" x="0px" y="0px"
	 width="200px" height="200px" viewBox="0 0 200 200" enable-background="new 0 0 200 200" xml:space="preserve">
<g>
	<g>
		<linearGradient id="SVGID_1_" gradientUnits="userSpaceOnUse" x1="0.8047" y1="100.1494" x2="188.4082" y2="100.1494">
			<stop  offset="0" style="stop-color:#FFB003"/>
			<stop  offset="1" style="stop-color:#FF611D"/>
		</linearGradient>
		<path fill="url(#SVGID_1_)" d="M3.237,31.539c30.095,0.005,60.184,0.005,90.28,0.005c3.583,0,3.583,0,4.728-3.445
			c1.485-4.473,3.175-5.727,7.897-5.739c11.168-0.018,22.337-0.006,33.509-0.013c10.053,0,20.105,0,30.157,0.007
			c3.928,0.006,5.938,1.454,7.178,5.118c0.452,1.34,0.91,2.683,1.338,3.94h10.036c0-7.027,0.142-13.927-0.061-20.813
			c-0.105-3.557-1.946-6.476-5.046-8.391c-1.31-0.81-2.832-1.282-4.258-1.909H10.213c-0.162,0.106-0.31,0.254-0.487,0.307
			c-5.99,1.785-8.9,5.608-8.909,11.754c-0.009,5.727-0.006,11.46,0,17.192c0.002,0.627,0.06,1.252,0.098,1.986H3.237z M71.518,8.584
			c3.908,0.065,7.121,3.192,7.112,6.915c-0.01,3.947-3.352,7.381-7.181,7.375c-3.918-0.011-7.13-3.184-7.177-7.085
			C64.227,11.823,67.546,8.52,71.518,8.584z M45.293,8.573c4.03-0.047,7.248,3.132,7.242,7.162c-0.003,4.03-3.235,7.216-7.254,7.139
			c-3.951-0.076-7.095-3.256-7.083-7.157C38.21,11.812,41.373,8.633,45.293,8.573z M19.332,8.573
			c4.158-0.006,7.112,2.973,7.122,7.18c0.011,4.102-2.884,7.056-6.974,7.121c-4.051,0.065-7.308-3.072-7.331-7.067
			C12.125,11.788,15.307,8.584,19.332,8.573z M176.307,37.862c-1.912,0.018-3.08-0.827-3.674-2.601
			c-0.556-1.673-1.255-3.292-1.747-4.976c-0.351-1.207-0.953-1.624-2.232-1.603c-4.403,0.078-8.806,0.031-13.209,0.031
			c-16.36-0.006-32.725,0.013-49.086-0.042c-1.56-0.007-2.398,0.372-2.771,1.956c-0.355,1.507-1.167,2.921-1.498,4.434
			c-0.487,2.233-1.806,2.823-3.969,2.818c-23.526-0.052-47.05-0.031-70.577-0.031H0.807c0,1,0,1.762-0.002,2.53
			c0,44.099,0,88.198,0.002,132.29c0,7.931,5.615,13.567,13.631,13.575c35.946,0.016,71.889,0.011,107.834,0.006
			c0.692,0,1.384-0.071,2.201-0.112v-2.955c-0.005-24.36,0.032-48.727-0.062-73.08c-0.011-2.95,0.559-5.634,1.722-8.274
			c5.379-12.22,10.758-24.442,16.094-36.682c2.098-4.81,5.731-7.428,11.004-7.363c5.193,0.065,8.706,2.771,10.744,7.487
			c2.893,6.708,5.818,13.398,8.775,20.083c2.372,5.359,4.885,10.66,7.189,16.05c1.113,2.601,1.864,5.278,1.853,8.238
			c-0.098,23.97-0.059,47.939-0.055,71.904c0,0.614,0.073,1.229,0.129,2.104c4.606-2.737,6.52-6.607,6.521-11.513
			c0.009-44.034,0.005-88.061,0.005-132.1v-2.188C184.178,37.849,180.241,37.815,176.307,37.862z M88.074,167.097
			c-1.437,0.13-2.891,0.058-4.333,0.058c-20.687,0-41.374,0-62.061-0.006c-0.461,0-0.925,0.018-1.377-0.041
			c-1.734-0.26-2.719-1.417-2.656-3.072c0.059-1.667,1.081-2.725,2.919-2.761c3.546-0.069,7.094-0.036,10.64-0.036
			c7.683-0.005,15.366-0.005,23.051-0.005c10.706,0,21.407,0,32.113,0.005c0.523,0,1.053-0.022,1.574,0.013
			c1.777,0.136,2.828,1.194,2.86,2.849C90.843,165.729,89.817,166.941,88.074,167.097z M93.738,149.2
			c-7.559,0.023-15.115,0.008-22.673,0.008c-16.497,0-32.994-0.008-49.487,0.016c-1.785,0-3.336-0.306-3.862-2.256
			c-0.562-2.088,0.877-3.659,3.345-3.664c9.334-0.013,18.662-0.006,27.997-0.006h8.279c0,0.006,0,0.006,0,0.006
			c12.026,0,24.053,0.012,36.083-0.013c1.554-0.007,2.919,0.237,3.528,1.861C97.792,147.421,96.416,149.19,93.738,149.2z
			 M17.635,128.452c-0.023-2.004,1.129-3.092,3.425-3.092c12.685-0.011,25.367-0.006,38.053-0.006
			c8.409,0,16.824-0.005,25.234,0.006c2.107,0,3.354,0.953,3.546,2.612c0.219,1.915-1.17,3.28-3.463,3.287
			c-8.146,0.018-16.296,0-24.445,0h-7.692c-10.448,0.005-20.897,0.005-31.348,0.005C18.578,131.271,17.659,130.496,17.635,128.452z
			 M97.355,113.707c-5.124,0.035-10.25,0.012-15.375,0.012H59.116c0,0,0,0,0-0.006c-12.679,0-25.362,0.006-38.044-0.006
			c-2.608,0-4.128-1.891-3.253-4.013c0.684-1.66,2.131-1.896,3.748-1.896c11.562,0.023,23.127,0.013,34.692,0.013h39.224
			c0.659,0,1.318-0.025,1.971,0.023c1.957,0.135,3.153,1.357,3.07,3.095C100.442,112.578,99.246,113.694,97.355,113.707z
			 M101.297,96.15c-0.65,0.076-1.313,0.052-1.968,0.052H21.672c-0.328,0-0.656,0.013-0.984-0.006
			c-1.956-0.112-3.018-1.116-3.043-2.86c-0.027-1.73,1.025-2.93,2.931-2.995c3.082-0.095,6.176-0.041,9.261-0.041
			c23.258,0,46.516,0.005,69.773,0.011c0.653,0,1.326-0.019,1.956,0.124c1.562,0.35,2.35,1.412,2.271,2.973
			C103.761,94.967,102.909,95.954,101.297,96.15z M17.645,75.27c0.026-1.488,0.797-2.452,2.281-2.76
			c0.574-0.119,1.177-0.123,1.761-0.123c24.035,0,48.067,0,72.103,0.004c0.59,0,1.185-0.021,1.769,0.036
			c1.732,0.173,2.861,1.331,2.87,2.89c0.006,1.58-1.097,2.742-2.824,2.944c-0.521,0.064-1.049,0.052-1.572,0.052
			c-12.017,0.005-24.036,0.005-36.053,0.005c-11.884,0-23.768,0-35.653-0.005c-0.786,0-1.589,0.018-2.354-0.125
			C18.389,77.888,17.617,76.848,17.645,75.27z M123.955,60.827c-13.142,0.012-26.279,0.007-39.415,0.007
			c-20.759,0-41.519,0-62.278-0.007c-0.782,0-1.592,0.025-2.345-0.147c-1.649-0.384-2.424-1.506-2.258-3.167
			c0.157-1.573,0.939-2.699,2.621-2.961c0.645-0.096,1.312-0.049,1.968-0.049c16.816-0.003,33.635-0.003,50.451-0.003
			c17.079,0,34.159-0.007,51.238,0.003c2.654,0,3.788,0.847,3.886,2.828C127.935,59.668,126.674,60.827,123.955,60.827z
			 M132.89,112.957c0.003,27.746,0.003,55.486,0.012,83.237c0,2.886,0.952,3.794,3.939,3.801c10.776,0.006,21.553,0.006,32.33,0
			c3.217,0,4.03-0.826,4.03-4.078v-84.556H132.89V112.957z M156.473,68.905c-0.65-1.506-1.451-2.853-3.322-2.884
			c-1.966-0.03-2.789,1.353-3.481,2.93c-4.979,11.313-9.995,22.618-14.989,33.923c-0.253,0.574-0.457,1.17-0.775,1.991
			c12.817,0,25.27,0,37.898,0.005c-0.229-0.655-0.381-1.205-0.607-1.719C166.293,91.734,161.375,80.323,156.473,68.905z"/>
	</g>
</g>
</svg>
