<?xml version="1.0" encoding="utf-8"?>
<!-- Generator: Adobe Illustrator 16.0.0, SVG Export Plug-In . SVG Version: 6.00 Build 0)  -->
<!DOCTYPE svg PUBLIC "-//W3C//DTD SVG 1.1//EN" "http://www.w3.org/Graphics/SVG/1.1/DTD/svg11.dtd">
<svg version="1.1" id="Layer_1" xmlns="http://www.w3.org/2000/svg" xmlns:xlink="http://www.w3.org/1999/xlink" x="0px" y="0px"
	 width="200px" height="200px" viewBox="0 0 200 200" enable-background="new 0 0 200 200" xml:space="preserve">
<g>
	<g>
		<linearGradient id="SVGID_1_" gradientUnits="userSpaceOnUse" x1="0.292" y1="110.3164" x2="198.9541" y2="110.3164">
			<stop  offset="0" style="stop-color:#FFB003"/>
			<stop  offset="1" style="stop-color:#FF611D"/>
		</linearGradient>
		<path fill="url(#SVGID_1_)" d="M123.118,98.328l9.29,5.327l18.586-10.651l-27.876-16.632V98.328z M179.548,64.387l6.64-11.975
			c5.311-9.313-9.958-19.961-17.263-23.946c-7.308-3.99-23.894-12.652-29.209-2.651l-9.288,15.96
			c-9.309-2-19.931-3.333-30.553-3.333c-55.095,0-99.583,29.95-99.583,66.547c0,36.588,44.488,66.524,99.583,66.524h0.666
			c0.667,7.974-8.626,21.294-21.91,27.949c52.464,0,76.353-39.258,76.353-39.258c26.559-11.98,43.829-31.942,43.829-55.234
			C200.129,89.672,192.164,75.706,179.548,64.387z M46.093,123.612c-5.308,0-9.289-3.991-9.289-9.314
			c0-5.322,3.98-9.327,9.289-9.327c5.313,0,9.294,4.005,9.294,9.327C55.387,119.621,50.755,123.612,46.093,123.612z M70.671,123.612
			c-5.313,0-9.309-3.991-9.309-9.314c0-5.322,3.995-9.327,9.309-9.327c5.314,0,9.289,4.005,9.289,9.327
			C79.96,119.621,75.985,123.612,70.671,123.612z M95.228,123.612c-5.313,0-9.294-3.991-9.294-9.314
			c0-5.322,3.981-9.327,9.294-9.327c5.313,0,9.294,4.005,9.294,9.327C104.521,119.621,100.541,123.612,95.228,123.612z
			 M154.318,94.994l-19.243,10.642l-15.937,8.662V74.373l26.558-45.906c1.318-2.671,10.622,0,20.577,5.318
			c9.956,5.329,16.599,11.971,14.603,14.637L154.318,94.994z"/>
	</g>
</g>
</svg>
