<?xml version="1.0" encoding="utf-8"?>
<!-- Generator: Adobe Illustrator 16.0.0, SVG Export Plug-In . SVG Version: 6.00 Build 0)  -->
<!DOCTYPE svg PUBLIC "-//W3C//DTD SVG 1.1//EN" "http://www.w3.org/Graphics/SVG/1.1/DTD/svg11.dtd">
<svg version="1.1" id="Layer_1" xmlns="http://www.w3.org/2000/svg" xmlns:xlink="http://www.w3.org/1999/xlink" x="0px" y="0px"
	 width="200px" height="200px" viewBox="0 0 200 200" enable-background="new 0 0 200 200" xml:space="preserve">
<g>
</g>
<g>
	<g>
		<linearGradient id="SVGID_1_" gradientUnits="userSpaceOnUse" x1="0.6729" y1="99.8301" x2="197.667" y2="99.8301">
			<stop  offset="0" style="stop-color:#FBAC18"/>
			<stop  offset="0.9409" style="stop-color:#F26226"/>
		</linearGradient>
		<path fill="url(#SVGID_1_)" d="M63.048,198.326h72.24V27.593h-72.24V198.326z M69.624,34.166h59.091v157.588H69.624V34.166z
			 M79.466,172.067h39.405v-36.119H79.466V172.067z M138.577,27.593v170.733l59.09-26.259V1.333L138.577,27.593z M191.09,167.791
			l-45.961,20.437V31.873l45.961-20.567V167.791z M0.673,172.067l59.089,26.259V27.593L0.673,1.333V172.067z M7.248,11.306
			l45.959,20.567v156.355L7.248,167.791V11.306z M46.635,56.85L13.802,41.219v45.785l32.833,15.615V56.85z M184.536,64.208
			l-32.832,15.614v22.796l32.832-15.615V64.208z M118.871,60.421H79.466c-1.811,0-3.288,1.479-3.288,3.291s1.477,3.287,3.288,3.287
			h39.405c1.811,0,3.288-1.475,3.288-3.287S120.682,60.421,118.871,60.421z M118.871,73.57H79.466c-1.811,0-3.288,1.46-3.288,3.271
			c0,1.812,1.477,3.287,3.288,3.287h39.405c1.811,0,3.288-1.475,3.288-3.287C122.159,75.03,120.682,73.57,118.871,73.57z
			 M118.871,86.7H79.466c-1.811,0-3.288,1.476-3.288,3.287c0,1.812,1.477,3.266,3.288,3.266h39.405c1.811,0,3.288-1.454,3.288-3.266
			C122.159,88.176,120.682,86.7,118.871,86.7z M153.851,120.479c0.37,0,0.739-0.064,1.107-0.192l28.008-9.951
			c1.697-0.613,2.596-2.489,1.983-4.205c-0.605-1.7-2.482-2.597-4.197-1.987l-28.006,9.954c-1.697,0.61-2.599,2.487-1.99,4.201
			C151.241,119.645,152.504,120.479,153.851,120.479z M181.777,118.812l-28.004,9.955c-1.7,0.608-2.599,2.484-1.993,4.2
			c0.485,1.33,1.752,2.18,3.095,2.18c0.372,0,0.739-0.063,1.092-0.192L183.991,125c1.699-0.609,2.596-2.486,1.985-4.201
			C185.369,119.099,183.494,118.218,181.777,118.812z M45.625,118.651L17.171,107.7c-1.688-0.624-3.592,0.192-4.237,1.893
			c-0.655,1.699,0.194,3.592,1.875,4.249l28.458,10.948c0.385,0.145,0.783,0.21,1.186,0.21c1.313,0,2.566-0.802,3.062-2.102
			C48.174,121.2,47.323,119.309,45.625,118.651z"/>
	</g>
</g>
</svg>
