<?xml version="1.0" encoding="utf-8"?>
<!-- Generator: Adobe Illustrator 16.0.0, SVG Export Plug-In . SVG Version: 6.00 Build 0)  -->
<!DOCTYPE svg PUBLIC "-//W3C//DTD SVG 1.1//EN" "http://www.w3.org/Graphics/SVG/1.1/DTD/svg11.dtd">
<svg version="1.1" id="Layer_1" xmlns="http://www.w3.org/2000/svg" xmlns:xlink="http://www.w3.org/1999/xlink" x="0px" y="0px"
	 width="200px" height="200px" viewBox="0 0 200 200" enable-background="new 0 0 200 200" xml:space="preserve">
<g>
	<g>
		
			<linearGradient id="SVGID_1_" gradientUnits="userSpaceOnUse" x1="0.7529" y1="112.1055" x2="199.8145" y2="112.1055" gradientTransform="matrix(1 0 0 1 0 -12.1055)">
			<stop  offset="0" style="stop-color:#FFB003"/>
			<stop  offset="1" style="stop-color:#FF611D"/>
		</linearGradient>
		<path fill="url(#SVGID_1_)" d="M199.78,147.59c-0.042-8.393-5.974-14.334-14.343-14.338c-44.746-0.016-89.494-0.011-134.24,0.008
			c-0.771,0-1.629,0.097-2.302,0.437c-15.316,7.673-30.628,15.359-45.883,23.15c-0.96,0.494-1.804,1.788-2.101,2.874
			c-0.558,2.041,0.355,3.314,2.691,4.493c14.705,7.411,29.405,14.835,44.141,22.186c1.188,0.592,2.634,0.945,3.962,0.947
			c22.336,0.059,44.679,0.043,67.018,0.043c22.074,0,44.147,0.016,66.22-0.009c9.041-0.008,14.786-5.768,14.836-14.856
			C199.823,164.216,199.828,155.9,199.78,147.59z M49.602,177.294c-11.264-5.656-22.304-11.201-33.746-16.947
			c11.43-5.747,22.482-11.301,33.746-16.962V177.294z M27.58,120.36v11.103c3.308-1.67,6.273-3.271,9.337-4.656
			c1.683-0.759,2.246-1.743,2.235-3.613c-0.081-17.956-0.025-35.917-0.081-53.869c-0.004-1.907,0.453-2.676,2.533-2.685
			c5.252-0.033,10.501-0.28,15.748-0.532c13.188-0.635,24.095-12.172,24.049-25.362c-0.017-4.59-0.007-9.178,0.002-13.768
			c0.007-2.561,0.152-2.732,2.722-2.732c17.888-0.012,35.779-0.087,53.667,0.015c13.802,0.078,23.527,10.005,23.532,23.791
			c0.009,22.012-0.003,44.029-0.007,66.041v7.577h11.518v-2.36c0-23.943-0.014-47.885,0.007-71.829
			c0.015-19.635-15.025-34.809-34.658-34.85c-18.222-0.035-36.442,0.017-54.664-0.026c-4.095-0.009-7.461,1.399-10.37,4.263
			c-13.264,13.069-26.55,26.114-39.881,39.117c-3.831,3.734-5.75,8.081-5.716,13.496C27.659,86.437,27.585,103.4,27.58,120.36z
			 M141.693,78.276H58.941v7.216h82.752V78.276z M141.96,103.331h-40.731v6.955h40.731V103.331z M58.939,110.28h32.2v-7.018h-32.2
			V110.28z"/>
	</g>
</g>
</svg>
