<?xml version="1.0" encoding="utf-8"?>
<!-- Generator: Adobe Illustrator 16.0.0, SVG Export Plug-In . SVG Version: 6.00 Build 0)  -->
<!DOCTYPE svg PUBLIC "-//W3C//DTD SVG 1.1//EN" "http://www.w3.org/Graphics/SVG/1.1/DTD/svg11.dtd">
<svg version="1.1" id="Layer_1" xmlns="http://www.w3.org/2000/svg" xmlns:xlink="http://www.w3.org/1999/xlink" x="0px" y="0px"
	 width="200px" height="200px" viewBox="0 0 200 200" enable-background="new 0 0 200 200" xml:space="preserve">
<g>
	<g>
		<linearGradient id="SVGID_1_" gradientUnits="userSpaceOnUse" x1="1.1699" y1="99.5" x2="177.4307" y2="99.5">
			<stop  offset="0" style="stop-color:#FFB003"/>
			<stop  offset="1" style="stop-color:#FF611D"/>
		</linearGradient>
		<path fill="url(#SVGID_1_)" d="M89.816,133.651c-4.367-2.291-7.805-4.095-11.243-5.907c0.118-0.274,0.235-0.551,0.353-0.833
			c3.305-0.485,6.607-0.998,9.915-1.451c9.829-1.351,18.717-4.868,26.215-11.702c9.813-8.937,16.175-20.316,21.872-32.173
			c0.049-0.099-0.137-0.314-0.129-0.298h-14.196c2.588-2.4,5.403-4.152,8.209-5.921c8.122-5.103,13.714-12.322,16.251-21.689
			c2.833-10.464,3.921-21.223,3.019-32.068c-0.36-4.268-1.544-8.462-2.49-13.435c-11.774,13.225-26.131,20.04-41.25,25.601
			c-9.367,3.453-18.76,6.887-27.918,10.862c-11.324,4.915-18.365,13.841-21.39,26.06c-0.616,2.489-1.313,4.957-1.973,7.435
			c-0.284,0.022-0.565,0.037-0.847,0.057c-1.185-4.136-2.369-8.269-3.626-12.656c-0.705,0.621-1.302,1.069-1.803,1.611
			C41.865,74.593,35.98,82.815,31.35,91.94c-5.519,10.869-9.057,22.263-8.219,34.715c0.13,1.956,0.488,3.896,0.74,5.849
			c0.246,0.051,0.492,0.108,0.736,0.166c20.939-32.764,49.307-56.349,84.401-71.651c-0.446,0.427-0.862,0.901-1.343,1.288
			C71.663,91.261,42.972,126.717,19.21,166.54c-0.699,1.168-1.648,2.378-1.785,3.647c-0.146,1.381,0.09,3.354,0.958,4.135
			c0.854,0.773,2.986,0.94,4.072,0.377c1.737-0.887,3.284-2.421,4.536-3.997c5.157-6.469,10.119-13.095,15.294-19.544
			c0.938-1.167,2.46-2.153,3.886-2.544c6.558-1.801,13.33-2.9,19.737-5.123C73.833,140.741,81.474,137.132,89.816,133.651z
			 M169.366,141.675c-14.184-2.875-25.185-9.985-30.143-24.576c-1.629-4.78-2.451-9.851-3.648-14.788
			c-0.221-0.908-0.475-1.809-0.714-2.717c-0.257-0.052-0.52-0.099-0.777-0.146c-1.88,26.66-15.542,41.409-41.771,43.698
			c11.188,2,21.881,4.457,30.085,12.971c8.205,8.51,10.194,19.674,12.496,31.058c2.336-26.759,16.104-41.638,42.537-43.757
			C174.577,142.583,171.958,142.202,169.366,141.675z M35.281,71.317c2.085-21.541,13.14-33.452,34.384-35.392
			C48.58,33.806,37.295,22.093,35.396,0.667c-1.82,9.224-3.555,18.176-10.217,25.021c-6.572,6.746-15.162,8.686-24.009,10.393
			C22.359,37.823,32.929,50.199,35.281,71.317z M73.904,155.923c-1.377,12.891-8.217,19.862-20.642,21.167
			c5.439,1.007,10.521,2.325,14.447,6.39c3.92,4.063,5,9.406,6.305,14.854c1.277-12.609,7.733-19.878,20.333-21.234
			C81.865,175.795,75.354,168.512,73.904,155.923z"/>
	</g>
</g>
</svg>
