<?xml version="1.0" encoding="utf-8"?>
<!-- Generator: Adobe Illustrator 16.0.0, SVG Export Plug-In . SVG Version: 6.00 Build 0)  -->
<!DOCTYPE svg PUBLIC "-//W3C//DTD SVG 1.1//EN" "http://www.w3.org/Graphics/SVG/1.1/DTD/svg11.dtd">
<svg version="1.1" id="Layer_1" xmlns="http://www.w3.org/2000/svg" xmlns:xlink="http://www.w3.org/1999/xlink" x="0px" y="0px"
	 width="200px" height="200px" viewBox="0 0 200 200" enable-background="new 0 0 200 200" xml:space="preserve">
<g>
</g>
<g>
	<g>
		<linearGradient id="SVGID_1_" gradientUnits="userSpaceOnUse" x1="0.5005" y1="100.499" x2="199.499" y2="100.499">
			<stop  offset="0" style="stop-color:#FBAC18"/>
			<stop  offset="0.9409" style="stop-color:#F26226"/>
		</linearGradient>
		<path fill="url(#SVGID_1_)" d="M193.669,176.678H23.821V6.83c0-3.222-2.608-5.83-5.83-5.83s-5.83,2.608-5.83,5.83v18.267h-5.83
			c-3.222,0-5.83,2.608-5.83,5.83c0,3.223,2.608,5.83,5.83,5.83h5.83v11.66h-5.83c-3.222,0-5.83,2.608-5.83,5.83
			c0,3.222,2.608,5.83,5.83,5.83h5.83v11.66h-5.83c-3.222,0-5.83,2.608-5.83,5.83c0,3.222,2.608,5.83,5.83,5.83h5.83v11.66h-5.83
			c-3.222,0-5.83,2.604-5.83,5.83c0,3.223,2.608,5.83,5.83,5.83h5.83v11.66h-5.83c-3.222,0-5.83,2.607-5.83,5.83
			s2.608,5.83,5.83,5.83h5.83v11.66h-5.83c-3.222,0-5.83,2.607-5.83,5.83s2.608,5.83,5.83,5.83h5.83v11.66h-5.83
			c-3.222,0-5.83,2.607-5.83,5.83s2.608,5.83,5.83,5.83h5.83v5.83c0,3.223,2.608,5.83,5.83,5.83h5.83v5.83
			c0,3.223,2.607,5.83,5.83,5.83c3.222,0,5.83-2.607,5.83-5.83v-5.83h11.66v5.83c0,3.223,2.607,5.83,5.83,5.83
			c3.222,0,5.83-2.607,5.83-5.83v-5.83h11.66v5.83c0,3.223,2.607,5.83,5.83,5.83c3.222,0,5.83-2.607,5.83-5.83v-5.83h11.659v5.83
			c0,3.223,2.608,5.83,5.83,5.83s5.831-2.607,5.831-5.83v-5.83h11.66v5.83c0,3.223,2.607,5.83,5.83,5.83
			c3.222,0,5.83-2.607,5.83-5.83v-5.83h11.66v5.83c0,3.223,2.607,5.83,5.83,5.83c3.222,0,5.828-2.607,5.828-5.83v-5.83h11.66v5.83
			c0,3.223,2.609,5.83,5.83,5.83c3.224,0,5.83-2.607,5.83-5.83v-5.83h18.269c3.223,0,5.83-2.607,5.83-5.83
			S196.892,176.678,193.669,176.678z M193.669,25.097H169.57c-3.221,0-5.83,2.608-5.83,5.83c0,3.223,2.609,5.83,5.83,5.83h10.648
			l-51.457,60.032v68.229h34.979V73.889l24.099-27.207v7.565c0,3.222,2.607,5.83,5.83,5.83s5.83-2.608,5.83-5.83v-23.32
			C199.499,27.768,196.593,25.097,193.669,25.097z M117.102,100.887l-34.98-26.234v90.365h34.98V100.887z M70.461,74.761
			l-34.98,27.983v62.273h34.98V74.761z"/>
	</g>
</g>
</svg>
