<?xml version="1.0" encoding="utf-8"?>
<!-- Generator: Adobe Illustrator 16.0.0, SVG Export Plug-In . SVG Version: 6.00 Build 0)  -->
<!DOCTYPE svg PUBLIC "-//W3C//DTD SVG 1.1//EN" "http://www.w3.org/Graphics/SVG/1.1/DTD/svg11.dtd">
<svg version="1.1" id="Layer_1" xmlns="http://www.w3.org/2000/svg" xmlns:xlink="http://www.w3.org/1999/xlink" x="0px" y="0px"
	 width="200px" height="200px" viewBox="0 0 200 200" enable-background="new 0 0 200 200" xml:space="preserve">
<g>
</g>
<g>
	<g>
		<linearGradient id="SVGID_1_" gradientUnits="userSpaceOnUse" x1="0.4995" y1="100.7627" x2="192.1533" y2="100.7627">
			<stop  offset="0" style="stop-color:#FBAC18"/>
			<stop  offset="0.9409" style="stop-color:#F26226"/>
		</linearGradient>
		<path fill="url(#SVGID_1_)" d="M149.153,8.288c0-4.106-3.294-7.43-7.354-7.43H7.855c-4.062,0-7.355,3.324-7.355,7.43v176.689
			c0,8.665,6.953,15.689,15.534,15.689h137.955c-3.048-4.469-4.835-9.873-4.835-15.689V8.288z M124.408,181.696H25.249
			c-3.294,0-5.966-2.7-5.966-6.027c0-3.331,2.672-6.022,5.966-6.022h99.155c3.293,0,5.965,2.691,5.965,6.022
			C130.369,178.996,127.697,181.696,124.408,181.696z M124.408,155.986H25.249c-3.294,0-5.966-2.694-5.966-6.026
			c0-3.326,2.672-6.021,5.966-6.021h99.155c3.293,0,5.965,2.695,5.965,6.021C130.369,153.292,127.697,155.986,124.408,155.986z
			 M124.408,130.277H25.249c-3.294,0-5.966-2.695-5.966-6.024c0-3.326,2.672-6.024,5.966-6.024h99.155
			c3.293,0,5.965,2.698,5.965,6.024C130.369,127.582,127.697,130.277,124.408,130.277z M124.408,104.573H25.249
			c-3.294,0-5.966-2.696-5.966-6.025c0-3.33,2.672-6.026,5.966-6.026h99.155c3.293,0,5.965,2.696,5.965,6.026
			C130.369,101.877,127.697,104.573,124.408,104.573z M130.369,72.839c0,3.329-2.672,6.025-5.961,6.025H25.249
			c-3.294,0-5.966-2.696-5.966-6.025V25.858c0-3.329,2.672-6.029,5.966-6.029h99.155c3.293,0,5.965,2.7,5.965,6.029V72.839z
			 M184.794,55.373h-23.71v129.604c0,8.778,7.17,15.898,15.909,15.685c8.477-0.204,15.16-7.409,15.16-15.979V62.803
			C192.153,58.703,188.86,55.373,184.794,55.373z M31.21,66.819h87.229V31.883H31.21V66.819z"/>
	</g>
</g>
</svg>
