<?xml version="1.0" encoding="utf-8"?>
<!-- Generator: Adobe Illustrator 16.0.0, SVG Export Plug-In . SVG Version: 6.00 Build 0)  -->
<!DOCTYPE svg PUBLIC "-//W3C//DTD SVG 1.1//EN" "http://www.w3.org/Graphics/SVG/1.1/DTD/svg11.dtd">
<svg version="1.1" id="Layer_1" xmlns="http://www.w3.org/2000/svg" xmlns:xlink="http://www.w3.org/1999/xlink" x="0px" y="0px"
	 width="200px" height="200px" viewBox="0 0 200 200" enable-background="new 0 0 200 200" xml:space="preserve">
<g>
	<g>
		
			<linearGradient id="SVGID_1_" gradientUnits="userSpaceOnUse" x1="16.2222" y1="99.9834" x2="199.334" y2="99.9834" gradientTransform="matrix(1 0 0 1 -12.5 0)">
			<stop  offset="0" style="stop-color:#FFB003"/>
			<stop  offset="1" style="stop-color:#FF611D"/>
		</linearGradient>
		<path fill="url(#SVGID_1_)" d="M37.166,0.087v66.377c0.369,0.047,0.63,0.096,0.899,0.106c9.083,0.384,17.21,3.299,24.289,9.098
			c0.709,0.58,1.869,0.862,2.817,0.863c29.847,0.047,76.333,0.042,106.175,0.047h2.188v6.608H69.973
			c1.755,3.903,3.538,7.559,5.012,11.333c0.596,1.528,1.175,2.095,2.887,2.091c25.611-0.07,67.871-0.048,93.487-0.048h2.183v6.71
			H77.222c-0.357,4.577-0.694,8.874-1.052,13.378h97.371v6.567h-2.547c-26.308,0-69.256,0.017-95.56-0.036
			c-1.512-0.006-2.34,0.395-3.035,1.787c-0.986,1.973-2.173,3.878-3.5,5.642c-1.518,2.01-3.283,3.825-5.202,6.024h109.828v6.583
			h-3.401c-31.723-0.005-80.086,0.055-111.802-0.081c-3.642-0.017-6.952,0.809-10.29,1.903c-0.396,0.129-0.927,0.698-0.933,1.073
			c-0.07,3.434-0.043,6.882-0.043,10.549h69.831v6.629H50.486v23.121h136.348V0.087H37.166z M77.645,31.14
			c1.702-1.618,3.256-4.021,5.256-4.5c1.896-0.461,4.303,1.097,6.471,1.805c4.021,1.306,8.009,2.709,12.058,3.894
			c0.887,0.259,2.205,0.078,2.973-0.426c5.571-3.644,11.077-7.38,16.535-11.19c1.261-0.88,2.398-1.073,3.852-0.764
			c4.399,0.932,8.816,1.821,13.254,2.585c0.997,0.17,2.2,0.011,3.133-0.407c3.587-1.615,23.744-3.395,27.473-5.201
			c1.04,2.091,1.964,3.937,2.981,5.981c-4.688,2.29-25.909,4.552-30.519,6.736c-0.483,0.23-1.205,0.071-1.795-0.048
			c-4.486-0.875-8.956-1.84-13.455-2.634c-0.899-0.154-2.069,0.052-2.828,0.536c-5.906,3.769-11.71,7.685-17.621,11.437
			c-0.782,0.493-2.104,0.664-2.982,0.385c-5.537-1.764-11.03-3.667-16.522-5.597c-1.132-0.398-1.847-0.239-2.704,0.63
			c-4.17,4.265-8.409,8.459-12.635,12.675c-0.478,0.479-0.986,0.925-1.539,1.433c-1.561-1.572-3.014-3.031-4.59-4.618
			C68.873,39.582,73.245,35.348,77.645,31.14z M173.52,63.144H50.529V13.309h6.405v43.199H173.52V63.144z M40.479,159.617
			c0.005-6.643,0.005-13.288,0.005-19.92c20.933-2.904,31.374-20.261,29.727-36.121c-1.798-17.377-15.91-30.21-32.734-30.334
			C20.12,73.111,5.781,85.838,3.896,103.568c-1.681,15.83,8.887,33.31,29.727,36.141v20.017c-1.886,0.423-3.235,1.382-3.235,3.593
			c0.011,11.037-0.016,22.065,0.022,33.104c0.005,2.274,1.203,3.375,3.526,3.435c1.735,0.043,3.469,0.01,5.202,0.01
			c3.631,0.012,4.585-0.928,4.585-4.496c0-10.274-0.005-20.544-0.005-30.812C43.719,161.275,43.398,160.776,40.479,159.617z
			 M36.82,133.217c-14.539-0.077-26.521-12.246-26.423-26.833c0.099-14.67,12.247-26.586,26.998-26.483
			c14.506,0.103,26.4,12.288,26.313,26.947C63.622,121.371,51.461,133.298,36.82,133.217z M22.97,92.835
			c-7.521,6.814-7.483,20.868-0.043,27.712c1.528-1.464,3.057-2.909,4.573-4.356c-4.785-5.848-5.311-12.736,0.056-19.033
			C26.059,95.758,24.563,94.342,22.97,92.835z"/>
	</g>
</g>
</svg>
