<?xml version="1.0" encoding="utf-8"?>
<!-- Generator: Adobe Illustrator 16.0.0, SVG Export Plug-In . SVG Version: 6.00 Build 0)  -->
<!DOCTYPE svg PUBLIC "-//W3C//DTD SVG 1.1//EN" "http://www.w3.org/Graphics/SVG/1.1/DTD/svg11.dtd">
<svg version="1.1" id="Layer_1" xmlns="http://www.w3.org/2000/svg" xmlns:xlink="http://www.w3.org/1999/xlink" x="0px" y="0px"
	 width="200px" height="200px" viewBox="0 0 200 200" enable-background="new 0 0 200 200" xml:space="preserve">
<g>
	<g>
		<linearGradient id="SVGID_1_" gradientUnits="userSpaceOnUse" x1="0.1709" y1="100.501" x2="199.4951" y2="100.501">
			<stop  offset="0" style="stop-color:#FFB003"/>
			<stop  offset="1" style="stop-color:#FF611D"/>
		</linearGradient>
		<path fill="url(#SVGID_1_)" d="M2.826,42.504H0.171V190.53c0,5.165,1.843,7.674,6.786,9.295c0.173,0.061,0.319,0.218,0.476,0.33
			h184.66c1.644-0.914,3.564-1.546,4.855-2.816c1.195-1.174,1.726-3.029,2.547-4.585V42.395c-9.083,0.039-18.169,0.104-27.252,0.104
			C115.768,42.509,59.297,42.504,2.826,42.504z M16.381,59.773c0.005-3.736,1.611-5.315,5.375-5.315
			c18.567-0.016,37.135-0.022,55.703,0.005c4.655,0.006,5.964,1.379,5.964,6.094c0.005,18.307,0.005,36.616,0,54.923
			c0,4.63-1.4,6.007-6.067,6.007c-9.219,0.006-18.438,0.006-27.657,0.006s-18.438,0.011-27.651-0.01
			c-4.174-0.006-5.646-1.444-5.65-5.624C16.371,97.162,16.371,78.471,16.381,59.773z M98.784,179.621c-0.584,0.01-1.168,0-1.752,0
			H60.048c-12.906,0-25.818,0.01-38.725-0.007c-3.623-0.005-5.644-2.611-4.634-5.877c0.601-1.931,2.136-2.897,4.736-2.904
			c9.214-0.011,18.428,0,27.636,0c16.61,0,33.221-0.011,49.825,0.007c2.997,0,4.893,1.768,4.856,4.39
			C103.704,177.761,101.671,179.561,98.784,179.621z M16.451,154.006c0.249-2.372,1.839-3.838,4.305-3.838
			c26.142-0.016,52.28-0.016,78.417,0c2.73,0,4.407,1.524,4.548,4.007c0.13,2.271-1.443,4.175-3.893,4.554
			c-1.077,0.167-2.196,0.15-3.294,0.15c-12.192,0.011-24.39,0.006-36.583,0.006c-12.128,0.005-24.256,0.005-36.389-0.006
			c-1.163,0-2.342,0.011-3.488-0.173C17.625,158.321,16.197,156.396,16.451,154.006z M103.24,135.596
			c-0.854,1.633-2.244,2.391-4.126,2.384c-13.102-0.02-26.203-0.009-39.309-0.009c-12.971-0.007-25.942,0.005-38.914-0.011
			c-2.607,0-4.229-1.472-4.45-3.91c-0.217-2.353,1.232-4.201,3.714-4.65c0.757-0.14,1.547-0.15,2.325-0.157
			c7.911-0.005,15.821-0.005,23.737-0.005c17.319,0.005,34.638,0.012,51.95,0.016c1.72,0,3.434,0.093,4.586,1.601
			C103.86,132.31,104.115,133.942,103.24,135.596z M182.722,159.689c0,7.397,0.066,14.799-0.042,22.196
			c-0.022,1.406-0.379,3.093-1.223,4.12c-0.715,0.87-2.357,1.356-3.597,1.367c-9.472,0.108-18.951,0.06-28.429,0.06
			c-9.283,0-18.563,0.006-27.841,0c-3.461,0-5.028-1.448-5.034-4.947c-0.037-18.562-0.037-37.124,0.006-55.687
			c0.011-4.028,1.471-5.413,5.413-5.413c18.562-0.017,37.129-0.017,55.691-0.01c3.492,0.005,5.051,1.648,5.055,5.412
			C182.744,137.754,182.722,148.725,182.722,159.689z M182.176,110.665c-0.815,1.681-2.232,2.391-4.114,2.384
			c-10.646-0.021-21.293-0.012-31.945-0.012h-7.206c-12.982,0-25.971-0.01-38.953,0.012c-1.773,0-3.207-0.551-4.045-2.158
			c-0.816-1.556-0.703-3.135,0.211-4.634c0.968-1.578,2.573-1.886,4.229-1.924c2.53-0.055,5.067-0.017,7.596-0.017
			c23.116,0.006,46.226-0.021,69.34,0.076c1.471,0.005,3.217,0.654,4.343,1.589C182.997,107.123,182.981,109.016,182.176,110.665z
			 M182.484,89.031c-0.508,2.097-2.249,3.326-4.855,3.326c-11.414,0.016-22.833,0.005-34.254,0.005h-4.477
			c-12.842,0-25.688,0.011-38.536-0.005c-2.633,0-4.174-1.021-4.796-3.109c-0.903-3.013,1.146-5.651,4.521-5.667
			c8.305-0.032,16.61-0.011,24.909-0.011c17.519,0,35.037,0,52.551,0.006C181.252,83.581,183.264,85.824,182.484,89.031z
			 M182.394,68.17c-0.395,1.222-1.715,2.271-2.852,3.077c-0.642,0.465-1.752,0.367-2.648,0.367c-25.321,0.006-50.642,0-75.958-0.005
			c-2.082,0-4.077-0.217-5.099-2.428c-1.465-3.18,0.541-6.272,4.099-6.278c13.046-0.011,26.099,0,39.147,0
			c12.987,0,25.969-0.011,38.957,0.005C181.349,62.915,183.36,65.175,182.394,68.17z M199.02,7.072
			c-1.082-3.715-3.91-5.98-7.792-6.207c-0.518-0.033-1.038-0.011-1.558-0.011H9.919c-6.569,0-9.749,3.206-9.749,9.825v23.034H2.81
			c64.398,0,128.795,0,193.192,0.006c1.163,0,2.33,0.07,3.493,0.108V8.115C199.332,7.77,199.127,7.439,199.02,7.072z
			 M112.351,17.891c-0.163,1.876-1.152,3.147-3.013,3.59c-0.81,0.195-1.665,0.282-2.503,0.282
			c-28.241,0.01-56.481,0.01-84.722,0.005c-3.32,0-4.904-0.957-5.483-3.244c-0.789-3.115,1.092-5.472,4.445-5.472
			c14.474-0.021,28.954-0.011,43.434-0.011c14.41,0,28.825-0.006,43.239,0.005C110.961,13.052,112.614,14.793,112.351,17.891z
			 M145.555,21.73c-2.503,0.049-4.487-1.909-4.472-4.407c0.012-2.557,1.86-4.309,4.515-4.282c2.579,0.032,4.174,1.682,4.17,4.32
			C149.761,19.913,148.052,21.682,145.555,21.73z M162.139,21.725c-2.504,0.033-4.43-1.871-4.43-4.391
			c0-2.568,1.796-4.309,4.439-4.293c2.586,0.016,4.392,1.849,4.331,4.401C166.415,19.897,164.593,21.692,162.139,21.725z
			 M178.548,21.725c-2.552-0.119-4.19-1.946-4.12-4.612c0.065-2.611,1.8-4.158,4.559-4.071c2.448,0.086,4.212,1.974,4.119,4.417
			C183.015,19.978,181.024,21.833,178.548,21.725z M74.539,63.266h-49.28v49.338h49.28V63.266z M174.045,132.33
			c0.004-1.665-0.352-2.222-2.131-2.217c-14.8,0.076-29.604,0.065-44.407,0c-1.764-0.011-2.315,0.443-2.305,2.271
			c0.076,14.729,0.065,29.469,0.018,44.208c-0.007,1.556,0.35,2.146,2.038,2.13c7.401-0.087,14.804-0.044,22.205-0.044
			c0,0.012,0,0.012-0.004,0.017c7.466,0,14.934-0.053,22.401,0.037c1.714,0.022,2.2-0.469,2.188-2.194
			C173.984,161.809,173.984,147.069,174.045,132.33z"/>
	</g>
</g>
</svg>
