<?xml version="1.0" encoding="utf-8"?>
<!-- Generator: Adobe Illustrator 24.3.0, SVG Export Plug-In . SVG Version: 6.00 Build 0)  -->
<svg version="1.1" id="Layer_1" xmlns="http://www.w3.org/2000/svg" xmlns:xlink="http://www.w3.org/1999/xlink" x="0px" y="0px"
	 viewBox="0 0 1922 747" style="enable-background:new 0 0 1922 747;" xml:space="preserve">
<style type="text/css">
	.st0{clip-path:url(#SVGID_2_);}
	.st1{opacity:0.6;fill:#D02022;enable-background:new    ;}
	.st2{fill:#FFFFFF;}
</style>
<g id="Layer_2_1_">
	<g id="Layer_1-2">
		<g>
			<defs>
				<rect id="SVGID_1_" width="1922" height="747"/>
			</defs>
			<clipPath id="SVGID_2_">
				<use xlink:href="#SVGID_1_"  style="overflow:visible;"/>
			</clipPath>
			<g class="st0">
				
					<image style="overflow:visible;enable-background:new    ;" width="1911" height="956" xlink:href="165FF1E1.png"  transform="matrix(1.0142 0 0 1.0142 -4.4929 -86)">
				</image>
			</g>
		</g>
		<rect class="st1" width="1922" height="747"/>
		<path class="st2" d="M644.1,186.4c0,20-13.9,32.1-32.2,32.1c-20.5,0-35.3-15.1-35.3-33.9c-0.1-18.7,15-34,33.7-34.1
			c0.2,0,0.4,0,0.6,0c12.5,0,23.1,6.2,28.6,14.9l-12.7,7.3c-2.7-4.3-8.6-7.6-16-7.6c-11,0-19.2,8.1-19.2,19.6
			c0,11.1,7.8,19.2,20.5,19.2c8.7,0,14.4-3.8,16.7-10.1h-17.4v-13.1h32.8V186.4z"/>
		<path class="st2" d="M693.6,202.9v14.4h-41.1v-65.4h40.6v14.4h-25.7v10.8h23.3v14.2h-23.3v11.6H693.6z"/>
		<path class="st2" d="M745.9,166.2h-16.8v51h-15v-51h-16.8v-14.4h48.6V166.2z"/>
		<path class="st2" d="M807.1,192.1v25.1h-15v-25.1l-22-40.3h17l12.4,25.2l12.4-25.2h17L807.1,192.1z"/>
		<path class="st2" d="M827.2,184.6c0-18.8,15.2-34,34-34s34,15.2,34,34s-15.2,34-34,34l0,0c-18.6,0.2-33.8-14.8-34-33.4
			C827.2,185,827.2,184.8,827.2,184.6z M880.2,184.6c0-11.7-8.4-19.4-19.1-19.4s-19,7.8-19,19.4s8.4,19.4,19,19.4
			S880.2,196.2,880.2,184.6L880.2,184.6z"/>
		<path class="st2" d="M902.7,196.1v-44.3h14.9v43c0,4.9,2.3,9.1,10.3,9.1s10.3-4.2,10.3-9.1v-43h14.9v44.3
			c0,14-10.8,22.4-25.2,22.4S902.7,210.1,902.7,196.1z"/>
		<path class="st2" d="M985.9,195.8h-7.1v21.5h-14.9v-65.4H990c12.4,0,22.4,10,22.4,22.3c0,0,0,0.1,0,0.1c-0.1,8.1-4.8,15.4-12,19
			l13.9,24h-16.1L985.9,195.8z M978.8,182.7H990c4.1,0,7.5-3.6,7.5-8.4s-3.4-8.4-7.5-8.4h-11.2L978.8,182.7z"/>
		<path class="st2" d="M1041.8,184.6c0-18.8,15.2-34,34-34s34,15.2,34,34s-15.2,34-34,34l0,0c-18.6,0.2-33.8-14.8-34-33.4
			C1041.8,185,1041.8,184.8,1041.8,184.6z M1094.8,184.6c0-11.7-8.4-19.4-19-19.4s-19,7.8-19,19.4s8.4,19.4,19,19.4
			S1094.9,196.2,1094.8,184.6L1094.8,184.6z"/>
		<path class="st2" d="M1110.8,151.9h15.7l11.3,45.8l12.6-45.8h12.1l12.6,45.8l11.3-45.8h15.7l-18,65.4h-17l-10.7-38.6l-10.7,38.6
			h-17L1110.8,151.9z"/>
		<path class="st2" d="M1260,151.9v65.4h-11.2l-25.2-35.5v35.5h-14.9v-65.4h11.2l25.2,35.5v-35.5H1260z"/>
		<path class="st2" d="M261.9,329.1c0-35.9,26.7-63.5,63.5-63.5c22.1,0,41.7,11,52.3,28.2l-24.1,14c-5.4-9.4-15.9-15-28.2-15
			c-21.6,0-35.6,14.5-35.6,36.3s14,36.3,35.6,36.3c12.4,0,23-5.6,28.2-15l24.1,14c-10.5,17.3-30,28.2-52.3,28.2
			C288.6,392.5,261.9,365,261.9,329.1z"/>
		<path class="st2" d="M389.9,350.7V268h27.9v80.2c0,9.2,4.4,17.1,19.2,17.1s19.2-7.9,19.2-17.1V268h27.9v82.7
			c0,26.2-20.2,41.9-47.1,41.9S389.9,376.9,389.9,350.7z"/>
		<path class="st2" d="M498,362.4l24.1-14c4.4,10.1,11.9,16.9,25.6,16.9c13.3,0,16.6-5.2,16.6-9.9c0-7.5-7-10.5-25.3-15.5
			c-18.1-5-35.9-13.8-35.9-37.1c0-23.5,19.9-37.1,41-37.1c20.1,0,35.8,9.6,44.7,27.5l-23.5,13.8c-4.2-8.7-9.9-14.1-21.1-14.1
			c-8.7,0-13.1,4.4-13.1,9.2c0,5.6,3,9.4,22,15.2c18.5,5.6,39.2,12,39.2,37.9c0,23.5-18.8,37.5-45.3,37.5
			C521.2,392.5,504.9,380.3,498,362.4z"/>
		<path class="st2" d="M683.8,294.9h-31.4v95.2h-27.9v-95.2h-31.4V268h90.7V294.9z"/>
		<path class="st2" d="M683.8,329.1c0-35.9,28.4-63.5,63.5-63.5s63.5,27.5,63.5,63.5s-28.4,63.5-63.5,63.5S683.8,365,683.8,329.1z
			 M782.9,329.1c0-21.8-15.7-36.3-35.6-36.3s-35.6,14.5-35.6,36.3s15.7,36.3,35.6,36.3S782.9,350.9,782.9,329.1z"/>
		<path class="st2" d="M948.5,390.1h-27.9v-71l-31.6,51.8h-3.1l-31.6-51.8v71h-27.9V268h27.9l33.1,54.2l33.1-54.2h27.9L948.5,390.1z
			"/>
		<path class="st2" d="M1109,268v122.1h-20.9l-47.1-66.3v66.3h-27.9V268h20.9l47.1,66.3V268H1109z"/>
		<path class="st2" d="M1201.5,370.9h-45.3l-6.1,19.2h-30.5L1161,268h35.6l41.5,122.1h-30.5L1201.5,370.9z M1193.1,344.8l-14.3-44.8
			l-14.3,44.8H1193.1z"/>
		<path class="st2" d="M1321.8,294.9h-31.4v95.2h-27.9v-95.2h-31.4V268h90.7V294.9z"/>
		<path class="st2" d="M1361.9,268v122.1H1334V268H1361.9z"/>
		<path class="st2" d="M1372.4,268h30.5l27,89.8L1457,268h30.5l-39.8,122.1h-35.6L1372.4,268z"/>
		<path class="st2" d="M1574.7,363.2v26.9H1498V268h75.9v26.9h-48v20.2h43.6v26.5h-43.6v21.6L1574.7,363.2z"/>
		<path class="st2" d="M318.6,489.6h-10.5v-26.9l-12,19.6h-1.2L283,462.8v26.9h-10.6v-46.2H283l12.5,20.5l12.5-20.5h10.5V489.6z"/>
		<path class="st2" d="M324.6,466.5c0-13.3,10.7-24,24-24s24,10.7,24,24s-10.7,24-24,24c-13.2,0.1-23.9-10.5-24-23.6
			C324.6,466.8,324.6,466.7,324.6,466.5z M362,466.5c0-8.2-5.9-13.7-13.5-13.7s-13.5,5.5-13.5,13.7s5.9,13.7,13.5,13.7
			S362,474.8,362,466.5L362,466.5z"/>
		<path class="st2" d="M412.9,476.1c0,8.2-6.7,13.5-14.9,13.5h-19.4v-46.2h18.1c8,0,14.6,5.2,14.6,13.2c0.1,3.4-1.4,6.7-4,9
			C410.8,467.9,413,471.9,412.9,476.1z M389.1,453.4v8.2h7.5c2.2,0.1,3.9-1.6,4-3.8c0-0.1,0-0.2,0-0.3c0.1-2.1-1.5-4-3.6-4.1
			c-0.1,0-0.3,0-0.4,0H389.1z M402.3,475.4c0.1-2.3-1.6-4.3-3.9-4.4c-0.1,0-0.3,0-0.4,0h-8.9v8.8h8.9c2.3,0.1,4.2-1.7,4.3-4
			C402.3,475.6,402.3,475.5,402.3,475.4L402.3,475.4z"/>
		<path class="st2" d="M428.7,443.5v46.2h-10.6v-46.2H428.7z"/>
		<path class="st2" d="M463.7,479.5v10.2h-27.1v-46.2h10.6v36L463.7,479.5z"/>
		<path class="st2" d="M497.3,479.5v10.2h-29v-46.2H497v10.2h-18.1v7.6h16.5v10h-16.5v8.2L497.3,479.5z"/>
		<path class="st2" d="M546.8,482.4h-17.2l-2.3,7.3h-11.5l15.7-46.2H545l15.7,46.2h-11.6L546.8,482.4z M543.7,472.5l-5.4-17l-5.4,17
			H543.7z"/>
		<path class="st2" d="M598.3,459.3c0,8.8-7.1,15.9-15.9,15.8c-0.1,0-0.2,0-0.3,0h-6.9v14.5h-10.6v-46.2h17.5
			c8.8-0.2,16,6.8,16.2,15.6C598.3,459.1,598.3,459.2,598.3,459.3z M587.8,459.3c0.2-3.1-2.2-5.8-5.4-5.9c-0.1,0-0.2,0-0.3,0h-6.9
			v11.9h6.9c3.1,0,5.6-2.5,5.6-5.7C587.8,459.5,587.8,459.4,587.8,459.3z"/>
		<path class="st2" d="M637.3,459.3c0,8.8-7.1,15.9-15.9,15.8c-0.1,0-0.2,0-0.3,0h-6.9v14.5h-10.6v-46.2h17.5
			c8.8-0.2,16,6.8,16.2,15.6C637.3,459.1,637.3,459.2,637.3,459.3z M626.7,459.3c0.2-3.1-2.2-5.8-5.4-5.9c-0.1,0-0.2,0-0.3,0h-6.9
			v11.9h6.9c3.1,0,5.6-2.5,5.6-5.7C626.7,459.5,626.7,459.4,626.7,459.3z"/>
		<path class="st2" d="M669.6,453.6v8.9h17.2v10.2h-17.2v17H659v-46.2h28v10.2L669.6,453.6z"/>
		<path class="st2" d="M708.9,474.5h-5v15.2h-10.6v-46.2h18.5c8.7,0,15.8,7,15.8,15.8c0,0,0,0,0,0.1c-0.1,5.7-3.4,10.9-8.5,13.4
			l9.8,17h-11.3L708.9,474.5z M703.9,465.2h7.9c2.9,0,5.3-2.6,5.3-5.9s-2.4-5.9-5.3-5.9h-7.9V465.2z"/>
		<path class="st2" d="M731.3,466.5c0-13.3,10.7-24,24-24s24,10.7,24,24s-10.7,24-24,24c-13.2,0.1-23.9-10.5-24-23.6
			C731.3,466.8,731.3,466.7,731.3,466.5z M768.8,466.5c0-8.2-5.9-13.7-13.5-13.7s-13.5,5.5-13.5,13.7s5.9,13.7,13.5,13.7
			S768.8,474.8,768.8,466.5z"/>
		<path class="st2" d="M831.5,489.6h-10.6v-26.9l-12,19.6h-1.1l-11.9-19.6v26.9h-10.6v-46.2h10.6l12.5,20.5l12.5-20.5h10.6V489.6z"
			/>
		<path class="st2" d="M886.9,453.6h-11.9v36h-10.6v-36h-11.9v-10.2h34.3V453.6z"/>
		<path class="st2" d="M927.2,443.5v46.2h-10.6v-18.4h-14.5v18.4h-10.6v-46.2h10.6v17.7h14.5v-17.7H927.2z"/>
		<path class="st2" d="M964.2,479.5v10.2h-29v-46.2h28.7v10.2h-18.2v7.6h16.5v10h-16.5v8.2L964.2,479.5z"/>
		<path class="st2" d="M1087.1,469.1c0,25.1-17.5,40.4-40.5,40.4c-25.8,0-44.4-19-44.4-42.6c-0.1-23.6,18.9-42.7,42.4-42.9
			c0.2,0,0.5,0,0.7,0c15.7,0,29,7.8,36,18.8l-16,9.2c-3.4-5.4-10.8-9.6-20.1-9.6c-13.9,0-24.2,10.2-24.2,24.7
			c0,14,9.9,24.2,25.9,24.2c10.9,0,18.1-4.8,21-12.7h-22V462h41.2L1087.1,469.1z"/>
		<path class="st2" d="M1125.4,480.9h-8.9v27h-18.8v-82.2h32.9c15.5,0,28.2,12.5,28.2,28.1c0,0,0,0.1,0,0.1
			c0,10.1-6.1,19.3-15.2,23.9l17.5,30.2h-20.2L1125.4,480.9z M1116.5,464.4h14.1c5.2,0,9.4-4.6,9.4-10.6s-4.2-10.6-9.4-10.6h-14.1
			V464.4z"/>
		<path class="st2" d="M1165.3,466.8c0-23.6,19.1-42.8,42.8-42.8s42.8,19.1,42.8,42.8c0,23.6-19.1,42.8-42.8,42.8c0,0,0,0,0,0
			c-23.4,0.2-42.6-18.7-42.7-42.1C1165.3,467.2,1165.3,467,1165.3,466.8z M1232,466.8c0-14.7-10.6-24.4-24-24.4s-24,9.8-24,24.4
			s10.6,24.4,24,24.4S1232,481.4,1232,466.8L1232,466.8z"/>
		<path class="st2" d="M1260.2,481.3v-55.7h18.8v54c0,6.2,2.9,11.5,12.9,11.5s12.9-5.3,12.9-11.5v-54h18.8v55.7
			c0,17.6-13.6,28.2-31.7,28.2S1260.2,499,1260.2,481.3z"/>
		<path class="st2" d="M1401.8,425.6v82.2h-14.1l-31.7-44.6v44.6h-18.8v-82.2h14.1l31.7,44.6v-44.6H1401.8z"/>
		<path class="st2" d="M1488.8,466.8c0,23.3-17.3,41.1-40,41.1h-32.9v-82.2h32.9C1471.5,425.6,1488.8,443.5,1488.8,466.8z
			 M1470.7,466.8c0-14.1-8.9-23-21.8-23h-14.1v46.1h14.1C1461.7,489.8,1470.7,480.9,1470.7,466.8z"/>
		<path class="st2" d="M1528.1,481.3v-55.7h18.8v54c0,6.2,2.9,11.5,12.9,11.5s12.9-5.3,12.9-11.5v-54h18.8v55.7
			c0,17.6-13.6,28.2-31.7,28.2S1528.1,499,1528.1,481.3z"/>
		<path class="st2" d="M1665,453.8c0,15.6-12.6,28.2-28.8,28.2h-12.3v25.8h-18.8v-82.2h31.1C1652.4,425.6,1665,438.2,1665,453.8z
			 M1646.2,453.8c0-6-4.2-10.6-10-10.6h-12.3v21.1h12.3C1642,464.4,1646.2,459.8,1646.2,453.8z"/>
	</g>
</g>
</svg>
