<svg xmlns="http://www.w3.org/2000/svg" viewBox="0 0 1056.11 396.23"><defs><style>.cls-1{fill:#fff;}</style></defs><g id="Layer_2" data-name="Layer 2"><g id="Layer_1-2" data-name="Layer 1"><path class="cls-1" d="M0,1H12.07L20.76,36.2,30.46,1h9.33l9.7,35.19L58.18,1H70.25L56.39,51.29H43.31L35.12,21.62,26.94,51.29H13.86Z"/><path class="cls-1" d="M106.89,40.23V51.29H75.28V1h31.25V12.07H86.78V20.4h18V31.32h-18v8.91Z"/><path class="cls-1" d="M181.09,27.58c0,15.37-10.7,24.71-24.78,24.71-15.8,0-27.15-11.63-27.15-26.07A26.08,26.08,0,0,1,155.52,0c9.63,0,17.74,4.74,22,11.49l-9.77,5.61c-2.08-3.31-6.6-5.89-12.28-5.89-8.48,0-14.8,6.24-14.8,15.08,0,8.55,6,14.8,15.81,14.8,6.68,0,11.06-3,12.85-7.76H155.88V23.27h25.21Z"/><path class="cls-1" d="M219.17,40.23V51.29H187.56V1h31.25V12.07H199.06V20.4H217V31.32H199.06v8.91Z"/><path class="cls-1" d="M259.4,12.07H246.47V51.29H235V12.07H222.05V1H259.4Z"/><path class="cls-1" d="M306.45,32V51.29H295V32L278.08,1h13.07L300.7,20.4,310.26,1h13.07Z"/><path class="cls-1" d="M321.9,26.15a26.15,26.15,0,1,1,52.29,0,26.15,26.15,0,0,1-52.29,0Zm40.8,0c0-9-6.47-14.94-14.65-14.94s-14.66,6-14.66,14.94,6.47,14.94,14.66,14.94S362.7,35.13,362.7,26.15Z"/><path class="cls-1" d="M379.94,35.05V1h11.49v33c0,3.8,1.8,7,7.91,7s7.9-3.24,7.9-7V1h11.49v34c0,10.78-8.33,17.24-19.39,17.24S379.94,45.83,379.94,35.05Z"/><path class="cls-1" d="M444,34.77h-5.46V51.29H427V1h20.12a17.19,17.19,0,0,1,17.24,17.23,16.58,16.58,0,0,1-9.27,14.59l10.7,18.46H453.43Zm-5.46-10.06h8.62c3.16,0,5.74-2.8,5.74-6.47s-2.58-6.46-5.74-6.46h-8.62Z"/><path class="cls-1" d="M73.41,148.73c0,17.51-14.26,28.94-31.9,28.94H0V78.85H38.68c17.23,0,31.2,11.15,31.2,28.23a24.7,24.7,0,0,1-8.61,19.34A25.53,25.53,0,0,1,73.41,148.73ZM22.59,100v17.51H38.68c5.09,0,8.61-3.67,8.61-8.75S43.91,100,38.68,100Zm28.23,47c0-5.51-3.67-9.46-9.31-9.46H22.59v18.91H41.51C47.15,156.49,50.82,152.54,50.82,147Z"/><path class="cls-1" d="M83.3,145.77V78.85h22.59v64.94c0,7.48,3.53,13.83,15.53,13.83S137,151.27,137,143.79V78.85h22.59v66.92c0,21.17-16.38,33.88-38.12,33.88S83.3,166.94,83.3,145.77Z"/><path class="cls-1" d="M170.84,155.22l19.48-11.29c3.53,8.19,9.6,13.69,20.75,13.69,10.73,0,13.42-4.23,13.42-8,0-6.07-5.65-8.47-20.47-12.57s-29.09-11.15-29.09-30.07S191,76.87,208.11,76.87c16.24,0,28.94,7.77,36.14,22.31l-19.06,11.15c-3.39-7.06-8-11.44-17.08-11.44-7.06,0-10.59,3.53-10.59,7.49,0,4.51,2.4,7.62,17.79,12.28,15,4.52,31.77,9.74,31.77,30.63,0,19.06-15.25,30.36-36.71,30.36C189.62,179.65,176.35,169.77,170.84,155.22Z"/><path class="cls-1" d="M280.26,78.85v98.82H257.67V78.85Z"/><path class="cls-1" d="M374.85,78.85v98.82H357.91L319.79,124v53.65H297.2V78.85h16.95l38.11,53.64V78.85Z"/><path class="cls-1" d="M453.92,155.93v21.74H391.8V78.85h61.41v21.74H414.39V117h35.29v21.45H414.39v17.51Z"/><path class="cls-1" d="M461.69,155.22l19.48-11.29c3.53,8.19,9.6,13.69,20.75,13.69,10.73,0,13.42-4.23,13.42-8,0-6.07-5.65-8.47-20.47-12.57s-29.09-11.15-29.09-30.07S481.88,76.87,499,76.87c16.23,0,28.94,7.77,36.14,22.31L516,110.33c-3.39-7.06-8-11.44-17.08-11.44-7.06,0-10.59,3.53-10.59,7.49,0,4.51,2.4,7.62,17.79,12.28,15,4.52,31.76,9.74,31.76,30.63,0,19.06-15.24,30.36-36.7,30.36C480.47,179.65,467.19,169.77,461.69,155.22Z"/><path class="cls-1" d="M541.46,155.22l19.48-11.29c3.53,8.19,9.6,13.69,20.76,13.69,10.73,0,13.41-4.23,13.41-8,0-6.07-5.65-8.47-20.47-12.57s-29.09-11.15-29.09-30.07,16.1-30.07,33.18-30.07c16.24,0,28.94,7.77,36.14,22.31l-19.06,11.15c-3.38-7.06-8-11.44-17.08-11.44-7.06,0-10.59,3.53-10.59,7.49,0,4.51,2.4,7.62,17.79,12.28,15,4.52,31.77,9.74,31.77,30.63,0,19.06-15.25,30.36-36.71,30.36C560.24,179.65,547,169.77,541.46,155.22Z"/><path class="cls-1" d="M646.09,144.93a32.76,32.76,0,1,1,32.76,32.76A32.48,32.48,0,0,1,646.09,144.93Zm51.12,0c0-11.25-8.1-18.72-18.36-18.72s-18.36,7.47-18.36,18.72,8.1,18.72,18.36,18.72S697.21,156.18,697.21,144.93Z"/><path class="cls-1" d="M769.22,113.43v63h-10.8l-24.3-34.2v34.2h-14.4v-63h10.8l24.3,34.2v-34.2Z"/><path class="cls-1" d="M46.8,227H30.6v49.14H16.2V227H0V213.11H46.8Z"/><path class="cls-1" d="M101.71,213.11v63H87.31v-25H67.51v25H53.11v-63h14.4v24.12h19.8V213.11Z"/><path class="cls-1" d="M152.12,262.25v13.86H112.51v-63h39.16V227H126.91v10.44h22.51v13.68H126.91v11.16Z"/><path class="cls-1" d="M207.29,213.11v63h-14.4V228.32l-11.16,3.06-3.51-12.33,16.47-5.94Z"/><path class="cls-1" d="M215.85,261.8l12.42-7.2c2.25,5.22,6.12,8.73,13.23,8.73,6.84,0,8.55-2.7,8.55-5.13,0-3.87-3.6-5.4-13.05-8s-18.54-7.11-18.54-19.17,10.26-19.17,21.15-19.17c10.35,0,18.45,5,23,14.22l-12.15,7.11c-2.16-4.5-5.13-7.29-10.89-7.29-4.5,0-6.75,2.25-6.75,4.77,0,2.88,1.53,4.86,11.34,7.83,9.54,2.88,20.25,6.21,20.25,19.53,0,12.15-9.72,19.35-23.4,19.35C227.82,277.37,219.36,271.07,215.85,261.8Z"/><path class="cls-1" d="M311.71,227h-16.2v49.14h-14.4V227h-16.2V213.11h46.8Z"/><path class="cls-1" d="M386.42,234.71a21.65,21.65,0,0,1-22.05,21.6h-9.45v19.8h-14.4v-63h23.85A21.65,21.65,0,0,1,386.42,234.71Zm-14.4,0c0-4.59-3.24-8.1-7.65-8.1h-9.45v16.2h9.45C368.78,242.81,372,239.3,372,234.71Z"/><path class="cls-1" d="M424.22,266.21h-23.4l-3.15,9.9H381.92l21.42-63H421.7l21.42,63H427.37Zm-4.32-13.5-7.38-23.13-7.38,23.13Z"/><path class="cls-1" d="M508.65,246.41c0,19.26-13.41,31-31,31-19.8,0-34-14.58-34-32.67a32.67,32.67,0,0,1,33-32.85c12.06,0,22.23,5.94,27.54,14.4l-12.24,7c-2.61-4.14-8.28-7.38-15.39-7.38-10.62,0-18.54,7.83-18.54,18.9,0,10.71,7.56,18.54,19.8,18.54,8.37,0,13.86-3.69,16.11-9.72H477.06V241h31.59Z"/><path class="cls-1" d="M556.36,262.25v13.86h-39.6v-63h39.15V227H531.16v10.44h22.5v13.68h-22.5v11.16Z"/><path class="cls-1" d="M584.27,244.61A32.76,32.76,0,1,1,617,277.37,32.48,32.48,0,0,1,584.27,244.61Zm51.12,0c0-11.25-8.1-18.72-18.36-18.72s-18.36,7.47-18.36,18.72,8.1,18.72,18.36,18.72S635.39,255.86,635.39,244.61Z"/><path class="cls-1" d="M672.3,227v12.15h23.4V253H672.3v23.13H657.9v-63h38.25V227Z"/><path class="cls-1" d="M724.06,261.8l12.42-7.2c2.25,5.22,6.12,8.73,13.23,8.73,6.84,0,8.55-2.7,8.55-5.13,0-3.87-3.6-5.4-13-8s-18.54-7.11-18.54-19.17,10.26-19.17,21.15-19.17c10.35,0,18.45,5,23,14.22l-12.15,7.11c-2.16-4.5-5.13-7.29-10.89-7.29-4.5,0-6.75,2.25-6.75,4.77,0,2.88,1.53,4.86,11.34,7.83,9.54,2.88,20.25,6.21,20.25,19.53,0,12.15-9.72,19.35-23.4,19.35C736,277.37,727.57,271.07,724.06,261.8Z"/><path class="cls-1" d="M819,262.25v13.86h-39.6v-63h39.15V227H793.82v10.44h22.5v13.68h-22.5v11.16Z"/><path class="cls-1" d="M864.92,266.21h-23.4l-3.15,9.9H822.62l21.42-63H862.4l21.42,63H868.07Zm-4.32-13.5-7.38-23.13-7.38,23.13Z"/><path class="cls-1" d="M910.47,255.41h-6.84v20.7h-14.4v-63h25.2a21.55,21.55,0,0,1,21.6,21.6A20.76,20.76,0,0,1,924.42,253l13.41,23.13H922.35Zm-6.84-12.6h10.8c4,0,7.2-3.51,7.2-8.1s-3.24-8.1-7.2-8.1h-10.8Z"/><path class="cls-1" d="M941,244.61c0-18.54,13.77-32.76,32.76-32.76a31.42,31.42,0,0,1,27,14.58l-12.42,7.2c-2.79-4.86-8.19-7.74-14.58-7.74-11.16,0-18.36,7.47-18.36,18.72s7.2,18.72,18.36,18.72c6.39,0,11.88-2.88,14.58-7.74l12.42,7.2c-5.4,8.91-15.48,14.58-27,14.58C954.76,277.37,941,263.15,941,244.61Z"/><path class="cls-1" d="M1056.11,213.11v63h-14.4v-25h-19.8v25h-14.4v-63h14.4v24.12h19.8V213.11Z"/><path class="cls-1" d="M29.82,365.4h-9.6v29.06H0V306H35.38a30.25,30.25,0,0,1,30.33,30.33c0,10.87-6.57,20.73-16.3,25.65l18.83,32.48H46.5Zm-9.6-17.7H35.38c5.56,0,10.11-4.92,10.11-11.37S40.94,325,35.38,325H20.22Z"/><path class="cls-1" d="M133.32,375v19.46H77.72V306h55v19.46H97.94v14.66h31.59v19.21H97.94V375Z"/><path class="cls-1" d="M140.28,374.37l17.44-10.11c3.16,7.33,8.59,12.26,18.57,12.26,9.61,0,12-3.79,12-7.21,0-5.43-5.06-7.58-18.33-11.24s-26-10-26-26.92,14.41-26.92,29.7-26.92c14.53,0,25.9,6.95,32.35,20l-17.06,10c-3-6.31-7.2-10.23-15.29-10.23-6.32,0-9.48,3.16-9.48,6.7,0,4,2.15,6.82,15.92,11,13.4,4,28.44,8.72,28.44,27.42,0,17.06-13.65,27.17-32.86,27.17C157.09,396.23,145.21,387.38,140.28,374.37Z"/><path class="cls-1" d="M218,365.9V306h20.22v58.13c0,6.7,3.16,12.39,13.9,12.39s13.9-5.69,13.9-12.39V306h20.22v59.9c0,19-14.66,30.33-34.12,30.33S218,384.86,218,365.9Z"/><path class="cls-1" d="M352.59,375v19.46H300.78V306H321v69Z"/><path class="cls-1" d="M412,325.46H389.24v69H369v-69H346.27V306H412Z"/><path class="cls-1" d="M413.88,374.37l17.44-10.11c3.16,7.33,8.6,12.26,18.58,12.26,9.6,0,12-3.79,12-7.21,0-5.43-5.06-7.58-18.33-11.24s-26-10-26-26.92,14.41-26.92,29.7-26.92c14.53,0,25.9,6.95,32.35,20l-17.06,10c-3-6.31-7.21-10.23-15.29-10.23-6.32,0-9.48,3.16-9.48,6.7,0,4,2.15,6.82,15.92,11,13.4,4,28.43,8.72,28.43,27.42,0,17.06-13.64,27.17-32.85,27.17C430.69,396.23,418.81,387.38,413.88,374.37Z"/></g></g></svg>