<svg xmlns="http://www.w3.org/2000/svg" viewBox="0 0 798.89 388.01"><defs><style>.cls-1{fill:#fff;}</style></defs><g id="Layer_2" data-name="Layer 2"><g id="Layer_1-2" data-name="Layer 1"><path class="cls-1" d="M31.76,97.89H14.19l-2.36,7.44H0L16.08,58H29.87L46,105.33H34.12ZM28.52,87.76,23,70.39,17.43,87.76Z"/><path class="cls-1" d="M91.9,81.68c0,13.38-9.94,23.65-23,23.65H50V58H68.92C82,58,91.9,68.3,91.9,81.68Zm-10.41,0c0-8.11-5.14-13.25-12.57-13.25H60.81V94.92h8.11C76.35,94.92,81.49,89.79,81.49,81.68Z"/><path class="cls-1" d="M139.87,81.68c0,13.38-9.93,23.65-23,23.65H98V58h18.92C129.94,58,139.87,68.3,139.87,81.68Zm-10.41,0c0-8.11-5.13-13.25-12.57-13.25h-8.1V94.92h8.1C124.33,94.92,129.46,89.79,129.46,81.68Z"/><path class="cls-1" d="M156.76,58v47.3H146V58Z"/><path class="cls-1" d="M202,58v47.3h-8.11L175.68,79.65v25.68H164.87V58H173L191.22,83.7V58Z"/><path class="cls-1" d="M257,83c0,14.46-10.07,23.24-23.32,23.24-14.86,0-25.54-10.94-25.54-24.53a24.53,24.53,0,0,1,24.8-24.66c9.05,0,16.69,4.46,20.68,10.81l-9.19,5.27c-2-3.11-6.22-5.54-11.56-5.54-8,0-13.92,5.88-13.92,14.19,0,8,5.68,13.92,14.87,13.92,6.28,0,10.4-2.77,12.09-7.3H233.25V79H257Z"/><path class="cls-1" d="M307.64,97.89H290.07l-2.36,7.44H275.88L292,58h13.79l16.08,47.3H310ZM304.4,87.76l-5.54-17.37-5.54,17.37Z"/><path class="cls-1" d="M363.05,58v47.3h-8.11L336.69,79.65v25.68H325.88V58H334L352.24,83.7V58Z"/><path class="cls-1" d="M414.47,97.88H396.9l-2.36,7.43H382.71L398.79,58h13.79l16.08,47.3H416.84Zm-3.24-10.14-5.54-17.36-5.54,17.36Z"/><path class="cls-1" d="M469.88,58v47.3h-8.11L443.52,79.63v25.68H432.71V58h8.11l18.25,25.68V58Z"/><path class="cls-1" d="M488.79,58v47.3H478V58Z"/><path class="cls-1" d="M544.2,105.31H533.39V77.81L521.16,97.88H520L507.71,77.81v27.5H496.9V58h10.81l12.84,21,12.84-21H544.2Z"/><path class="cls-1" d="M580,97.88H562.45l-2.37,7.43H548.25L564.34,58h13.78l16.09,47.3H582.38Zm-3.24-10.14-5.54-17.36-5.54,17.36Z"/><path class="cls-1" d="M626.64,68.42H614.47v36.89H603.66V68.42H591.5V58h35.14Z"/><path class="cls-1" d="M642.18,58v47.3H631.36V58Z"/><path class="cls-1" d="M648.26,81.66a24.6,24.6,0,1,1,24.59,24.6A24.38,24.38,0,0,1,648.26,81.66Zm38.38,0c0-8.45-6.08-14-13.79-14s-13.78,5.6-13.78,14,6.08,14.06,13.78,14.06S686.64,90.11,686.64,81.66Z"/><path class="cls-1" d="M740.69,58v47.3h-8.11L714.34,79.63v25.68H703.53V58h8.11l18.24,25.68V58Z"/><path class="cls-1" d="M0,127.35H11.83l10.47,34.8,10.47-34.8H44.6l-15.41,47.3H15.41Z"/><path class="cls-1" d="M59.46,127.35v47.3H48.65v-47.3Z"/><path class="cls-1" d="M109.46,151c0,13.38-9.93,23.65-23,23.65H67.57v-47.3H86.49C99.53,127.35,109.46,137.62,109.46,151Zm-10.4,0c0-8.11-5.14-13.24-12.57-13.24H78.38v26.49h8.11C93.92,164.25,99.06,159.11,99.06,151Z"/><path class="cls-1" d="M145.27,164.25v10.4H115.54v-47.3h29.4v10.41H126.35v7.84h16.9v10.27h-16.9v8.38Z"/><path class="cls-1" d="M149,151a24.6,24.6,0,1,1,24.6,24.6A24.38,24.38,0,0,1,149,151Zm38.38,0c0-8.44-6.08-14.05-13.78-14.05S159.8,142.56,159.8,151s6.08,14.06,13.79,14.06S187.37,159.45,187.37,151Z"/><path class="cls-1" d="M248.27,136.83H236.11v36.9H225.3v-36.9H213.13V126.42h35.14Z"/><path class="cls-1" d="M248.27,150.08a24.6,24.6,0,1,1,24.59,24.59A24.38,24.38,0,0,1,248.27,150.08Zm38.38,0c0-8.45-6.08-14.06-13.79-14.06s-13.78,5.61-13.78,14.06,6.08,14,13.78,14S286.65,158.52,286.65,150.08Z"/><path class="cls-1" d="M343.07,155.55v18.18H332.26V155.55l-15.88-29.13h12.3l9,18.25,9-18.25H359Z"/><path class="cls-1" d="M357.59,150.08a24.6,24.6,0,1,1,24.6,24.59A24.39,24.39,0,0,1,357.59,150.08Zm38.39,0c0-8.45-6.09-14.06-13.79-14.06s-13.78,5.61-13.78,14.06,6.08,14,13.78,14S396,158.52,396,150.08Z"/><path class="cls-1" d="M412.19,158.45v-32H423v31.09c0,3.58,1.69,6.62,7.44,6.62s7.43-3,7.43-6.62V126.42h10.81v32c0,10.14-7.84,16.22-18.24,16.22S412.19,168.59,412.19,158.45Z"/><path class="cls-1" d="M472.4,158.18h-5.14v15.55H456.45V126.42h18.92a16.18,16.18,0,0,1,16.22,16.22,15.61,15.61,0,0,1-8.72,13.72l10.07,17.37H481.31Zm-5.14-9.46h8.11c3,0,5.4-2.63,5.4-6.08s-2.43-6.08-5.4-6.08h-8.11Z"/><path class="cls-1" d="M542.6,163.32v10.41H514.89V126.42h10.82v36.9Z"/><path class="cls-1" d="M576.38,166.29H558.81l-2.36,7.44H544.62l16.09-47.31h13.78l16.08,47.31H578.75Zm-3.24-10.13-5.54-17.37-5.54,17.37Z"/><path class="cls-1" d="M631.79,126.42v47.31h-8.11l-18.24-25.68v25.68H594.62V126.42h8.11L621,152.1V126.42Z"/><path class="cls-1" d="M681.79,150.08c0,13.37-9.93,23.65-23,23.65H639.89V126.42h18.93C671.86,126.42,681.79,136.7,681.79,150.08Zm-10.41,0c0-8.11-5.13-13.25-12.56-13.25h-8.11v26.49h8.11C666.25,163.32,671.38,158.18,671.38,150.08Z"/><path class="cls-1" d="M698.68,126.42v47.31H687.87V126.42Z"/><path class="cls-1" d="M744,126.42v47.31h-8.11L717.6,148.05v25.68H706.79V126.42h8.11l18.24,25.68V126.42Z"/><path class="cls-1" d="M798.89,151.43c0,14.46-10.07,23.24-23.32,23.24-14.86,0-25.54-10.94-25.54-24.53a24.53,24.53,0,0,1,24.8-24.66c9.06,0,16.69,4.46,20.68,10.81l-9.19,5.27c-2-3.11-6.22-5.54-11.56-5.54-8,0-13.92,5.88-13.92,14.19,0,8,5.68,13.92,14.87,13.92,6.28,0,10.41-2.77,12.09-7.3H775.17v-9.46h23.72Z"/><path class="cls-1" d="M34.46,212.79A16.25,16.25,0,0,1,17.91,229h-7.1v14.86H0v-47.3H17.91A16.25,16.25,0,0,1,34.46,212.79Zm-10.81,0a5.77,5.77,0,0,0-5.74-6.08h-7.1v12.16h7.1A5.77,5.77,0,0,0,23.65,212.79Z"/><path class="cls-1" d="M62.84,236.44H45.27l-2.36,7.43H31.08l16.08-47.3H61L77,243.87H65.21ZM59.6,226.31l-5.54-17.37-5.54,17.37Z"/><path class="cls-1" d="M126.22,221.57c0,14.47-10.07,23.25-23.31,23.25-14.87,0-25.54-10.95-25.54-24.53a24.53,24.53,0,0,1,24.8-24.66c9,0,16.69,4.46,20.67,10.81l-9.19,5.27c-2-3.11-6.21-5.54-11.55-5.54-8,0-13.92,5.88-13.92,14.19,0,8,5.68,13.92,14.87,13.92,6.28,0,10.4-2.77,12.09-7.3H102.5v-9.46h23.72Z"/><path class="cls-1" d="M162,233.47v10.4H132.3v-47.3h29.39V207H143.11v7.84H160v10.27h-16.9v8.38Z"/><path class="cls-1" d="M183,220.22c0-13.92,10.34-24.59,24.59-24.59a23.6,23.6,0,0,1,20.28,10.94L218.52,212c-2.09-3.65-6.15-5.81-11-5.81-8.38,0-13.78,5.61-13.78,14.05s5.4,14.06,13.78,14.06c4.8,0,8.92-2.16,11-5.81l9.33,5.4a23.45,23.45,0,0,1-20.28,10.95C193.32,244.82,183,234.14,183,220.22Z"/><path class="cls-1" d="M260.62,236.44H243.05l-2.37,7.43H228.86l16.08-47.3h13.78l16.09,47.3H263Zm-3.25-10.13-5.54-17.37-5.54,17.37Z"/><path class="cls-1" d="M316,196.57v47.3h-8.11L289.67,218.2v25.67H278.86v-47.3H287l18.24,25.68V196.57Z"/><path class="cls-1" d="M345.23,195.65V243H334.42v-47.3Z"/><path class="cls-1" d="M390.5,195.65V243h-8.11l-18.24-25.68V243H353.34v-47.3h8.11l18.24,25.67V195.65Z"/><path class="cls-1" d="M396.58,219.3c0-13.92,10.34-24.6,24.6-24.6a23.59,23.59,0,0,1,20.27,11l-9.33,5.4c-2.09-3.65-6.14-5.81-10.94-5.81-8.38,0-13.79,5.61-13.79,14.06s5.41,14,13.79,14c4.8,0,8.92-2.16,10.94-5.81l9.33,5.41a23.42,23.42,0,0,1-20.27,10.94C406.92,243.89,396.58,233.22,396.58,219.3Z"/><path class="cls-1" d="M462.46,227.41h-5.13V243H446.51v-47.3h18.93a16.17,16.17,0,0,1,16.21,16.21,15.59,15.59,0,0,1-8.71,13.72L483,243H471.38Zm-5.13-9.47h8.11c3,0,5.4-2.63,5.4-6.08s-2.43-6.08-5.4-6.08h-8.11Z"/><path class="cls-1" d="M517.8,232.54V243H488.07v-47.3h29.39v10.4H498.88v7.84h16.89v10.27H498.88v8.38Z"/><path class="cls-1" d="M552.26,235.51H534.69L532.33,243H520.5l16.08-47.3h13.79L566.45,243H554.63ZM549,225.38,543.48,208l-5.55,17.37Z"/><path class="cls-1" d="M567.12,232.2l9.33-5.4c1.69,3.92,4.59,6.55,9.93,6.55,5.14,0,6.42-2,6.42-3.85,0-2.91-2.7-4.05-9.8-6s-13.92-5.34-13.92-14.4S576.79,194.7,585,194.7a18.36,18.36,0,0,1,17.3,10.68l-9.12,5.33c-1.62-3.37-3.85-5.47-8.18-5.47-3.38,0-5.07,1.69-5.07,3.58,0,2.16,1.15,3.65,8.52,5.88,7.16,2.16,15.2,4.66,15.2,14.66,0,9.13-7.3,14.53-17.57,14.53C576.11,243.89,569.76,239.16,567.12,232.2Z"/><path class="cls-1" d="M638.41,232.54V243H608.68v-47.3h29.39v10.4H619.49v7.84h16.89v10.27H619.49v8.38Z"/><path class="cls-1" d="M0,289.62C0,275.7,10.34,265,24.6,265a23.59,23.59,0,0,1,20.27,11l-9.33,5.41c-2.09-3.65-6.15-5.81-10.94-5.81-8.38,0-13.79,5.61-13.79,14.05s5.41,14.06,13.79,14.06c4.79,0,8.92-2.17,10.94-5.81l9.33,5.4a23.43,23.43,0,0,1-20.27,11C10.34,314.22,0,303.54,0,289.62Z"/><path class="cls-1" d="M47.23,289.62a24.6,24.6,0,1,1,24.6,24.6A24.39,24.39,0,0,1,47.23,289.62Zm38.38,0c0-8.44-6.08-14.05-13.78-14.05S58,281.18,58,289.62s6.09,14.06,13.79,14.06S85.61,298.07,85.61,289.62Z"/><path class="cls-1" d="M139.67,266v47.3h-8.11l-18.25-25.68v25.68H102.5V266h8.11l18.25,25.68V266Z"/><path class="cls-1" d="M143.72,266h11.82L166,300.77,176.49,266h11.83l-15.41,47.3H159.13Z"/><path class="cls-1" d="M222.1,302.87v10.4H192.37V266h29.39v10.41H203.18v7.84h16.89v10.27H203.18v8.38Z"/><path class="cls-1" d="M244.13,297.73H239v15.54H228.18V266H247.1a16.18,16.18,0,0,1,16.22,16.22,15.61,15.61,0,0,1-8.72,13.72l10.07,17.36H253.05ZM239,288.27h8.11c3,0,5.41-2.63,5.41-6.08s-2.44-6.08-5.41-6.08H239Z"/><path class="cls-1" d="M266.69,302.53l9.33-5.41c1.69,3.92,4.59,6.56,9.93,6.56,5.14,0,6.42-2,6.42-3.85,0-2.91-2.7-4.06-9.8-6s-13.92-5.34-13.92-14.39,7.71-14.4,15.88-14.4a18.36,18.36,0,0,1,17.3,10.68L292.71,281c-1.62-3.38-3.85-5.47-8.18-5.47-3.38,0-5.07,1.69-5.07,3.58,0,2.16,1.15,3.65,8.52,5.88,7.16,2.16,15.2,4.66,15.2,14.66,0,9.12-7.3,14.53-17.57,14.53C275.68,314.22,269.33,309.49,266.69,302.53Z"/><path class="cls-1" d="M319.06,266v47.3H308.25V266Z"/><path class="cls-1" d="M325.14,289.62a24.6,24.6,0,1,1,24.6,24.6A24.39,24.39,0,0,1,325.14,289.62Zm38.38,0c0-8.44-6.08-14.05-13.78-14.05S336,281.18,336,289.62s6.08,14.06,13.79,14.06S363.52,298.07,363.52,289.62Z"/><path class="cls-1" d="M417.58,266v47.3h-8.11l-18.25-25.68v25.68H380.41V266h8.11l18.24,25.68V266Z"/><path class="cls-1" d="M422.64,302.53l9.33-5.41c1.69,3.92,4.59,6.56,9.93,6.56,5.14,0,6.42-2,6.42-3.85,0-2.91-2.7-4.06-9.8-6s-13.92-5.34-13.92-14.39,7.71-14.4,15.88-14.4a18.36,18.36,0,0,1,17.3,10.68L448.66,281c-1.62-3.38-3.85-5.47-8.18-5.47-3.38,0-5.07,1.69-5.07,3.58,0,2.16,1.15,3.65,8.52,5.88,7.16,2.16,15.2,4.66,15.2,14.66,0,9.12-7.3,14.53-17.57,14.53C431.63,314.22,425.28,309.49,422.64,302.53Z"/><path class="cls-1" d="M516.56,299.42c0,8.38-6.82,13.85-15.27,13.85H481.43V266h18.51c8.25,0,14.93,5.34,14.93,13.52a11.82,11.82,0,0,1-4.12,9.25A12.2,12.2,0,0,1,516.56,299.42Zm-24.32-23.31v8.38h7.7a4,4,0,0,0,4.12-4.19,4,4,0,0,0-4.12-4.19Zm13.51,22.5a4.27,4.27,0,0,0-4.46-4.53h-9.05v9.06h9.05A4.28,4.28,0,0,0,505.75,298.61Z"/><path class="cls-1" d="M542.24,295.1v18.17H531.43V295.1L515.55,266h12.3l9,18.25,9-18.25h12.3Z"/><path class="cls-1" d="M31.76,379.63H14.19l-2.36,7.44H0l16.08-47.31H29.87L46,387.07H34.12ZM28.52,369.5,23,352.13,17.43,369.5Z"/><path class="cls-1" d="M46.62,376.32l9.33-5.4c1.69,3.91,4.59,6.55,9.93,6.55,5.14,0,6.42-2,6.42-3.85,0-2.91-2.7-4.06-9.8-6s-13.92-5.33-13.92-14.39,7.71-14.39,15.88-14.39a18.35,18.35,0,0,1,17.3,10.67l-9.12,5.34c-1.62-3.38-3.85-5.47-8.18-5.47-3.38,0-5.07,1.69-5.07,3.58,0,2.16,1.15,3.65,8.52,5.88,7.16,2.16,15.2,4.66,15.2,14.66,0,9.13-7.3,14.53-17.57,14.53C55.61,388,49.26,383.28,46.62,376.32Z"/><path class="cls-1" d="M152.71,387.07H141.9V359.56l-12.23,20.07h-1.22l-12.23-20.07v27.51H105.41V339.76h10.81l12.84,21,12.84-21h10.81Z"/><path class="cls-1" d="M160.47,371.79v-32h10.82v31.09c0,3.58,1.69,6.62,7.43,6.62s7.43-3,7.43-6.62V339.76H197v32c0,10.14-7.83,16.22-18.24,16.22S160.47,381.93,160.47,371.79Z"/><path class="cls-1" d="M202.7,363.41c0-13.92,10.34-24.59,24.6-24.59a23.58,23.58,0,0,1,20.27,10.94l-9.32,5.41c-2.1-3.65-6.15-5.81-10.95-5.81-8.38,0-13.78,5.61-13.78,14.05s5.4,14.06,13.78,14.06c4.8,0,8.92-2.16,10.95-5.81l9.32,5.4A23.42,23.42,0,0,1,227.3,388C213,388,202.7,377.34,202.7,363.41Z"/><path class="cls-1" d="M289.13,339.76v47.31H278.32V368.28H263.45v18.79H252.64V339.76h10.81v18.11h14.87V339.76Z"/><path class="cls-1" d="M341.83,379.63H324.26l-2.36,7.44H310.07l16.08-47.31h13.79L356,387.07H344.19Zm-3.24-10.13-5.54-17.37L327.5,369.5Z"/><path class="cls-1" d="M356.69,376.32l9.33-5.4c1.69,3.91,4.59,6.55,9.93,6.55,5.14,0,6.42-2,6.42-3.85,0-2.91-2.7-4.06-9.8-6s-13.92-5.33-13.92-14.39,7.71-14.39,15.88-14.39a18.35,18.35,0,0,1,17.3,10.67l-9.12,5.34c-1.62-3.38-3.85-5.47-8.18-5.47-3.38,0-5.07,1.69-5.07,3.58,0,2.16,1.15,3.65,8.52,5.88,7.16,2.16,15.2,4.66,15.2,14.66,0,9.13-7.3,14.53-17.57,14.53C365.68,388,359.33,383.28,356.69,376.32Z"/><path class="cls-1" d="M448.18,373.75c0,8.65-6.21,14.26-17.36,14.26s-17.37-5.61-17.37-14.26a13.18,13.18,0,0,1,6.15-11.35,11.52,11.52,0,0,1-4.53-9.53c0-9.19,7-14.05,15.75-14.05s15.74,4.86,15.74,14.05A11.52,11.52,0,0,1,442,362.4,13.18,13.18,0,0,1,448.18,373.75Zm-10.81-1.55c0-3.58-2.77-5.68-6.55-5.68s-6.56,2.1-6.56,5.68,2.77,5.68,6.56,5.68S437.37,375.78,437.37,372.2Zm-11.49-18.65c0,2.63,1.9,4.59,4.94,4.59s4.93-2,4.93-4.59-1.89-4.6-4.93-4.6S425.88,350.91,425.88,353.55Z"/><path class="cls-1" d="M452.23,363.41c0-14.59,7-24.59,19.26-24.59s19.26,10,19.26,24.59-7,24.6-19.26,24.6S452.23,378,452.23,363.41Zm27.71,0c0-9.12-2.77-14.05-8.45-14.05S463,354.29,463,363.41s2.78,14.06,8.45,14.06S479.94,372.54,479.94,363.41Z"/><path class="cls-1" d="M494.13,350.31a11.45,11.45,0,0,1,11.75-11.49,11.32,11.32,0,0,1,11.69,11.49,11.72,11.72,0,0,1-23.44,0Zm36.15-4.46,4.46,2.56-30.55,33.86-4.46-2.64Zm-20.82,4.46a3.62,3.62,0,1,0-3.64,3.71A3.64,3.64,0,0,0,509.46,350.31Zm8.79,26.08A11.73,11.73,0,1,1,530,387.88,11.46,11.46,0,0,1,518.25,376.39Zm15.34,0a3.62,3.62,0,1,0-3.65,3.72A3.65,3.65,0,0,0,533.59,376.39Z"/><path class="cls-1" d="M547.44,381.59a6.42,6.42,0,1,1,6.42,6.42A6.46,6.46,0,0,1,547.44,381.59Zm.33-28.31V339.76h12.17v13.52l-2,16.89H549.8Z"/><rect class="cls-1" x="9.5" width="59.16" height="4.85"/><rect class="cls-1" x="82.24" width="14.55" height="4.85"/></g></g></svg>