<svg xmlns="http://www.w3.org/2000/svg" viewBox="0 0 914 372.13"><defs><style>.cls-1{fill:#0d156d;}.cls-2{fill:#de2224;}</style></defs><g id="Layer_2" data-name="Layer 2"><g id="Layer_1-2" data-name="Layer 1"><path class="cls-1" d="M40.19,36.29H24.57l-2.1,6.61H12L26.26.84H38.51L52.81,42.9H42.3Zm-2.88-9L32.38,11.84,27.46,27.28Z"/><path class="cls-1" d="M81.65,10.09H70.84V42.9H61.23V10.09H50.41V.84H81.65Z"/><path class="cls-1" d="M114.1,10.09H103.29V42.9H93.67V10.09H82.86V.84H114.1Z"/><path class="cls-1" d="M132.49,29.08h-4.57V42.9h-9.61V.84h16.82a14.39,14.39,0,0,1,14.42,14.42,13.88,13.88,0,0,1-7.75,12.2l8.95,15.44H140.42Zm-4.57-8.41h7.21c2.64,0,4.81-2.35,4.81-5.41s-2.17-5.41-4.81-5.41h-7.21Z"/><path class="cls-1" d="M179.89,36.29H164.27l-2.1,6.61H151.66L166,.84h12.26l14.3,42.06H182Zm-2.88-9-4.93-15.44-4.92,15.44Z"/><path class="cls-1" d="M192.81,21.87C192.81,9.49,202,0,214.68,0a21,21,0,0,1,18,9.73l-8.3,4.81c-1.86-3.25-5.46-5.17-9.73-5.17-7.45,0-12.25,5-12.25,12.5s4.8,12.49,12.25,12.49c4.27,0,7.93-1.92,9.73-5.16l8.3,4.8a20.84,20.84,0,0,1-18,9.74C202,43.74,192.81,34.24,192.81,21.87Z"/><path class="cls-1" d="M265.45,10.09H254.64V42.9H245V10.09H234.21V.84h31.24Z"/><path class="cls-1" d="M326.74,42.9h-9.61V18.44L306.25,36.29h-1.08L294.3,18.44V42.9h-9.62V.84h9.62l11.41,18.69L317.13.84h9.61Z"/><path class="cls-1" d="M332.15,21.87a21.87,21.87,0,0,1,43.74,0,21.87,21.87,0,0,1-43.74,0Zm34.13,0c0-7.51-5.41-12.5-12.26-12.5s-12.26,5-12.26,12.5S347.17,34.36,354,34.36,366.28,29.38,366.28,21.87Z"/><path class="cls-1" d="M395.48,29.08h-4.57V42.9H381.3V.84h16.82a14.39,14.39,0,0,1,14.42,14.42,13.86,13.86,0,0,1-7.75,12.2l8.95,15.44H403.41Zm-4.57-8.41h7.21c2.65,0,4.81-2.35,4.81-5.41s-2.16-5.41-4.81-5.41h-7.21Z"/><path class="cls-1" d="M444.69,33.64V42.9H418.25V.84h26.14v9.25H427.87v7h15v9.13h-15v7.45Z"/><path class="cls-2" d="M0,117.68C0,89.62,20.84,68.11,49.57,68.11c17.3,0,32.56,8.58,40.86,22.06L71.64,101.06c-4.22-7.35-12.4-11.71-22.07-11.71-16.88,0-27.78,11.31-27.78,28.33S32.69,146,49.57,146c9.67,0,18-4.36,22.07-11.71l18.79,10.89C82.26,158.67,67,167.25,49.57,167.25,20.84,167.25,0,145.73,0,117.68Z"/><path class="cls-2" d="M100,134.57V70h21.79v62.65c0,7.22,3.4,13.35,15,13.35s15-6.13,15-13.35V70h21.79v64.56c0,20.43-15.8,32.68-36.77,32.68S100,155,100,134.57Z"/><path class="cls-2" d="M184.43,143.69l18.79-10.89c3.41,7.9,9.26,13.21,20,13.21,10.35,0,12.94-4.09,12.94-7.77,0-5.85-5.45-8.17-19.75-12.12s-28.05-10.76-28.05-29,15.52-29,32-29c15.66,0,27.92,7.49,34.87,21.51l-18.39,10.76c-3.27-6.81-7.76-11-16.48-11-6.81,0-10.21,3.41-10.21,7.22,0,4.36,2.31,7.35,17.16,11.85C241.76,112.78,258,117.82,258,138c0,18.39-14.71,29.28-35.41,29.28C202.54,167.25,189.74,157.72,184.43,143.69Z"/><path class="cls-2" d="M329.48,91H305v74.36H283.17V91H258.66V70h70.82Z"/><path class="cls-2" d="M329.49,117.68a49.58,49.58,0,1,1,49.57,49.57A49.14,49.14,0,0,1,329.49,117.68Zm77.35,0c0-17-12.25-28.33-27.78-28.33s-27.78,11.31-27.78,28.33S363.54,146,379.06,146,406.84,134.7,406.84,117.68Z"/><path class="cls-2" d="M536.24,165.35H514.45V109.92L489.8,150.37h-2.45L462.7,109.92v55.43H440.91V70H462.7l25.87,42.36L514.45,70h21.79Z"/><path class="cls-2" d="M612.52,144.37v21H552.6V70h59.24V91H574.39v15.79h34v20.7h-34v16.89Z"/><path class="cls-2" d="M656.93,134H646.58v31.33H624.79V70h38.13a32.62,32.62,0,0,1,32.69,32.69c0,11.71-7.09,22.33-17.57,27.65l20.29,35H674.91ZM646.58,115h16.34c6,0,10.89-5.32,10.89-12.26s-4.9-12.26-10.89-12.26H646.58Z"/><path class="cls-2" d="M702.42,143.69l18.8-10.89c3.4,7.9,9.26,13.21,20,13.21,10.35,0,12.94-4.09,12.94-7.77,0-5.85-5.45-8.17-19.75-12.12s-28.06-10.76-28.06-29,15.53-29,32-29c15.66,0,27.92,7.49,34.86,21.51l-18.38,10.76c-3.27-6.81-7.76-11-16.48-11-6.81,0-10.21,3.41-10.21,7.22,0,4.36,2.31,7.35,17.15,11.85C759.76,112.78,776,117.82,776,138c0,18.39-14.71,29.28-35.41,29.28C720.54,167.25,707.74,157.72,702.42,143.69Z"/><path class="cls-1" d="M9.68,191H25.15L36.3,236.11,48.73,191h12l12.43,45.13L84.27,191H99.74L82,255.44H65.21l-10.5-38-10.49,38H27.45Z"/><path class="cls-1" d="M120.93,191v64.46H106.2V191Z"/><path class="cls-1" d="M175.26,205.17H158.69v50.27H144V205.17H127.38V191h47.88Z"/><path class="cls-1" d="M231.44,191v64.46H216.7v-25.6H196.45v25.6H181.71V191h14.74v24.68H216.7V191Z"/><path class="cls-1" d="M313.4,236.57c0,11.41-9.3,18.87-20.81,18.87H265.52V191h25.23c11.23,0,20.35,7.28,20.35,18.42A16.15,16.15,0,0,1,305.48,222,16.64,16.64,0,0,1,313.4,236.57ZM280.25,204.8v11.42h10.5a5.45,5.45,0,0,0,5.62-5.71,5.39,5.39,0,0,0-5.62-5.71Zm18.42,30.66a5.83,5.83,0,0,0-6.08-6.17H280.25v12.34h12.34A5.83,5.83,0,0,0,298.67,235.46Z"/><path class="cls-1" d="M342.5,234.26h-7v21.18H320.77V191h25.79a22.06,22.06,0,0,1,22.1,22.1,21.25,21.25,0,0,1-11.88,18.7l13.72,23.66H354.66Zm-7-12.89h11.05c4.05,0,7.36-3.59,7.36-8.29s-3.31-8.28-7.36-8.28H335.51Z"/><path class="cls-1" d="M417.93,241.26v14.18H377.41V191h40.06v14.19H392.14v10.68h23v14h-23v11.42Z"/><path class="cls-1" d="M464.9,245.31H441l-3.22,10.13H421.62L443.53,191h18.79l21.91,64.46H468.12Zm-4.43-13.81-7.55-23.66-7.55,23.66Z"/><path class="cls-1" d="M528.44,205.17H511.87v50.27H497.13V205.17H480.56V191h47.88Z"/><path class="cls-1" d="M584.62,191v64.46H569.88v-25.6H549.62v25.6H534.89V191h14.73v24.68h20.26V191Z"/><path class="cls-1" d="M639,205.17H622.38v50.27H607.64V205.17H591.07V191H639Z"/><path class="cls-1" d="M678.55,245.31H654.61l-3.22,10.13H635.27L657.19,191H676l21.91,64.46H681.78Zm-4.42-13.81-7.55-23.66L659,231.5Z"/><path class="cls-1" d="M738.78,255.44l-20.62-29.83v29.83H703.42V191h14.74v28l19.7-28h16.76l-21.73,31.4,22.65,33.06Z"/><path class="cls-1" d="M775.81,191v64.46H761.07V191Z"/><path class="cls-1" d="M837.51,191v64.46H826.45l-24.86-35v35H786.86V191h11l24.86,35V191Z"/><path class="cls-1" d="M912.38,225.06c0,19.7-13.72,31.67-31.77,31.67-20.26,0-34.81-14.92-34.81-33.42a33.43,33.43,0,0,1,33.79-33.61c12.34,0,22.75,6.07,28.18,14.73l-12.52,7.18c-2.67-4.23-8.47-7.55-15.75-7.55-10.86,0-19,8-19,19.34,0,11,7.74,19,20.26,19,8.56,0,14.18-3.78,16.48-10H880.05V219.53h32.33Z"/><path class="cls-2" d="M403.69,329.62c0,26.44-18.41,42.51-42.64,42.51-27.18,0-46.71-20-46.71-44.86a44.87,44.87,0,0,1,45.36-45.11c16.55,0,30.52,8.16,37.81,19.77l-16.81,9.64c-3.58-5.68-11.37-10.13-21.13-10.13-14.58,0-25.46,10.75-25.46,25.95,0,14.71,10.38,25.46,27.19,25.46,11.49,0,19-5.07,22.12-13.35H360.31V322.2h43.38Z"/><path class="cls-2" d="M444,342h-9.39V370.4H414.82V283.89h34.6a29.59,29.59,0,0,1,29.66,29.66c0,10.63-6.42,20.27-15.94,25.09l18.41,31.76H460.3Zm-9.39-17.3h14.83c5.44,0,9.89-4.82,9.89-11.12s-4.45-11.12-9.89-11.12H434.59Z"/><path class="cls-2" d="M541.5,356.8H509.37L505,370.4H483.42l29.41-86.51H538l29.41,86.51H545.82Zm-5.93-18.53-10.14-31.76L515.3,338.27Z"/><path class="cls-2" d="M637.9,313.55c0,16.44-13.23,29.66-30.28,29.66h-13V370.4H574.87V283.89h32.75C624.67,283.89,637.9,297.12,637.9,313.55Zm-19.78,0c0-6.3-4.44-11.12-10.5-11.12h-13v22.24h13C613.68,324.67,618.12,319.85,618.12,313.55Z"/><path class="cls-2" d="M714.52,283.89V370.4H694.75V336H667.56V370.4H647.79V283.89h19.77V317h27.19V283.89Z"/><path class="cls-2" d="M749.13,283.89V370.4H729.36V283.89Z"/><path class="cls-2" d="M760.26,327.14c0-25.45,18.91-45,45-45,15.7,0,29.54,7.79,37.08,20l-17.06,9.89c-3.83-6.68-11.24-10.63-20-10.63-15.32,0-25.21,10.26-25.21,25.7s9.89,25.71,25.21,25.71c8.78,0,16.31-4,20-10.63l17.06,9.89c-7.42,12.23-21.26,20-37.08,20C779.17,372.13,760.26,352.6,760.26,327.14Z"/><path class="cls-2" d="M847.27,350.75l17.05-9.89c3.09,7.17,8.4,12,18.17,12,9.39,0,11.74-3.71,11.74-7.05,0-5.31-4.94-7.41-17.92-11s-25.46-9.77-25.46-26.33,14.09-26.32,29-26.32c14.21,0,25.34,6.8,31.64,19.53l-16.68,9.76c-3-6.18-7.05-10-15-10-6.18,0-9.27,3.09-9.27,6.55,0,3.95,2.1,6.67,15.57,10.75,13.1,4,27.81,8.53,27.81,26.82,0,16.68-13.35,26.57-32.13,26.57C863.71,372.13,852.09,363.48,847.27,350.75Z"/></g></g></svg>