<svg xmlns="http://www.w3.org/2000/svg" viewBox="0 0 83 73.51"><defs><style>.cls-1{fill:#fff;}</style></defs><g id="Layer_2" data-name="Layer 2"><g id="Layer_1-2" data-name="Layer 1"><path class="cls-1" d="M0,3.23c.15-.26.3-.52.44-.78,1.69-3,4.89-3.27,7.11-.64a2.92,2.92,0,0,0,1.86,1c5.69.24,8.41,2.25,9.93,7.87.45,1.68,1.17,2.06,2.77,2,17.5,0,35,0,52.49-.09,4.13,0,7,1.33,8.4,5.3v3q-.91,6.65-1.84,13.29c-.33,2.48-.64,5-1,7.78l-2.88-1.39c.82-6.48,1.65-12.87,2.41-19.26.46-3.88-1.06-5.55-4.91-5.55H20.49c1.93,10.75,3.82,21.28,5.73,31.95,3.45-.23,6.69-.42,9.92-.65,4.35-.31,8.7-.62,13-1C52,45.88,52,45.84,52.6,49L27.08,50.8a3.85,3.85,0,0,0,4.24,3.34c6.94,0,13.89.09,20.83,0,1.93,0,2.65.7,2.78,2.61h-7.2c-5.53,0-11.06,0-16.6,0A7.54,7.54,0,0,1,23.4,50C22,41.71,20.5,33.44,19,25.15c-.59-3.38-1.11-6.79-1.82-10.15A32.06,32.06,0,0,0,15.4,9c-1.33-3.07-3.14-4-6.46-3.56a1.86,1.86,0,0,0-1,.53C4.87,9.5,2.58,9.34,0,5.45Z"/><path class="cls-1" d="M69.83,47.35c2.31,2.94,4.35,5.62,6.49,8.23.94,1.15,1,2-.31,2.88A37,37,0,0,0,73,60.82c-1.13,1-1.95.66-2.75-.43-2-2.71-4-5.4-6.29-8.38-1,1.9-1.78,3.6-2.73,5.2a7.28,7.28,0,0,1-1.68,1.47,6.59,6.59,0,0,1-1.34-1.75q-3.68-11.48-7.2-23A8.5,8.5,0,0,1,51,31.36a8.1,8.1,0,0,1,2.4.35Q64.22,37.08,75,42.59c.46.24,1.07.93,1,1.31a2.25,2.25,0,0,1-1.16,1.4C73.26,46,71.66,46.61,69.83,47.35Zm4,9.44c-.31-.44-.51-.74-.73-1-1.93-2.46-3.88-4.91-5.82-7.37-1.41-1.79-1.26-2.37.8-3.2l3.47-1.4L54,34.87c2,6.56,3.93,12.63,6,19.17.88-1.68,1.49-2.86,2.12-4,1.2-2.23,1.82-2.29,3.35-.3l.66.88L72,58.29Z"/><path class="cls-1" d="M69.83,68.09a5.45,5.45,0,0,1-5.54,5.41,5.56,5.56,0,1,1,.25-11.11A5.54,5.54,0,0,1,69.83,68.09Zm-2.6-.2a2.89,2.89,0,1,0-5.78.24,2.89,2.89,0,1,0,5.78-.24Z"/><path class="cls-1" d="M37.79,67.9A5.57,5.57,0,0,1,26.66,68a5.57,5.57,0,1,1,11.13-.12ZM32.34,71a3,3,0,0,0,2.78-3.1,2.84,2.84,0,0,0-3-2.84,2.94,2.94,0,0,0-2.81,3.06A3,3,0,0,0,32.34,71Z"/><path class="cls-1" d="M50.07,26.4a4,4,0,0,1-.87-.88c-.61-1.19-1.17-2.41-1.67-3.65-.1-.24.12-.63.26-.91,0-.05.55,0,.61.15.78,1.62,1.52,3.27,2.27,4.9Z"/><path class="cls-1" d="M54.34,26.63l2-5.75c1,1.64,0,5.05-1.46,6Z"/><path class="cls-1" d="M63,28.19c-.89,1.45-3.88,2.8-5.47,1.89l5.19-2.45Z"/><path class="cls-1" d="M40.23,35.8c1.61-.77,3.08-1.49,4.57-2.14.24-.11.64.07.93.2.06,0,0,.59-.07.63-1.64.7-3.3,1.36-5,2C40.66,36.51,40.51,36.22,40.23,35.8Z"/><path class="cls-1" d="M48.41,37.06a6.31,6.31,0,0,1-2,6.23C46.48,41,47.42,39.28,48.41,37.06Z"/><path class="cls-1" d="M46.17,29.67,40.35,27.5a5.88,5.88,0,0,1,6,1.54Z"/></g></g></svg>