<svg xmlns="http://www.w3.org/2000/svg" viewBox="0 0 128.44 152.15"><defs><style>.cls-1{fill:#ee4323;}</style></defs><g id="Layer_2" data-name="Layer 2"><g id="Layer_1-2" data-name="Layer 1"><path class="cls-1" d="M6.57,144.14c-2.61,0-3.37-1.52-3.37-3.79a19.85,19.85,0,0,1,.22-2.52c.57-3.94,2-6.19,5.34-6.19,2.27,0,3.39,1,3.39,2.87v.9h2.26s0-.83,0-1c0-2.71-1.64-5.27-5.67-5.27-5.48,0-7.74,3-8.57,8.82A14.74,14.74,0,0,0,0,140.23c0,3.44,1.35,6.58,6.2,6.58a7.75,7.75,0,0,0,7.14-4l-2.16-1.45c-1.4,2.21-2.92,2.79-4.61,2.79Zm14.84-10.87c-4.39,0-6.29,2.26-6.93,6.74a10.38,10.38,0,0,0-.12,1.57c0,2.89,1.35,5.2,5.1,5.2,4.39,0,6.32-2.35,7-6.77a13.15,13.15,0,0,0,.12-1.61c0-2.94-1.4-5.13-5.13-5.13ZM23.24,140c-.48,3.26-1.5,4.25-3.42,4.25-1.54,0-2.3-.64-2.3-2.56a12.61,12.61,0,0,1,.14-1.69c.48-3.22,1.43-4.22,3.37-4.22,1.57,0,2.35.64,2.35,2.59a11.45,11.45,0,0,1-.14,1.63Zm14.34-10.66-.74,4.36c-.05.38,0,.26.12.61a5.26,5.26,0,0,0-2.75-.87c-3.94,0-6.15,1.79-6.86,6.77a10.64,10.64,0,0,0-.12,1.59c0,3.64,2.14,5,5,5a4.79,4.79,0,0,0,3.32-.76l.24,1.48h2.28l2.65-18.17Zm-2.26,14.22a5.46,5.46,0,0,1-2.75.79c-1.73,0-2.21-.9-2.21-2.35a13.62,13.62,0,0,1,.17-1.88c.55-3.77,1.76-4.44,3.32-4.44a5,5,0,0,1,2.54.57l-1.07,7.31Zm12.35-10.3c-4.35,0-6.39,2.07-7.08,6.74a13.63,13.63,0,0,0-.12,1.64c0,3.21,1.64,5.13,5.25,5.13a6.32,6.32,0,0,0,6-3.3l-2.39-1a3.58,3.58,0,0,1-3.26,1.75c-1.75,0-2.46-.47-2.46-2a2.28,2.28,0,0,1,.07-.76h8.57c.12-1.21.26-2.06.26-2.77,0-2.38-.9-5.42-4.84-5.42ZM49.3,139H44.08c.52-1.21,1.4-3.08,3.21-3.08,1.4,0,2.08.82,2.08,2.22a3.5,3.5,0,0,1-.07.86Zm12.34-6,.28-2.42H55.23L55,133H56.7L54.81,145.1H53.05l-.29,2.42h6.7l.28-2.42H58L59.88,133Zm13.6,3.63.86-2.42H73.79l-1.66.34a6.55,6.55,0,0,0-3.37-1c-3.39,0-6.29,1.63-6.29,5.36a4,4,0,0,0,.83,2.46A2.21,2.21,0,0,0,62,143.2a1.8,1.8,0,0,0,.42,1.12,4.56,4.56,0,0,0-2.3,3.94c0,3.2,3.35,3.89,5.91,3.89,3.23,0,7.08-.74,7.08-4.85,0-1.4-.88-2.49-3.42-3l-4.58-.86c-.52-.1-.64-.26-.64-.5a.5.5,0,0,1,.57-.54l.31,0a8.8,8.8,0,0,0,2.06.22c3.3,0,6.24-1.43,6.24-5.13a3.34,3.34,0,0,0-.33-1.45,5.19,5.19,0,0,0,1.14.5Zm-6.52,9.83c.9.16,1.21.49,1.21,1.09,0,1.92-2.07,2.16-3.56,2.16-2.28,0-3.14-.55-3.14-1.76a2.94,2.94,0,0,1,1-2.33Zm-1-6.22c-1.38,0-2.14-.5-2.14-1.69a2.55,2.55,0,0,1,2.81-2.77c1.42,0,2.11.59,2.11,1.75A2.48,2.48,0,0,1,67.74,140.23Zm15.93-7c-1.33,0-2.51.66-4,1.82l-.22-.89H76.86L75,147.52h3.16l1.38-10.1c.92-.57,2.06-1.4,3-1.4,1.18,0,1.61.57,1.61,1.67a12.05,12.05,0,0,1-.07,1.32L83,147.52h3.15l1.16-8.58c0-.41.1-1.07.1-1.45,0-2.25-1.07-4.22-3.73-4.22Zm9.73,10.91,0-.32,1.38-9.66H89.55l-.33,2.42h2.3c-.19,0-.31.21-.33.4l-1,6.44a10.41,10.41,0,0,0-.07,1.21,2.57,2.57,0,0,0,2.75,2.85h1.62l.35-2.42h-1c-.36,0-.47-.63-.47-.92Zm2-14.83H92.35c-.19,0-.19-.69-.21-.46l-.43,3.42c0,.21,0,.68.17.68H95c.19,0,.19-.83.22-1.05l.42-2.63c0-.24,0,0-.16,0Zm6.44,14.91c-.79,0-1.17-.33-1.17-1l0-.05,1-6.55h3.61l1.09-2.42h-4.36l.73-5.33-3.32,1.06-.6,4.27H97l-.33,2.42h2.23c-.21,1.21-.43.43-.45.66L97.56,143a3.3,3.3,0,0,0,0,.69c0,2.25,1.66,3.09,3.66,3.09a6.83,6.83,0,0,0,4.51-1.51l-1.48-1.81a3.77,3.77,0,0,1-2.32.77Zm11.58-11c-4.35,0-6.39,2.07-7.08,6.74a13.55,13.55,0,0,0-.11,1.64c0,3.21,1.63,5.13,5.24,5.13a6.35,6.35,0,0,0,6-3.3l-2.4-1a3.57,3.57,0,0,1-3.25,1.75c-1.76,0-2.47-.47-2.47-2a2.28,2.28,0,0,1,.07-.76H118c.12-1.21.26-2.06.26-2.77,0-2.38-.9-5.42-4.84-5.42ZM115.1,139h-5.23c.53-1.21,1.4-3.08,3.21-3.08a1.94,1.94,0,0,1,2.09,2.22,4.09,4.09,0,0,1-.07.86ZM127,133.27a5,5,0,0,0-3.28,1.67l-.19-.74H121l-1.83,13.32h3.18l1.4-10.32a5.59,5.59,0,0,1,2.69-.92,12.77,12.77,0,0,1,1.63,0l.41-2.75a8.05,8.05,0,0,0-1.4-.24ZM46.43,119.81c-7.19-3.1-13.91-11-13.93-19.07,0-8.81,5.57-16.28,12.51-21.19-.84,3.15-1.29,6,.77,8.85a8.39,8.39,0,0,0,8.47,3.21C61.67,90,62,81.82,57.61,77.06s-8.56-10-6.9-16.86a17.58,17.58,0,0,1,5.59-8.92c-2,5.38,3.77,10.68,7.6,13.33C70.55,69.19,77.85,72.66,84,78c6.43,5.65,11.18,13.29,10.22,22.14-1,9.6-8.67,16.28-17.23,19.65,18.09-4,36.77-18,37.15-38.08.32-16.5-11-29.19-25-36.46l-.73-.4a5.91,5.91,0,0,1,.49,2.44,8,8,0,0,0,.24-1.62,7.57,7.57,0,0,1-.26,1.95l0-.33a8,8,0,0,1-1,2.47l.2-.22c-2.79,4.64-10.37,5.64-14.11.84-6-7.73.13-16.06,1-24.24C76,15.91,69.53,6,61.56,0c4.39,7.1-1.4,16.5-6,21.76-4.49,5.09-9.94,9.35-14.9,14A125.1,125.1,0,0,0,25.81,51.78c-8.75,11.67-14.1,26.36-10.17,40.93s16.55,23.83,30.79,27.1Z"/></g></g></svg>