<svg xmlns="http://www.w3.org/2000/svg" viewBox="0 0 81 82.19"><defs><style>.cls-1{fill:#fff;}</style></defs><g id="Layer_2" data-name="Layer 2"><g id="Layer_1-2" data-name="Layer 1"><path class="cls-1" d="M4.29,29.13c2.29.64,3.5-.44,4.09-2.59A4.44,4.44,0,0,1,9.12,25c1.73-2.21,1.32-4-1-5.4-1.64-1-1.67-2.26-.32-3.58s2-4.07,4.46-1.87c2.29,2,4.12,1.67,6-.39a6.46,6.46,0,0,1,1.53-1.23c1.72-1,2-2.2,1.22-4a3.65,3.65,0,0,1,3.67-5.3c.77.05,1.72,1.15,2.13,2,1,2.05,2.31,2.79,4.48,1.87a6.76,6.76,0,0,1,2.13-.5c2.54-.17,3.86-1.4,3.69-4C37,.44,38.07-.15,40,0S44-.61,43.9,2.47c-.11,2.74,1.18,4,3.87,4.13a6.7,6.7,0,0,1,2.38.53c1.77.77,2.65,0,3.5-1.51a3.85,3.85,0,0,1,6.71-.28,3,3,0,0,1-.15,2.43c-.78,1.6-.57,2.78.85,3.83A15,15,0,0,1,62.48,13c2.93,2.81,2.89,2.75,6.38,1a3.17,3.17,0,0,1,2.47.3c.74.41,1.2,1.32,1.85,1.93,1.26,1.19,1.2,2.34-.21,3.21C70.28,21,70.48,23,72,25.25a6,6,0,0,1,.73,1.54c.7,2.12,2.09,2.72,4.17,2.05,1.69-.54,2.93-.37,3.44,1.77,1,4.13,1.07,4.48-1.61,5.14s-3.52,2-3.12,4.53a5.45,5.45,0,0,1,0,1.71c-.37,2.34.56,3.59,2.89,4.21,2.84.77,2.78,1,1.84,5.06-.53,2.28-2,2-3.57,1.58-2-.53-3.33,0-3.94,2.08a5,5,0,0,1-.74,1.53c-1.72,2.41-1.59,4.42,1.07,6.07,1.17.73,1,1.71.21,2.69a15.38,15.38,0,0,0-1.49,1.94c-1,1.57-2.15,1.64-3.43.51C66.6,66,64.91,66.07,63.23,68a7.88,7.88,0,0,1-1.69,1.4c-1.81,1.14-2.17,2.49-1.3,4.52,1,2.35-1.76,5.62-4.3,5.1-.75-.15-1.5-1.19-1.9-2-1-2-2.28-2.88-4.48-1.9a4.52,4.52,0,0,1-1.67.33c-2.78.1-4.14,1.51-4,4.3.11,2.16-1.13,2.52-3,2.49s-3.58,0-3.54-2.49c0-2.22-1.13-3-3.15-3.14a10.06,10.06,0,0,1-2.87-.6c-2.21-.81-3.68-.34-4.73,1.92-.25.56-1.62.79-2.48.82-.67,0-1.33-.58-2-.78-2.39-.68-3-2-1.53-4.08,1.05-1.5.64-2.73-.75-3.77A15.44,15.44,0,0,1,18.6,68.9C15.25,65.84,16,65.34,12,68.1c-1.33.92-2.31.69-3-.62S5.49,65,7.78,63.08c2.88-2.36,2.29-4.51.82-7.34-1.16-2.25-2.34-3.28-4.87-2.68C2.31,53.4.85,53.22.65,51.3s-1.9-3.86,1.11-5.19c2.68-1.2,4.32-5.94,3.12-8.68-.29-.66-1.32-1.09-2.09-1.44C1.24,35.3-.5,35,.17,32.49.76,30.19,1.24,28.25,4.29,29.13ZM40.61,70.87a29.89,29.89,0,1,0-30-29.82A29.87,29.87,0,0,0,40.61,70.87Z"/><path class="cls-1" d="M56.31,29.32c.37,5.26-2.56,8-7.08,7.49a4.44,4.44,0,0,0-3.17,1.07c-3.63,3.41-7.14,6.94-10.57,10.55a4.72,4.72,0,0,0-1.07,3c0,3.77-2.26,6.52-5.71,6.6a5.77,5.77,0,0,1-5.8-6.2c.21-3.55,2.89-5.58,6.77-5.38a3.71,3.71,0,0,0,2.54-.93c3.7-3.56,7.36-7.17,10.87-10.93A4.7,4.7,0,0,0,44,31.29c-.32-4.5,2.3-7.2,7.44-6.88l-2.71,3c-1.55,1.71-1.48,2.91.23,4.62,1.47,1.46,2.9,1.68,4.43.09C54.2,31.22,55.11,30.44,56.31,29.32ZM28.77,49.2a3.34,3.34,0,0,0-3.25,2.85c-.05,1.4,1.62,2.86,3.11,3,2.27.26,2.81-1.4,3.19-2.91C32.16,50.83,30.31,49.21,28.77,49.2Z"/><path class="cls-1" d="M41.41,44.71,45,41.39c2.33,1.79,4.79,3.5,7,5.45a44.55,44.55,0,0,1,5.23,5.41,3.21,3.21,0,0,1-.14,4.64,3.08,3.08,0,0,1-4.6.11,76.56,76.56,0,0,1-6.16-6.19C44.64,48.9,43.1,46.81,41.41,44.71Z"/><path class="cls-1" d="M26.2,25.68a8.92,8.92,0,0,1,1.55.91c3.33,3.21,6.65,6.44,9.92,9.72.27.27.18.91.26,1.37-.42,0-1,.08-1.23-.15q-5.28-5.39-10.49-10.84C26.13,26.61,26.2,26.4,26.2,25.68Z"/></g></g></svg>