<svg xmlns="http://www.w3.org/2000/svg" xmlns:xlink="http://www.w3.org/1999/xlink" viewBox="0 0 90.44 88.11"><defs><style>.cls-1{fill:url(#Orange);}.cls-2{fill:url(#Orange-2);}.cls-3{fill:url(#Orange-3);}.cls-4{fill:url(#Orange-4);}</style><linearGradient id="Orange" y1="44.05" x2="90.44" y2="44.05" gradientUnits="userSpaceOnUse"><stop offset="0" stop-color="#f69453"/><stop offset="0.5" stop-color="#f37521"/><stop offset="1" stop-color="#d4622a"/></linearGradient><linearGradient id="Orange-2" x1="44.86" y1="36.99" x2="71.17" y2="36.99" xlink:href="#Orange"/><linearGradient id="Orange-3" x1="23.93" y1="13.43" x2="48.88" y2="13.43" xlink:href="#Orange"/><linearGradient id="Orange-4" x1="6.98" y1="28.91" x2="10.19" y2="28.91" xlink:href="#Orange"/></defs><g id="Layer_2" data-name="Layer 2"><g id="Layer_1-2" data-name="Layer 1"><path class="cls-1" d="M16.05,3.22V54.36l.93.07c.34-3.61.73-7.21,1-10.82.21-2.87,1.2-5.06,4.46-5s4.81,1.87,5,5.07c.11,1.86.39,3.72.49,4.68,3.28,2,5.85,4.4,8.84,5.19,3.92,1,8.17,1,12.28,1,8.42.14,16.85,0,25.63,0V3.21a47.08,47.08,0,0,1-5.82-.08c-.81-.1-1.52-1-2.28-1.6.68-.49,1.35-1.39,2-1.41C74.37,0,80.14-.09,85.88.13c3,.12,4.5,2.28,4.51,5.18,0,15.8.1,31.59,0,47.39,0,3.79-2.56,5.25-6.21,5.21-11.51-.12-23-.16-34.53-.22a19.6,19.6,0,0,0-4.12.3c3.41,1.84,3.66,4.67,2.9,7.69C46.83,71.87,45.12,78,43.48,84.19c-.78,3-2.89,4-5.73,3.91-1.87,0-3.74-.25-5.61-.32C18.22,87.22,21.91,89.46,14.4,77a45.61,45.61,0,0,1-4.19-8.64c-.7-2-1.3-5-.33-6.51s3.94-1.54,6.63-2.42c-.38-.29-1.11-1.33-1.91-1.39-2.93-.22-5.89-.1-8.83-.11-3.56,0-5.68-1.82-5.7-5.32q-.15-23.7,0-47.39C.1,1.88,2.09,0,5.5,0,21.57,0,37.64,0,53.7.11c1,0,2,1,3.06,1.6-1.08.5-2.16,1.43-3.25,1.44-11,.11-21.95.07-32.93.07ZM36.5,56.79l-3.75,5.14c-.23-2-.5-3.93-.69-5.91-.05-.51.34-1.2.12-1.55a3.07,3.07,0,0,0-1.64-1.32c-.41-.11-1.09.46-1.5.87-.24.24-.1.81-.27,1.15-.59,1.19-1.25,2.36-1.88,3.53a17,17,0,0,1-1.6-4c-.41-3.18-.33-6.42-.78-9.59-.17-1.21-1.23-2.29-1.89-3.42C22,42.9,21,44,20.88,45.24c-.64,6.38-1,12.79-1.58,19.19A19.47,19.47,0,0,1,18.14,68L12.32,61.8c0,2.17-.31,3.24.06,4,2.92,5.7,5.9,11.37,9,16.94a4,4,0,0,0,2.84,1.62c4.26.4,8.54.62,12.82.7,1,0,2.85-.5,3-1.14,2-6.76,3.7-13.58,5.32-20.42.14-.59-.95-2-1.67-2.12a4.12,4.12,0,0,0-2.76.92,17.43,17.43,0,0,0-2.43,2.36,31.05,31.05,0,0,1-.38-4C38.24,58.91,39.25,56.73,36.5,56.79Zm41.63-2.12h3.56c5.64,0,5.64,0,5.64-5.67V10.94c0-8.19,0-8.2-8.38-7.57-.22,0-.43.25-.82.49Zm-65.78-.24v-51C11.06,3.32,10,3.24,9,3.23,3.1,3.17,3.1,3.18,3.1,9.08V46.32C3.1,55.23,3.1,55.23,12.35,54.43Z"/><path class="cls-2" d="M71.15,36.83c0,3.21-.06,6.42,0,9.63s-1.3,5-4.75,5c-5.62-.07-11.24,0-16.86,0-3.11,0-4.71-1.41-4.7-4.61,0-6.56,0-13.12,0-19.68,0-3.21,1.67-4.56,4.77-4.54,5.62,0,11.24.05,16.86,0,3.21,0,4.68,1.49,4.65,4.63S71.15,33.62,71.15,36.83ZM67.76,48v-22H59.38V48Zm-12.06.08V26H48.37V48.12Z"/><path class="cls-3" d="M33.21,12.73,33,16.47a10.38,10.38,0,0,1-3.27-.6c-2-1.11-3.88-2.53-5.8-3.82a65.5,65.5,0,0,1,5.51-4.23c3.41-2.12,3.86-1.84,4.17,2,2.64.14,5.33.08,8,.46,4.18.61,7.71,4.72,7.28,8.25a2.78,2.78,0,0,1-1.17,1.75c-.23.16-1.22-.41-1.54-.87-1.32-1.87-2.1-4.78-3.85-5.55C39.61,12.75,36.31,13.06,33.21,12.73Z"/><path class="cls-4" d="M7,28.68a54.36,54.36,0,0,1,.07-6c.09-.82,1-1.55,1.49-2.32.52.66,1.47,1.31,1.49,2q.21,6.6,0,13.2c0,.65-1,1.26-1.57,1.89-.49-.65-1.35-1.28-1.41-2C6.92,33.23,7,31,7,28.68Z"/></g></g></svg>