<svg xmlns="http://www.w3.org/2000/svg" xmlns:xlink="http://www.w3.org/1999/xlink" viewBox="0 0 100.43 100.27"><defs><style>.cls-1{fill:url(#Orange);}.cls-2{fill:url(#Orange-2);}.cls-3{fill:url(#Orange-3);}.cls-4{fill:url(#Orange-4);}.cls-5{fill:url(#Orange-5);}.cls-6{fill:url(#Orange-6);}.cls-7{fill:url(#Orange-7);}</style><linearGradient id="Orange" y1="50.13" x2="100.43" y2="50.13" gradientUnits="userSpaceOnUse"><stop offset="0" stop-color="#f69453"/><stop offset="0.5" stop-color="#f37521"/><stop offset="1" stop-color="#d4622a"/></linearGradient><linearGradient id="Orange-2" x1="33.54" y1="44.34" x2="93.75" y2="44.34" xlink:href="#Orange"/><linearGradient id="Orange-3" x1="6.67" y1="33.78" x2="59.6" y2="33.78" xlink:href="#Orange"/><linearGradient id="Orange-4" x1="20.09" y1="36.84" x2="30.74" y2="36.84" xlink:href="#Orange"/><linearGradient id="Orange-5" x1="43.33" y1="46.84" x2="55.26" y2="46.84" xlink:href="#Orange"/><linearGradient id="Orange-6" x1="72.02" y1="46.74" x2="83.81" y2="46.74" xlink:href="#Orange"/><linearGradient id="Orange-7" x1="58.85" y1="47.73" x2="70.04" y2="47.73" xlink:href="#Orange"/></defs><g id="Layer_2" data-name="Layer 2"><g id="Layer_1-2" data-name="Layer 1"><path class="cls-1" d="M60.84,83.68c1.37,4.64,2.65,8.95,4,13.37h5.27v3.22H30.32V97.34a2.5,2.5,0,0,1,.59-.22c4.9-.33,4.9-.33,6.23-5.05.76-2.66,1.54-5.3,2.4-8.26-1,0-1.81-.13-2.64-.13H6.21C1.9,83.67,0,81.79,0,77.45V6.07C0,1.94,2,0,6.14,0h88c4.32,0,6.25,1.91,6.25,6.19V77.34c0,4.54-1.79,6.33-6.32,6.33H60.84ZM97,70.25c.05-.57.12-1,.12-1.49,0-20.85,0-41.7,0-62.56,0-2.42-1.1-2.88-3.21-2.88q-43.53.06-87.05,0c-3.44,0-3.49,0-3.49,3.47q0,30.8,0,61.6c0,.61.1,1.21.16,1.83ZM3.35,73.67v2.81c0,3.77.13,3.91,3.83,3.91H94.23c1.34,0,2.68,0,2.81-1.77s0-3.25,0-5ZM39.07,97H61.35c-1.27-4.22-2.47-8.31-3.75-12.36a1.6,1.6,0,0,0-1.15-.91q-6.16-.11-12.35,0a1.63,1.63,0,0,0-1.23.8C41.58,88.57,40.38,92.65,39.07,97Z"/><path class="cls-2" d="M63.78,66.91q-12,0-24,0c-4.51,0-6.18-1.64-6.2-6.16q0-16.65,0-33.31c0-3.73,1.82-5.56,5.54-5.6,5.87-.05,11.75-.17,17.61.08a6.91,6.91,0,0,1,4.7,2.16c3,3.8,6.55,4.84,11.17,4.5,5-.37,10.15-.09,15.22-.09,4,0,5.94,1.91,5.94,6q0,13.34,0,26.65c0,3.82-1.81,5.72-5.67,5.74-8.09.06-16.18,0-24.27,0Zm-.31-3.24c8,0,16,0,24,0,2.1,0,3-.73,3-2.92-.08-8.64,0-17.27,0-25.91,0-2.83-.26-3-3.19-3.05-5.15,0-10.33-.33-15.44.09s-9-1-12.24-5.06a5.71,5.71,0,0,0-3.86-1.66c-5.3-.18-10.61,0-15.92-.1-2.27,0-3.06.84-3,3.1.08,10.77,0,21.55,0,32.32,0,2.69.47,3.17,3.18,3.17Z"/><path class="cls-3" d="M59.59,17.49a24.36,24.36,0,0,1-2.33,2.21l-2.74-3.5A29.47,29.47,0,0,1,49.85,18a11.68,11.68,0,0,1-4.25-.05c-3.15-.57-4.8-2.74-5.57-5.72-.36-1.39-1-2.33-2.78-2.22s-3.06.1-3.61,2.13A8.2,8.2,0,0,1,28.22,18c-2.71,1-4.69,0-6.73-1-1.82-.88-2.65-.05-3.84,1a2.38,2.38,0,0,0-.54,3.48c1.69,2.89,1.56,5.66.05,8.74-1.11,2.28-3.14,2.48-4.92,3.29-1.51.69-2.34,1.4-2.3,3.29s.54,2.92,2.28,3.24c3.77.68,5.49,3.41,6.09,6.7.29,1.59-.42,3.55-1.18,5.1-.92,1.87-.25,2.86.94,4.24s2.51,1.1,3.75.35c3-1.82,5.79-1.67,8.75.63L29.42,60c-3.16-2.41-6-.73-8.71.53A2.67,2.67,0,0,1,17,59.63a16.44,16.44,0,0,0-1.15-1.21c-3.52-3.6-3.52-3.59-1.54-8.36,1.36-3.25.48-5.39-2.76-6.72-4.87-2-4.94-2-4.86-7.14.07-4.73-.85-3.24,3.62-5.4a12,12,0,0,0,3.72-2.28c1.47-1.64,1.21-3.66.06-5.49-1.88-3-1.43-5.25,1.43-7.6,3.36-2.78,3.15-3,7.4-1.33s5.9,1,7.63-3.23S32.32,6.65,37,6.69c4.32,0,4.32,0,6,4.09,1.8,4.39,3.42,5.06,7.8,3.24C55.5,12.08,55.51,12.07,59.59,17.49Z"/><path class="cls-4" d="M30.74,49l-1.32,2.6C24,49.45,20.2,43.3,20.09,36.78c-.11-6.78,5-13.31,9.34-14.64l1.27,2.38C21,33.69,20.92,42.23,30.74,49Z"/><path class="cls-5" d="M52.89,37.76l1.92,1.9-7.75,6.73L55.26,54l-2.82,2-9.11-9.07Z"/><path class="cls-6" d="M74.44,55.9l-2.15-2,7.9-6.66L72,39.72l2.8-2.14,9,9.17Z"/><path class="cls-7" d="M61.71,56l-2.86-1.6,8.27-14.91L70,41Z"/></g></g></svg>