<svg xmlns="http://www.w3.org/2000/svg" xmlns:xlink="http://www.w3.org/1999/xlink" viewBox="0 0 115.76 114.75"><defs><style>.cls-1{fill:url(#Orange);}.cls-2{fill:url(#Orange-2);}.cls-3{fill:url(#Orange-3);}.cls-4{fill:url(#Orange-4);}.cls-5{fill:url(#Orange-5);}.cls-6{fill:url(#Orange-6);}.cls-7{fill:url(#Orange-7);}.cls-8{fill:url(#Orange-8);}.cls-9{fill:url(#Orange-9);}</style><linearGradient id="Orange" y1="57.38" x2="115.76" y2="57.38" gradientUnits="userSpaceOnUse"><stop offset="0" stop-color="#f69453"/><stop offset="0.5" stop-color="#f37521"/><stop offset="1" stop-color="#d4622a"/></linearGradient><linearGradient id="Orange-2" x1="19.7" y1="62.69" x2="96.16" y2="62.69" xlink:href="#Orange"/><linearGradient id="Orange-3" x1="17.46" y1="27.98" x2="98.39" y2="27.98" xlink:href="#Orange"/><linearGradient id="Orange-4" x1="36.9" y1="35.4" x2="98.44" y2="35.4" xlink:href="#Orange"/><linearGradient id="Orange-5" x1="17.4" y1="35.42" x2="33.56" y2="35.42" xlink:href="#Orange"/><linearGradient id="Orange-6" x1="26.67" y1="10.82" x2="30.18" y2="10.82" xlink:href="#Orange"/><linearGradient id="Orange-7" x1="36.4" y1="10.35" x2="40.86" y2="10.35" xlink:href="#Orange"/><linearGradient id="Orange-8" x1="16.01" y1="10.37" x2="20.33" y2="10.37" xlink:href="#Orange"/><linearGradient id="Orange-9" x1="55" y1="96.77" x2="60.81" y2="96.77" xlink:href="#Orange"/></defs><g id="Layer_2" data-name="Layer 2"><g id="Layer_1-2" data-name="Layer 1"><path class="cls-1" d="M73.57,103.43v7.88c.13.23.15.34.22.39l2.95,2.06a29.66,29.66,0,0,1-5,.93q-14.64.14-29.29,0c-1.1,0-2.2-.77-3.3-1.17l3.14-2.6v-7.48h-3.4c-10.16,0-20.33,0-30.5,0C2.75,103.39,0,100.63,0,95Q0,59.71,0,24.37c0-5.78,1.8-7.76,7.58-8.84a2.83,2.83,0,0,0,1.67-2.09c.18-3.51.16-7,.06-10.56C9.26.88,9.84,0,12,0q45.9.08,91.8,0c2.28,0,3,.85,2.9,3-.14,4,0,8,0,11.92.31.27.45.49.61.51,7,1,8.46,2.57,8.46,9.73q0,34.88,0,69.75c0,5.89-2.52,8.45-8.44,8.47-10.07,0-20.13,0-30.2,0Zm30.18-82.54H12.19V89.16h91.56ZM12.14,17.8h91.54V3H12.14ZM113.05,92.27H3.07c-.79,7.15.23,8.31,7.06,8.31h96c1,0,2,0,3,0A4,4,0,0,0,113,96.68,42.85,42.85,0,0,0,113.05,92.27ZM3,89.16c6.31.69,6.31.69,6.31-5.21V18.64c-4.65-.67-6.5.82-6.5,5q0,31.51,0,63C2.84,87.45,3,88.23,3,89.16Zm103.83-70.7v70.7h6a10.45,10.45,0,0,0,.22-1.4c0-21.5,0-43,0-64.5C113.07,19.49,111.27,18.19,106.86,18.46ZM70.55,103.69H45.36v8.08H70.55Z"/><path class="cls-2" d="M57.9,83.51c-9.35,0-18.7-.05-28.06,0-2.21,0-3.51-.75-2.85-2.93,1.38-4.58-1.09-6.83-4.53-9s-3.39-2.43-1.25-6.15c1.6-2.79,3.26-5.55,4.79-8.37.89-1.63,2.08-2.29,3.64-1.2,4.7,3.27,9.09,3.2,13.23-.94a.49.49,0,0,1,.25-.16c5.54-1.09,6.38-5.2,6.23-9.84-.07-2.36.89-3.21,3.23-3.13,3.61.14,7.24.1,10.86,0,1.77,0,3,.33,2.92,2.4C66,50.12,69,53,74.05,56c4.37,2.53,7.43,2.66,11.27.33,2.22-1.36,3.76-1.08,5,1.47a80.64,80.64,0,0,0,5.07,8.9c1.33,2,1,3.28-1,4.38-.61.33-1.1.88-1.72,1.21-3.19,1.73-5,4-3.69,7.92.76,2.3-.33,3.43-3,3.4C76.61,83.44,67.26,83.51,57.9,83.51ZM37.59,80.75c.31-1.39.56-2.66.88-3.91A20.08,20.08,0,0,1,61,62.21c9,1.63,15,7.54,16.84,16.64.16.76,1,1.88,1.6,2a62,62,0,0,0,6.73.09,12.76,12.76,0,0,0-.3-3.11c-1-2.69,0-4.32,2.31-5.69,1.75-1.07,3.34-2.42,5-3.66l-5.81-10c-2.44,1-4.6,1.85-6.64,2.9-1.68.87-2.81.53-4.34-.54a59.24,59.24,0,0,0-9.32-5.39c-1.86-.85-2.6-1.82-2.68-3.77-.08-2.26-.46-4.51-.73-6.91-3.1,0-5.82.2-8.51,0s-3.54.84-3.48,3.39c.08,4-.63,7.58-5.57,8.31a3.64,3.64,0,0,0-1.87,1C39.45,62,34.32,63,28.71,58l-6,10.41A27.9,27.9,0,0,0,26,70.88c3.42,1.85,5.51,4.19,3.8,8.36-.15.38.1.93.18,1.51Zm37.54.16c-.4-9.57-8.45-16.57-18.15-16.23-8.63.31-16.38,8-16,16.16,2.17,0,4.46.4,6.48-.17,1-.28,1.4-2.4,2.2-3.61a9.49,9.49,0,0,1,8.59-4.65c3.83.12,7.07,1.84,8.34,5.41,1,2.85,2.59,3.36,5.1,3.11C72.72,80.82,73.82,80.91,75.13,80.91Zm-23.91-.29H64.53c-.93-3.52-3.31-5.48-6.44-5.55S52.56,76.79,51.22,80.62Z"/><path class="cls-3" d="M58.13,29.33H21.91a8.72,8.72,0,0,1-2.4-.06A9.31,9.31,0,0,1,17.46,28a10.94,10.94,0,0,1,2-1.32,5.07,5.07,0,0,1,1.79-.05H94.56a9.11,9.11,0,0,1,2.4.08c.55.16,1,.78,1.43,1.19C98,28.35,97.57,29,97,29.19a10,10,0,0,1-2.69.14Z"/><path class="cls-4" d="M67.75,36.87H40.63a7.87,7.87,0,0,1-2.39-.1c-.57-.2-1.3-.87-1.34-1.37s.75-1.15,1.31-1.34a7.89,7.89,0,0,1,2.39-.12H94.85c.3,0,.66-.1.89,0,.92.49,1.8,1.06,2.7,1.6-.89.44-1.77,1.25-2.66,1.26C86.44,36.91,77.09,36.87,67.75,36.87Z"/><path class="cls-5" d="M25.38,36.87c-2,0-4,.11-6-.07-.7-.07-1.33-.88-2-1.36C18,35,18.65,34,19.29,34q6.13-.2,12.29,0c.67,0,1.32.88,2,1.35-.73.5-1.42,1.36-2.19,1.44A56.94,56.94,0,0,1,25.38,36.87Z"/><path class="cls-6" d="M28.24,13c-.79-1.32-1.6-2.09-1.57-2.83,0-.56,1.24-1.6,1.7-1.49a2.66,2.66,0,0,1,1.8,1.77C30.23,11.06,29.2,11.79,28.24,13Z"/><path class="cls-7" d="M40.86,10.48c-1.34.79-2.18,1.7-2.84,1.57a2.82,2.82,0,0,1-1.61-2c-.08-.39,1.16-1.49,1.75-1.45C38.91,8.69,39.61,9.57,40.86,10.48Z"/><path class="cls-8" d="M16,10.52c1.21-.92,1.88-1.78,2.61-1.86.56-.05,1.76,1,1.71,1.41-.1.75-.85,1.87-1.48,2S17.35,11.3,16,10.52Z"/><path class="cls-9" d="M57.89,98.48,55,96.3a10.51,10.51,0,0,1,3.18-1.23c.86,0,1.75.74,2.63,1.16Z"/></g></g></svg>