<svg xmlns="http://www.w3.org/2000/svg" xmlns:xlink="http://www.w3.org/1999/xlink" viewBox="0 0 66 64.86"><defs><style>.cls-1{fill:url(#Orange);}.cls-2{fill:url(#Orange-2);}.cls-3{fill:url(#Orange-3);}.cls-4{fill:url(#Orange-4);}</style><linearGradient id="Orange" x1="7.24" y1="32.52" x2="58.37" y2="32.52" gradientUnits="userSpaceOnUse"><stop offset="0" stop-color="#f69453"/><stop offset="0.5" stop-color="#f37521"/><stop offset="1" stop-color="#d4622a"/></linearGradient><linearGradient id="Orange-2" x1="0" y1="32.43" x2="66" y2="32.43" xlink:href="#Orange"/><linearGradient id="Orange-3" x1="18.37" y1="32.5" x2="47.25" y2="32.5" xlink:href="#Orange"/><linearGradient id="Orange-4" x1="25.46" y1="26.77" x2="40.27" y2="26.77" xlink:href="#Orange"/></defs><g id="Layer_2" data-name="Layer 2"><g id="Layer_1-2" data-name="Layer 1"><path class="cls-1" d="M43.23,13.16c0,.7-.28,1.88,1.09,2.29a5.13,5.13,0,0,0,2,.13,6.79,6.79,0,0,0,1.47-.6,3.92,3.92,0,0,1,5,1.51c.77,1.08,1.48,2.2,2.19,3.32,1.62,2.57,1.37,4.26-.85,6.33-.71.66-1.68,1.12-1.35,2.44.24,1,.52,1.67,1.6,1.86a6,6,0,0,1,1.48.58,3.94,3.94,0,0,1,2.43,4.51c-.21,1.3-.46,2.61-.73,3.9a4.17,4.17,0,0,1-4.47,3.66c-.43,0-.85,0-1.28,0-1.9,0-2.86,1.38-2.1,3.08,1.71,3.88,1.35,5.11-2.14,7.43l-1.06.71c-3.26,2.18-4.78,2-7.49-.82a3.38,3.38,0,0,0-1.81-.81c-1.14-.18-1.62.56-2,1.58-1.35,3.69-2.47,4.28-6.39,3.58-.37-.07-.74-.11-1.1-.19-4.66-1-5.11-1.57-5.09-6.39A2.36,2.36,0,0,0,20,49.32c-.6.21-1.16.52-1.75.76a4.17,4.17,0,0,1-5.57-1.6c-.55-.78-1.06-1.59-1.59-2.39-2-3.05-1.88-4.66.8-7.07.86-.77,1.33-1.52.74-2.59a3.49,3.49,0,0,0-1.14-1.27,21.82,21.82,0,0,1-2.93-1.51C6,31.41,7.48,23.71,10.75,22.59a9.15,9.15,0,0,1,2.83-.2c2,0,3-1.44,2.24-3.27-1.67-3.89-1.33-5.06,2.2-7.42l1.74-1.13c2.46-1.61,4.3-1.36,6.38.74.6.61.91,1.58,2.27,1.31a2.62,2.62,0,0,0,2.3-2c1.18-3.37,2.7-4.18,6.2-3.46l2.18.47C42.32,8.32,43.26,9.48,43.23,13.16Zm8.54,27.31c3.26.2,3.26.2,3.95-3,.12-.57.23-1.14.34-1.71.41-2.1.19-2.86-1.8-3.37-2.46-.64-3.69-2-3.71-4.48a.44.44,0,0,0,0-.16,1.67,1.67,0,0,1,.61-2.21c3.57-3.1,3.28-3,.76-6.69l-.09-.13c-1.52-2.31-2-2.55-4.38-1.31-1.81.95-3.34,1.16-4.87-.38a2.3,2.3,0,0,0-.68-.4,1.93,1.93,0,0,1-1.19-2.18c.44-4.92-.46-4.53-4.57-5.41-.2,0-.43,0-.63-.09a2.09,2.09,0,0,0-2.93,1.62c-.6,2.62-2.12,3.86-4.81,4.05a2.35,2.35,0,0,1-2.23-.67c-3.39-3.68-3.14-3.06-6.74-.67-2.49,1.64-2.54,1.91-1.36,4.65.35.81,1,1.83.78,2.48A10.16,10.16,0,0,1,15.91,24c-.44.45-1.58.31-2.4.3-3.26-.05-3.39,0-4,3.11-.92,4.34-.91,4.32,3.23,6a2.67,2.67,0,0,1,1.41,1.29c.79,2.41,1.05,4.76-1.67,6.28,0,0-.07.07-.11.11a2.1,2.1,0,0,0-.33,3.1c.65.91,1.29,1.83,1.86,2.78.8,1.33,2,1.76,3.22.93,2.29-1.48,4.34-1.35,6.24.55a3.1,3.1,0,0,1,1,1.87c-.05,4.69-.44,4.46,4.49,5.47l.63.12c2.08.31,2.78.09,3.35-1.94a4.31,4.31,0,0,1,4.25-3.59,2.52,2.52,0,0,1,2.51.7c3.24,3.6,3.08,3.08,6.6.72,2.63-1.76,2.68-2,1.44-4.9-.33-.76-.95-1.73-.71-2.33A10.27,10.27,0,0,1,49.22,41C49.73,40.46,50.9,40.62,51.77,40.47Z"/><path class="cls-2" d="M5,21.82a28,28,0,0,1,3.46-1.64c.49-.16,1.16.21,1.75.35C10,21,9.86,21.79,9.47,22c-1.8,1-3.66,1.92-5.53,2.78A1.21,1.21,0,0,1,2.05,24C1.47,22.27.82,20.53.24,18.78,0,18.08-.33,17.14.75,17c.45-.06,1.14.66,1.49,1.18a12,12,0,0,1,.86,2.24c.26-.5.43-.8.57-1.11a32.4,32.4,0,0,1,53.56-8.76C66,20,68.12,31.07,64,43.05S50.91,62.12,38.41,64.4A31,31,0,0,1,20.21,62c-.73-.32-1.88-.52-1.42-1.69s1.51-.54,2.28-.2A30.28,30.28,0,1,0,5.4,20.59C5.27,20.88,5.19,21.18,5,21.82Z"/><path class="cls-3" d="M32.79,46.92A14.42,14.42,0,1,1,47.25,32.44,14.51,14.51,0,0,1,32.79,46.92ZM45.15,32.64A12.3,12.3,0,1,0,32.78,44.73,12.09,12.09,0,0,0,45.15,32.64Z"/><path class="cls-4" d="M25.46,29.08c1.19-3.65,3.9-5.38,8.34-5.39,2.73,0,5.44,2.32,6.47,5.66l-1.59.49A7.24,7.24,0,0,0,25.46,29.08Z"/></g></g></svg>