<svg xmlns="http://www.w3.org/2000/svg" viewBox="0 0 732.52 380.77"><defs><style>.cls-1{fill:#fff;}</style></defs><g id="Layer_2" data-name="Layer 2"><g id="Layer_1-2" data-name="Layer 1"><path class="cls-1" d="M45.05,23.93c0,13.33-9.28,21.43-21.5,21.43C9.85,45.36,0,35.27,0,22.74A22.62,22.62,0,0,1,22.87,0,22.32,22.32,0,0,1,41.94,10l-8.48,4.86C31.65,12,27.73,9.72,22.81,9.72,15.45,9.72,10,15.14,10,22.81c0,7.41,5.23,12.83,13.71,12.83,5.79,0,9.59-2.55,11.15-6.73H23.18V20.19H45.05Z"/><path class="cls-1" d="M78.08,34.89v9.6H50.66V.87H77.77v9.6H60.63V17.7H76.21v9.47H60.63v7.72Z"/><path class="cls-1" d="M113,10.47H101.76v34h-10v-34H80.57V.87H113Z"/><path class="cls-1" d="M153.79,27.73V44.49h-10V27.73L129.18.87h11.34l8.29,16.83L157.1.87h11.34Z"/><path class="cls-1" d="M167.19,22.68a22.69,22.69,0,0,1,45.37,0,22.69,22.69,0,0,1-45.37,0Zm35.4,0c0-7.79-5.61-13-12.72-13s-12.71,5.17-12.71,13,5.61,13,12.71,13S202.59,30.47,202.59,22.68Z"/><path class="cls-1" d="M217.55,30.41V.87h10V29.54c0,3.3,1.55,6.1,6.85,6.1s6.85-2.8,6.85-6.1V.87h10V30.41c0,9.34-7.23,15-16.82,15S217.55,39.75,217.55,30.41Z"/><path class="cls-1" d="M273.07,30.16h-4.74V44.49h-10V.87h17.45a14.92,14.92,0,0,1,14.95,15,14.38,14.38,0,0,1-8,12.65l9.28,16H281.29Zm-4.74-8.72h7.48c2.74,0,5-2.44,5-5.61s-2.24-5.61-5-5.61h-7.48Z"/><path class="cls-1" d="M350.9,22.68c0,12.34-9.16,21.81-21.19,21.81H312.27V.87h17.44C341.74.87,350.9,10.34,350.9,22.68Zm-9.6,0c0-7.48-4.73-12.21-11.59-12.21h-7.48V34.89h7.48C336.57,34.89,341.3,30.16,341.3,22.68Z"/><path class="cls-1" d="M383.93,34.89v9.6H356.51V.87h27.1v9.6H366.48V17.7h15.58v9.47H366.48v7.72Z"/><path class="cls-1" d="M387.36,34.58l8.59-5c1.56,3.61,4.24,6,9.16,6,4.74,0,5.92-1.87,5.92-3.55,0-2.68-2.49-3.74-9-5.55s-12.84-4.92-12.84-13.27S396.27,0,403.81,0a16.92,16.92,0,0,1,15.95,9.85l-8.41,4.92c-1.5-3.12-3.56-5-7.54-5-3.12,0-4.68,1.56-4.68,3.3,0,2,1.06,3.37,7.85,5.42,6.61,2,14,4.3,14,13.53,0,8.41-6.73,13.39-16.2,13.39C395.64,45.36,389.79,41,387.36,34.58Z"/><path class="cls-1" d="M435.65.87V44.49h-10V.87Z"/><path class="cls-1" d="M457.83,30.16H453.1V44.49h-10V.87h17.44a14.92,14.92,0,0,1,15,15,14.37,14.37,0,0,1-8,12.65l9.29,16H466.06Zm-4.73-8.72h7.47c2.75,0,5-2.44,5-5.61s-2.24-5.61-5-5.61H453.1Z"/><path class="cls-1" d="M508.87,34.89v9.6H481.45V.87h27.11v9.6H491.42V17.7H507v9.47H491.42v7.72Z"/><path class="cls-1" d="M553.11,22.68c0,12.34-9.16,21.81-21.18,21.81H514.48V.87h17.45C544,.87,553.11,10.34,553.11,22.68Zm-9.59,0c0-7.48-4.74-12.21-11.59-12.21h-7.48V34.89h7.48C538.78,34.89,543.52,30.16,543.52,22.68Z"/><path class="cls-1" d="M64.83,166.77v24.35H0V80.43H25.3v86.34Z"/><path class="cls-1" d="M64.84,135.78a57.56,57.56,0,1,1,57.56,57.56A57.07,57.07,0,0,1,64.84,135.78Zm89.82,0c0-19.77-14.23-32.9-32.26-32.9S90.14,116,90.14,135.78s14.23,32.89,32.26,32.89S154.66,155.54,154.66,135.78Z"/><path class="cls-1" d="M303.79,138.94c0,33.84-23.56,54.4-54.56,54.4-34.79,0-59.77-25.62-59.77-57.41,0-32.1,25.46-57.72,58-57.72,21.19,0,39.06,10.44,48.39,25.31l-21.5,12.33c-4.59-7.27-14.55-13-27-13-18.66,0-32.58,13.76-32.58,33.21,0,18.82,13.28,32.58,34.79,32.58,14.71,0,24.35-6.49,28.31-17.08H248.28V129.45h55.51Z"/><path class="cls-1" d="M313.29,135.78a57.56,57.56,0,1,1,57.56,57.56A57.07,57.07,0,0,1,313.29,135.78Zm89.82,0c0-19.77-14.24-32.9-32.26-32.9s-32.26,13.13-32.26,32.9,14.23,32.89,32.26,32.89S403.11,155.54,403.11,135.78Z"/><path class="cls-1" d="M458.38,138.41v11.41h22v13h-22v21.71H444.87V125.4h35.9v13Z"/><path class="cls-1" d="M520.91,175.25h-22l-3,9.29H481.2l20.11-59.14h17.23l20.11,59.14H523.86Zm-4.06-12.67-6.93-21.72L503,162.58Z"/><path class="cls-1" d="M539.5,171.11l11.66-6.76c2.11,4.9,5.74,8.19,12.42,8.19,6.42,0,8-2.53,8-4.81,0-3.63-3.38-5.07-12.25-7.52s-17.4-6.67-17.4-18,9.63-18,19.85-18c9.72,0,17.32,4.65,21.63,13.35L572,144.24c-2-4.22-4.82-6.84-10.23-6.84-4.22,0-6.33,2.11-6.33,4.48,0,2.7,1.43,4.56,10.64,7.35,9,2.7,19,5.83,19,18.33,0,11.41-9.12,18.16-22,18.16C550.73,185.72,542.79,179.81,539.5,171.11Z"/><path class="cls-1" d="M629.48,138.41H614.27v46.13H600.75V138.41h-15.2v-13h43.93Z"/><path class="cls-1" d="M672.57,171.53v13H635.4V125.4h36.75v13H648.91v9.8H670v12.84H648.91v10.48Z"/><path class="cls-1" d="M700.12,165.11h-6.43v19.43H680.18V125.4h23.65a20.23,20.23,0,0,1,20.28,20.28,19.5,19.5,0,0,1-10.9,17.15l12.59,21.71H711.27Zm-6.43-11.83h10.14c3.72,0,6.76-3.29,6.76-7.6s-3-7.61-6.76-7.61H693.69Z"/><path class="cls-1" d="M55.06,243.5H36v57.81H19.06V243.5H0V227.19H55.06Z"/><path class="cls-1" d="M119.65,227.19v74.12H102.71V271.87H79.41v29.44H62.47V227.19H79.41v28.38h23.3V227.19Z"/><path class="cls-1" d="M175.77,289.66H148.24l-3.71,11.65H126l25.2-74.12h21.6L198,301.31H179.47Zm-5.09-15.88L162,246.57l-8.68,27.21Z"/><path class="cls-1" d="M262.59,227.19v74.12h-12.7L221.3,261.07v40.24H204.36V227.19h12.7l28.59,40.23V227.19Z"/><path class="cls-1" d="M348.36,285v16.31H301.77V227.19h46.06V243.5H318.72v12.28h26.46v16.09H318.72V285Z"/><path class="cls-1" d="M351.54,227.19h18.53l16.41,54.53,16.41-54.53h18.53l-24.14,74.12h-21.6Z"/><path class="cls-1" d="M474.37,285v16.31H427.78V227.19h46.06V243.5H444.72v12.28h26.47v16.09H444.72V285Z"/><path class="cls-1" d="M508.89,277h-8.05v24.36H483.9V227.19h29.65A25.35,25.35,0,0,1,539,252.6a24.41,24.41,0,0,1-13.66,21.49l15.77,27.22H522.86Zm-8.05-14.82h12.71c4.65,0,8.47-4.13,8.47-9.53s-3.82-9.53-8.47-9.53H500.84Z"/><path class="cls-1" d="M657,279.6c0,13.13-10.7,21.71-23.93,21.71H602V227.19h29c12.92,0,23.4,8.37,23.4,21.18a18.52,18.52,0,0,1-6.46,14.5A19.14,19.14,0,0,1,657,279.6ZM618.9,243.07V256.2H631a6.57,6.57,0,0,0,0-13.13Zm21.18,35.26a6.7,6.7,0,0,0-7-7.09H618.9v14.18h14.19A6.7,6.7,0,0,0,640.08,278.33Z"/><path class="cls-1" d="M697.26,272.82v28.49H680.32V272.82l-24.88-45.63h19.27l14.08,28.59,14.08-28.59h19.27Z"/><path class="cls-1" d="M26.89,369.76v10.1H0V334H10.49v35.81Z"/><path class="cls-1" d="M60.34,369.76v10.1H31.48V334H60v10.1H42v7.6H58.37v10H42v8.14Z"/><path class="cls-1" d="M97.07,344.05H85.27v35.81H74.77V344.05H63V334h34.1Z"/><path class="cls-1" d="M132.49,344.05h-11.8v35.81h-10.5V344.05H98.39V334h34.1Z"/><path class="cls-1" d="M147.58,334v45.91H137.09V334Z"/><path class="cls-1" d="M191.52,334v45.91h-7.87L166,354.93v24.93h-10.5V334h7.87L181,358.87V334Z"/><path class="cls-1" d="M244.85,358.21c0,14-9.77,22.56-22.63,22.56-14.43,0-24.79-10.62-24.79-23.8A23.81,23.81,0,0,1,221.5,333c8.79,0,16.2,4.33,20.07,10.49l-8.92,5.12c-1.9-3-6-5.38-11.22-5.38-7.73,0-13.51,5.71-13.51,13.77,0,7.81,5.51,13.51,14.43,13.51,6.1,0,10.1-2.69,11.74-7.08H221.83v-9.18h23Z"/><path class="cls-1" d="M266.83,365V334h10.49v30.17c0,3.47,1.64,6.42,7.21,6.42s7.22-3,7.22-6.42V334h10.49V365c0,9.84-7.61,15.74-17.71,15.74S266.83,374.87,266.83,365Z"/><path class="cls-1" d="M307.49,369.43l9.05-5.25c1.64,3.81,4.46,6.36,9.64,6.36,5,0,6.24-2,6.24-3.73,0-2.83-2.63-3.94-9.51-5.84s-13.52-5.18-13.52-14,7.48-14,15.42-14a17.82,17.82,0,0,1,16.79,10.36l-8.86,5.18c-1.57-3.28-3.74-5.31-7.93-5.31-3.28,0-4.92,1.64-4.92,3.48,0,2.09,1.11,3.54,8.26,5.7,7,2.1,14.76,4.53,14.76,14.23,0,8.86-7.08,14.1-17.05,14.1C316.22,380.77,310.05,376.18,307.49,369.43Z"/><path class="cls-1" d="M405.22,356.9c0,13-9.64,23-22.3,23H364.56V334h18.36C395.58,334,405.22,343.92,405.22,356.9Zm-10.1,0c0-7.87-5-12.85-12.2-12.85h-7.87v25.71h7.87C390.14,369.76,395.12,364.77,395.12,356.9Z"/><path class="cls-1" d="M409.16,356.9A23.88,23.88,0,1,1,433,380.77,23.67,23.67,0,0,1,409.16,356.9Zm37.25,0c0-8.2-5.9-13.64-13.38-13.64s-13.38,5.44-13.38,13.64,5.91,13.64,13.38,13.64S446.41,365.1,446.41,356.9Z"/><path class="cls-1" d="M510,344.05H498.23v35.81H487.74V344.05H475.93V334H510Z"/><path class="cls-1" d="M550.05,334v45.91h-10.5V361.62H525.12v18.24H514.63V334h10.49v17.57h14.43V334Z"/><path class="cls-1" d="M586.78,369.76v10.1H557.92V334h28.53v10.1h-18v7.6h16.4v10h-16.4v8.14Z"/><path class="cls-1" d="M607.11,371.86l9.12-5.25c1.44,2.56,2.95,3.93,6.49,3.93,4.59,0,6-2.62,6-5.44V334h10.5V365.1c0,10.1-7.09,15.67-16.53,15.67C615.38,380.77,610.13,377.69,607.11,371.86Z"/><path class="cls-1" d="M644.76,356.9a23.88,23.88,0,1,1,23.88,23.87A23.67,23.67,0,0,1,644.76,356.9Zm37.26,0c0-8.2-5.91-13.64-13.38-13.64s-13.38,5.44-13.38,13.64,5.9,13.64,13.38,13.64S682,365.1,682,356.9Z"/><path class="cls-1" d="M732.52,366.41c0,8.13-6.62,13.45-14.82,13.45H698.42V334h18c8,0,14.49,5.18,14.49,13.11a11.51,11.51,0,0,1-4,9A11.85,11.85,0,0,1,732.52,366.41Zm-23.61-22.63v8.14h7.48a4.07,4.07,0,0,0,0-8.14ZM722,365.62a4.15,4.15,0,0,0-4.33-4.39h-8.79V370h8.79A4.15,4.15,0,0,0,722,365.62Z"/></g></g></svg>