<svg xmlns="http://www.w3.org/2000/svg" viewBox="0 0 63 63"><defs><style>.cls-1{fill:#bd1f38;}</style></defs><g id="Layer_2" data-name="Layer 2"><g id="Layer_1-2" data-name="Layer 1"><path class="cls-1" d="M43.12,63H24.36a1.83,1.83,0,0,1-.4-2.26c.79-2.09,1.52-4.2,2.23-6.31a2.23,2.23,0,0,0-.73-2.6,19.5,19.5,0,0,1-5-7.32c-.59-1.51-1-3.08-1.55-4.71H17c-1.78,0-2-.21-2-2,0-1,.07-2,0-3.07a1.7,1.7,0,0,0-.7-1.26c-.34-.14-1,.17-1.35.47-.91.79-1.73,1.69-2.59,2.55a1.31,1.31,0,0,1-2.07,0L3.44,31.6a1.36,1.36,0,0,1,0-2.19c.92-.92,1.87-1.82,2.75-2.78a1.18,1.18,0,0,0,.25-1,1.42,1.42,0,0,0-1-.71c-1.15-.09-2.33.06-3.49-.07a8,8,0,0,1-2-.73v-8.4a8.57,8.57,0,0,1,1.89-.63C3,14.94,4,15.08,5.11,15a1.73,1.73,0,0,0,1.28-.66c.16-.32-.11-1-.4-1.34A32,32,0,0,0,3.54,10.5a1.38,1.38,0,0,1-.07-2.28L8.22,3.47a1.38,1.38,0,0,1,2.28.07A32,32,0,0,0,13,6c.34.29,1,.56,1.34.4A1.73,1.73,0,0,0,15,5.11c.09-1.07-.05-2.15.06-3.22A8.57,8.57,0,0,1,15.68,0h8.4a8,8,0,0,1,.73,2c.13,1.16,0,2.34.07,3.49a1.46,1.46,0,0,0,.71,1,1.22,1.22,0,0,0,1-.26c1-.88,1.86-1.83,2.78-2.76a1.37,1.37,0,0,1,2.19,0l4.75,4.74a1.4,1.4,0,0,1,0,2.28c-.94.91-1.89,1.81-2.75,2.79a1.31,1.31,0,0,0-.14,1.18c.15.27.7.4,1.08.45a2.61,2.61,0,0,0,.95-.22c10-2.69,20.1,3.26,23.75,9.65,1.38,2.39,2.34,5,1.62,7.73a7.32,7.32,0,0,0,.74,6A29.08,29.08,0,0,1,63,41.16v1.12a15.24,15.24,0,0,1-2.19,2.07,2.45,2.45,0,0,0-1.22,2.41c.06,1.63.1,3.26.07,4.88A5.5,5.5,0,0,1,54,57.41a57.48,57.48,0,0,1-6.82-.19c-1.45-.13-2,.38-2.23,1.72C44.69,60.43,44.41,62,43.12,63ZM39.8,16.49c0,2.34,0,4.48,0,6.61,0,1.28-.55,1.78-1.77,1.75s-2.33-.06-3.49,0a1.48,1.48,0,0,0-1.14.67,1.53,1.53,0,0,0,.39,1.25,33.84,33.84,0,0,0,2.45,2.49,1.43,1.43,0,0,1,.07,2.38Q34,34,31.67,36.32a1.43,1.43,0,0,1-2.38-.07c-.83-.88-1.68-1.75-2.59-2.55a1.38,1.38,0,0,0-1.16-.3,1.38,1.38,0,0,0-.66,1c-.09.93,0,1.87,0,2.8,0,2.47-.05,2.52-2.45,2.6a5.8,5.8,0,0,0-.82.12,17.7,17.7,0,0,0,5.33,9.89c2,1.81,2.2,3.7,1.41,6-.52,1.52-1.05,3-1.63,4.73H38.57c1.11,0,2.48.33,3.27-.2s.7-1.91,1-2.91c.64-2,1.48-2.63,3.56-2.58s4.19.17,6.29.22c3.41.09,4.66-1.15,4.6-4.58,0-1-.07-2.05-.17-3.07-.23-2.23.27-4.08,2.46-5.14a5.84,5.84,0,0,0,.92-.76,46.1,46.1,0,0,1-2.14-5,7.4,7.4,0,0,1-.12-3.5,9.94,9.94,0,0,0-.18-5.49,14.53,14.53,0,0,0-5.27-6.73A19.82,19.82,0,0,0,39.8,16.49ZM9.47,34.09c.46-.53.86-1,1.31-1.5,2.37-2.38,2.37-2.38,5.42-1.14,0,0,.1,0,.12.06.36.52,1,1,1,1.58a39.2,39.2,0,0,1,0,4.21h5a12.18,12.18,0,0,0,0-1.92c-.43-2.5.41-4.05,3-4.67.92-.22,1.59-.3,2.26.43.9,1,1.84,1.94,2.67,2.81L34,30.2A17.52,17.52,0,0,1,32.57,29c-2.35-2.33-2.32-2.33-1.12-5.42a1.66,1.66,0,0,1,1.78-1.23c1.34,0,2.69,0,4.07,0v-5a12.82,12.82,0,0,0-2.07,0c-2.38.41-3.84-.39-4.49-2.85a2.13,2.13,0,0,1,.52-2.48c1-.86,1.87-1.76,2.71-2.57L30.32,5.9a12,12,0,0,0-1.26,1.37C27.6,9.36,25.88,9.8,23.63,8.42c-.81-.5-1.28-1-1.24-1.93.05-1.29,0-2.59,0-3.92h-5a12.71,12.71,0,0,0,0,2.06C17.82,7,17,8.45,14.55,9.1a2.08,2.08,0,0,1-2.46-.52c-.86-1-1.77-1.87-2.58-2.73L5.69,9.52c.55.44,1,.88,1.57,1.25C9.39,12.21,9.77,14,8.42,16.2,8,17,7.58,17.45,6.63,17.41c-1.33-.05-2.68,0-4.06,0v5H4.48c3.35,0,3.33,0,4.65,3a1.71,1.71,0,0,1-.45,2.23c-1,.89-1.94,1.83-2.82,2.68Z"/><path class="cls-1" d="M43.5,19a27.27,27.27,0,0,1,5,2.07,40.18,40.18,0,0,1,5.37,4.57A1.84,1.84,0,0,1,54,27.43c-.57.71-1.34.38-1.88-.29a15.67,15.67,0,0,0-8.79-5.55,1.77,1.77,0,0,1-1-1.36C42.34,19.87,43,19.47,43.5,19Z"/><path class="cls-1" d="M56.78,29.59c-.77.55-1.28,1.18-1.63,1.11A1.78,1.78,0,0,1,54,29.51c-.06-.33.68-1.11,1.06-1.11S56,29,56.78,29.59Z"/><path class="cls-1" d="M24.65,19.9a4.75,4.75,0,0,1-9.49,0,4.91,4.91,0,0,1,4.74-4.77A4.83,4.83,0,0,1,24.65,19.9Zm-2.47,0a2.27,2.27,0,1,0-4.54.07,2.27,2.27,0,0,0,4.54-.07Z"/><path class="cls-1" d="M11.47,19.92a8.45,8.45,0,0,1,4.17-7.24c.74-.45,1.5-.71,2.05.21s0,1.35-.71,1.81c-3.66,2.52-4.1,6.3-1.11,9.62.56.63.92,1.27.24,1.94s-1.35.38-2-.2A8.74,8.74,0,0,1,11.47,19.92Z"/><path class="cls-1" d="M21.61,12.76c-.82.54-1.33,1.13-1.68,1a1.77,1.77,0,0,1-1.12-1.17c0-.31.69-1,1.07-1.05S20.8,12.17,21.61,12.76Z"/></g></g></svg>