<svg xmlns="http://www.w3.org/2000/svg" viewBox="0 0 79.05 74.77"><defs><style>.cls-1{fill:#bd1f38;}</style></defs><g id="Layer_2" data-name="Layer 2"><g id="Layer_1-2" data-name="Layer 1"><path class="cls-1" d="M73.52,74.77q-8.2-9.09-16.39-18.16c-1.85-2.06-3.73-4.08-5.59-6.13-2.1-2.32-2.13-3.2-.16-5.7l-1.25-1.41a12.72,12.72,0,0,1-1.82.91c-2.12.61-3.67,1.55-3.16,4.18a2.37,2.37,0,0,1-.5,1.46c-1.32,2.14-3.53,2.14-7,1.8-1.87-.19-2.85-1.75-3.07-4-.07-.69-.08-1.76-.48-2a20.07,20.07,0,0,0-4.38-1.63c-.31-.08-.86.71-1.27,1.12-2,2-4,2.1-6.06.23-.64-.57-1.26-1.17-1.84-1.8-1.61-1.76-1.79-3.8-.09-5.46,1.35-1.32,1.49-2.43.46-3.88a2.83,2.83,0,0,1-.45-1.09c-.25-1.27-1-1.59-2.25-1.55-3.09.08-4.44-1.24-4.64-4.32a19.65,19.65,0,0,1,0-2.17,3.91,3.91,0,0,1,4-4.15c.65,0,1.3,0,2,0a14.82,14.82,0,0,1,.58-1.59c1-2,1.74-4-.78-5.47-.15-.09-.23-.32-.32-.5-1-2,.06-4.4,3.1-6.79a3.83,3.83,0,0,1,5.06.06c.67.52,1.46,1.56,2,1.44A18.08,18.08,0,0,0,33.48,6.3c.28-.15.31-.92.32-1.41C33.84,1.28,35,.08,38.68,0c.53,0,1.06,0,1.58,0,2.55,0,4.07,1.32,4.06,3.81,0,1.77.62,2.61,2.29,3a16.49,16.49,0,0,1,2.56,1.06,1.44,1.44,0,0,0,.33-.16C53.28,4,56,4.35,59,8.82a3.67,3.67,0,0,1-.6,5C57.25,15,57,15.89,58,17.2c.37.52.4,1.3.81,1.78a2.85,2.85,0,0,0,1.66,1.13c4.15.21,5,1.22,5,6.17,0,3.18-1.41,4.49-5,4.61l-1,.06c-.44,1.13-.93,2.2-1.27,3.32-.19.61-.42,1.5-.13,1.91a2.2,2.2,0,0,0,2.57,1.16,4,4,0,0,1,3.24,1.15c4.64,4.95,9.14,10,13.6,15.14.41.47.27,1.43.39,2.17-.72-.19-1.7-.14-2.13-.6-4.18-4.47-8.26-9-12.38-13.57-.61-.68-1.24-1.35-2-2.2l-9.06,8.24,4.07,4.48Q65.4,62.07,74.47,72c.86.93,1.43,1.76.23,2.81ZM57.74,39.31c-.81-.73-1.47-1.36-2.17-2a1.83,1.83,0,0,1-.48-2.58A30.75,30.75,0,0,0,56.94,30c.35-1.13.92-1.67,2.1-1.59.66,0,1.32-.07,2-.07,1.52,0,2.12-.78,2-2.25A7.58,7.58,0,0,0,62.88,24c-.21-.55-1-1.38-1.33-1.31-3.67.83-5-1.25-5.74-4.3a2.26,2.26,0,0,0-.43-.88c-1.49-1.78-1.18-3.29.63-4.63a2.7,2.7,0,0,0,.9-1,2,2,0,0,0,.16-1.44c-1.28-2.86-3.54-3.26-5.67-1.05-.13.14-.28.28-.4.43-.77,1-1.58,1.06-2.73.45a21.26,21.26,0,0,0-4.56-1.78A1.93,1.93,0,0,1,42,6.22c0-.6,0-1.19,0-1.78.06-1.42-.56-2.1-2-2a11.92,11.92,0,0,1-1.58,0c-1.48-.07-2.24.54-2.11,2.1.05.59,0,1.19,0,1.78.16,1.34-.4,2-1.7,2.42a26.77,26.77,0,0,0-4.5,2c-1,.55-1.81.62-2.61-.29-.43-.5-1-.9-1.42-1.37-1-1-1.9-1.08-2.85,0-.43.5-.91.94-1.37,1.42A1.64,1.64,0,0,0,22,13.2c.5.42.92.94,1.43,1.35,1,.8,1,1.6.43,2.74a20.15,20.15,0,0,0-1.72,4.38c-.34,1.32-.95,1.93-2.32,1.82-.58,0-1.18,0-1.77,0-1.4,0-2.1.59-1.95,2.05a15,15,0,0,1,.08,1.77c0,1.45.75,2,2.12,1.92.6,0,1.19,0,1.78,0,1.26-.13,1.86.37,2.24,1.62a20.93,20.93,0,0,0,2,4.49,1.88,1.88,0,0,1-.38,2.75,8.49,8.49,0,0,0-1.6,1.74,2,2,0,0,0-.27,1.59c1.2,2.88,3.5,3.29,5.61,1.09a4.17,4.17,0,0,0,.41-.43c.77-1,1.59-1.08,2.73-.46a16.31,16.31,0,0,0,4,1.6c1.72.39,2.52,1.2,2.29,3a2.6,2.6,0,0,0,.05,1.55,4,4,0,0,0,1.7,1.64,4.25,4.25,0,0,0,2.52,0c.55-.16,1.41-1,1.33-1.31-.9-3.84,1.41-5.1,4.47-5.84a.59.59,0,0,0,.17-.1c2.23-1.91,4.1-1.37,5.76.81.07.08.24.09.46.16Z"/><path class="cls-1" d="M0,8C1.3,6,3.1,5.48,5.39,5.55c4.6.14,9.21,0,14,0-.95,1.61-1.91,2.57-3.86,2.48C12,7.91,8.46,8.1,4.91,8c-1.93-.06-2.55.7-2.5,2.56.1,3.6,0,7.21,0,11a9.8,9.8,0,0,1,2.26.15,5.55,5.55,0,0,1,1.43,1c-.45.46-.84,1.11-1.39,1.32a6.91,6.91,0,0,1-2.2.05v2.44c1.79,0,3.62-.11,5.42.06.66.06,1.26.78,1.88,1.2-.63.4-1.24,1.08-1.91,1.14-1.75.17-3.52.06-5.38.06v2.19C3.67,32.16,6,30.55,6,32.9c0,.56-2,1.08-3.37,1.79v14c.66,0,1.35.12,2,.12H30c2.18,0,2.18,0,2.65,2.5H2.76c-.4,2.17-.13,2.49,2.06,2.49,9.61,0,19.22,0,28.84,0,2.68,0,5.35.42,8,.43a57.45,57.45,0,0,0,7.05-.48c1.89-.23,2.88.74,3.84,2.41H44.64v4.38a39.16,39.16,0,0,1,4.73.06c.65.07,1.23.8,1.85,1.23-.59.38-1.17,1.1-1.76,1.1q-10,.12-19.95,0c-.56,0-1.12-.76-1.69-1.17.58-.4,1.12-1.1,1.73-1.17,1.55-.16,3.13-.05,4.87-.05V56.21H32.23c-9,0-18-.06-27.07,0-2.24,0-3.95-.55-5.16-2.45ZM41.85,56.37H37.21v4.08h4.64Z"/><path class="cls-1" d="M79.05,50.65a6.64,6.64,0,0,1-2.49-6.21c.22-3.4,0-6.82,0-10.08-1.28-.86-3.55.61-3.54-1.71,0-.53,2-1.06,3.46-1.78L76.62,29c-1.94,0-3.76.11-5.56-.06-.65-.06-1.24-.77-1.85-1.19.64-.41,1.25-1.09,1.93-1.16,1.74-.16,3.51-.05,5.37-.05V24.23a7.37,7.37,0,0,1-2.06-.14,6.17,6.17,0,0,1-1.53-1.17,5.83,5.83,0,0,1,1.48-1.19,7.22,7.22,0,0,1,2.18-.05c0-4.24.07-8.3-.09-12.34,0-.47-1.29-1.23-2-1.25C71,8,67.38,7.92,63.83,8.07a3.91,3.91,0,0,1-4.18-2.48c4.75,0,9.38.09,14,0C75.94,5.48,77.77,6,79.05,8Z"/><path class="cls-1" d="M56.81,46.78a12.49,12.49,0,0,1,1.44,1.13c3.82,4.17,7.65,8.34,11.38,12.59.42.47.26,1.45.36,2.19-.73-.21-1.7-.19-2.14-.67C64,57.9,60.18,53.7,56.41,49.48a3,3,0,0,1-.62-1.73C55.77,47.49,56.37,47.18,56.81,46.78Z"/><path class="cls-1" d="M71.16,65.43c.82-.51,1.3-1.05,1.79-1.05s1.09.77,1,1.05c-.11.49-.68,1.17-1.1,1.2S71.94,66,71.16,65.43Z"/><path class="cls-1" d="M39.47,13c2.66,1,5.18,1.85,7.59,2.94.48.21.57,1.3.84,2-.69,0-1.54.3-2,0a11.61,11.61,0,0,0-12.69,0c-.49.29-1.35,0-2-.07.24-.64.3-1.67.75-1.87C34.29,14.93,36.79,14,39.47,13Z"/></g></g></svg>