<svg xmlns="http://www.w3.org/2000/svg" viewBox="0 0 72.85 69.3"><defs><style>.cls-1{fill:#fff;}</style></defs><g id="Layer_2" data-name="Layer 2"><g id="Layer_1-2" data-name="Layer 1"><path class="cls-1" d="M26.26,46.06c.2-11.9,8.16-21.48,19.67-23.21a23.12,23.12,0,0,1,26.85,21c1,14-9,25-23.08,25.44a21.34,21.34,0,0,1-11-2.67c-.81-.45-2-.85-1.36-2.12s1.67-.54,2.54-.11c10.2,5.07,22.14,1.68,27.66-8,3.94-7,4-14.14-.13-21S57.13,25,49.09,25.16A20.76,20.76,0,0,0,31.57,56.41c.09.16.28.32.27.47,0,.72-.08,1.42-.13,2.13-.67-.26-1.62-.32-1.94-.81a21.25,21.25,0,0,1-3.36-9.44C26.3,47.79,26.3,46.8,26.26,46.06Z"/><path class="cls-1" d="M42.64,46.64A21.54,21.54,0,0,1,22.28,67.92a21.29,21.29,0,1,1,6.31-41.28c.93.34,2.17.66,1.56,1.91-.22.44-1.74.61-2.48.36-9.41-3.11-19.31.88-23.36,9.74-3.26,7.13-2.4,14,2.62,20s11.63,8.15,19.2,6.05S38.21,57.51,39.7,49.79a18,18,0,0,0-2.89-13.67c-.16-.26-.48-.51-.49-.77a14.25,14.25,0,0,1,.17-1.94c.63.18,1.63.17,1.82.56a86,86,0,0,1,3.74,8.32A19.41,19.41,0,0,1,42.64,46.64Z"/><path class="cls-1" d="M45.18,8.61a12,12,0,0,1-4.6,9.78,20.55,20.55,0,0,1-2.48,1.89c-5.84,3.51-4.49,3.61-10.26-.22-4.34-2.88-7-6.82-6.61-12.3a11.88,11.88,0,0,1,.44-2.52C22.92,1,26.2-.74,30.3.88A5.47,5.47,0,0,0,35.35.73c4.45-2.22,9.22.86,9.74,6C45.15,7.38,45.15,8,45.18,8.61Zm-2.42,0a23.66,23.66,0,0,0-.51-2.69c-1-3.22-4-4.44-6.65-2.41-1.88,1.41-3.32,1.38-5.07.18a3.73,3.73,0,0,0-.84-.36C26.77,2.18,24.91,3,24.11,6a9.55,9.55,0,0,0,3.58,10.65c5.86,4.54,4.7,4.4,10.37.44A10.06,10.06,0,0,0,42.76,8.57Z"/></g></g></svg>