<svg xmlns="http://www.w3.org/2000/svg" xmlns:xlink="http://www.w3.org/1999/xlink" viewBox="0 0 118.31 95"><defs><style>.cls-1{fill:url(#Orange);}.cls-2{fill:url(#Orange-2);}.cls-3{fill:url(#Orange-3);}.cls-4{fill:url(#Orange-4);}.cls-5{fill:url(#Orange-5);}.cls-6{fill:url(#Orange-6);}.cls-7{fill:url(#Orange-7);}.cls-8{fill:url(#Orange-8);}.cls-9{fill:url(#Orange-9);}.cls-10{fill:url(#Orange-10);}.cls-11{fill:url(#Orange-11);}</style><linearGradient id="Orange" x1="14.25" y1="30.84" x2="89.47" y2="30.84" gradientUnits="userSpaceOnUse"><stop offset="0" stop-color="#f69453"/><stop offset="0.5" stop-color="#f37521"/><stop offset="1" stop-color="#d4622a"/></linearGradient><linearGradient id="Orange-2" x1="36.31" y1="69.42" x2="90.5" y2="69.42" xlink:href="#Orange"/><linearGradient id="Orange-3" x1="61.6" y1="0.43" x2="90.31" y2="0.43" xlink:href="#Orange"/><linearGradient id="Orange-4" x1="91.52" y1="79.87" x2="118.31" y2="79.87" xlink:href="#Orange"/><linearGradient id="Orange-5" x1="104.95" y1="62.82" x2="111.44" y2="62.82" xlink:href="#Orange"/><linearGradient id="Orange-6" x1="3.34" y1="86.35" x2="18.98" y2="86.35" xlink:href="#Orange"/><linearGradient id="Orange-7" x1="3.25" y1="72.99" x2="19.05" y2="72.99" xlink:href="#Orange"/><linearGradient id="Orange-8" x1="0" y1="81.12" x2="2.77" y2="81.12" xlink:href="#Orange"/><linearGradient id="Orange-9" x1="19.54" y1="81.12" x2="22.3" y2="81.12" xlink:href="#Orange"/><linearGradient id="Orange-10" x1="5.67" y1="67.7" x2="7.96" y2="67.7" xlink:href="#Orange"/><linearGradient id="Orange-11" x1="14.19" y1="67.59" x2="16.64" y2="67.59" xlink:href="#Orange"/></defs><g id="Layer_2" data-name="Layer 2"><g id="Layer_1-2" data-name="Layer 1"><path class="cls-1" d="M89.47.86q-14,14-27.95,28.09c-10.63,10.66-21.3,21.27-31.89,32-1.07,1.08-1.56,1-2.55,0Q21.2,54.82,15.14,48.94c-1.13-1.09-1.23-1.67,0-2.85Q37.42,23.94,59.61,1.68c.54-.54,1-1.12,1.57-1.68h.42a4.16,4.16,0,0,0,2.26.21c7.91,0,15.82,0,23.73,0C88.21.26,89.18-.33,89.47.86Z"/><path class="cls-2" d="M61.18,95Q49.6,83.35,38,71.68c-2.27-2.28-2.28-2.28,0-4.58Q49,56.15,60,45.18a3.92,3.92,0,0,1,3.09-1.34c8.37.07,16.74,0,25.1,0H90.5L73,61.26c-2.29,2.28-4.53,4.62-6.89,6.83-1,1-1.13,1.46,0,2.55,7.9,7.8,15.71,15.7,23.54,23.57a8.27,8.27,0,0,1,.65.79Z"/><path class="cls-3" d="M89.47.86C88.87.14,88,.44,87.31.44c-7.85,0-15.69,0-23.54,0C63,.41,62.22.71,61.6,0H90.31A1.4,1.4,0,0,1,89.47.86Z"/><path class="cls-4" d="M117.43,70.55a5.42,5.42,0,0,0-3.06,3.91,9.1,9.1,0,0,0,.43,5.89A5.31,5.31,0,0,0,118,83.52c.18.06.41.49.35.62-1.27,2.67-2.38,5.46-4.79,7.39a3.36,3.36,0,0,1-2.58,1.07,4,4,0,0,1-1-.26c-2.57-1.09-5.23-1.5-7.81-.26a3.59,3.59,0,0,1-4.39-.6A16.89,16.89,0,0,1,93,84.26c-1.09-3-1.86-6-1.27-9.17.68-3.59,2.48-6.45,6.18-7.65a4.64,4.64,0,0,1,3.84.23,6.69,6.69,0,0,0,6.64.11A7,7,0,0,1,117.43,70.55Z"/><path class="cls-5" d="M111.43,59.15c.22,4.1-2.24,7.93-6.41,7.3C104.38,63.36,108.42,58.76,111.43,59.15Z"/><path class="cls-6" d="M19,78.54V83c0,1.85,0,3.7,0,5.56,0,.66-.22.93-.9.87-.5,0-1,0-1.63,0,0,1,0,1.87,0,2.77,0,1.22-.62,1.94-1.66,2s-1.71-.73-1.72-2V89.49H9.64c0,1,0,1.88,0,2.81A1.63,1.63,0,0,1,8,94.15c-1,0-1.64-.66-1.67-1.83,0-.93,0-1.87,0-2.89-.86,0-1.57,0-2.27,0-.45,0-.71-.13-.71-.62V78.54Z"/><path class="cls-7" d="M11.1,77.64c-2.31,0-4.61,0-6.91,0-.61,0-.87-.14-.91-.78A7.38,7.38,0,0,1,7,69.6a7.49,7.49,0,0,1,8.38,0A7.39,7.39,0,0,1,19,76.89c0,.57-.25.77-.84.76C15.82,77.62,13.46,77.64,11.1,77.64ZM7.67,72c-.37.55-.71.84-.76,1.18a.66.66,0,0,0,.82.79,1.19,1.19,0,0,0,.74-.81C8.49,72.89,8.07,72.58,7.67,72Zm7,2.36c.37-.54.71-.83.76-1.16a.67.67,0,0,0-.82-.8,1.17,1.17,0,0,0-.74.82C13.81,73.53,14.23,73.85,14.63,74.39Z"/><path class="cls-8" d="M0,81.05c0-.91,0-1.83,0-2.74A1.3,1.3,0,0,1,1.29,76.9a1.29,1.29,0,0,1,1.45,1.33c0,1.91,0,3.82,0,5.73a1.32,1.32,0,0,1-1.42,1.38A1.33,1.33,0,0,1,0,83.87C0,82.93,0,82,0,81.05Z"/><path class="cls-9" d="M22.3,81.13c0,.91,0,1.82,0,2.73a1.37,1.37,0,1,1-2.73,0c0-1.85,0-3.71,0-5.56a1.3,1.3,0,0,1,1.36-1.42,1.32,1.32,0,0,1,1.37,1.49C22.31,79.31,22.3,80.22,22.3,81.13Z"/><path class="cls-10" d="M8,68s-.07.11-.11.13l-1.27.6a5.72,5.72,0,0,1-.83-1.08,1.06,1.06,0,0,1,.07-1,.89.89,0,0,1,.87,0A11.34,11.34,0,0,1,8,68Z"/><path class="cls-11" d="M14.19,68a10.81,10.81,0,0,1,1.37-1.24,1,1,0,0,1,.94,0,1,1,0,0,1,0,.94C15.88,68.75,15.65,68.76,14.19,68Z"/></g></g></svg>