<svg xmlns="http://www.w3.org/2000/svg" xmlns:xlink="http://www.w3.org/1999/xlink" viewBox="0 0 101.78 77.76"><defs><style>.cls-1{fill:url(#Orange);}.cls-2{fill:url(#Orange-2);}.cls-3{fill:url(#Orange-3);}.cls-4{fill:url(#Orange-4);}</style><linearGradient id="Orange" x1="12.79" y1="32.34" x2="101.78" y2="32.34" gradientUnits="userSpaceOnUse"><stop offset="0" stop-color="#f69453"/><stop offset="0.5" stop-color="#f37521"/><stop offset="1" stop-color="#d4622a"/></linearGradient><linearGradient id="Orange-2" x1="0" y1="51.17" x2="34.7" y2="51.17" xlink:href="#Orange"/><linearGradient id="Orange-3" x1="39.89" y1="73.4" x2="78.74" y2="73.4" xlink:href="#Orange"/><linearGradient id="Orange-4" x1="12.52" y1="28.4" x2="21.83" y2="28.4" xlink:href="#Orange"/></defs><g id="Layer_2" data-name="Layer 2"><g id="Layer_1-2" data-name="Layer 1"><path class="cls-1" d="M57.57,0H95.29c5.21,0,6.48,1.27,6.48,6.45q0,25.89,0,51.79c0,5.14-1.37,6.44-6.51,6.44q-25.76,0-51.52,0c-3.64,0-3.88-.18-3.83-3.78.1-7.81-.85-6.74,6.72-6.77,16-.06,32.1,0,48.14,0,3.74,0,3.79,0,3.8-3.6,0-14.64,0-29.27,0-43.91,0-2.51-.73-3.48-3.37-3.47q-37.86.09-75.73,0c-2.66,0-3.71.89-3.57,3.6a100.67,100.67,0,0,1,0,10.13c0,.92-.84,2.48-1.45,2.57-2.06.28-1.66-1.51-1.66-2.75q0-5.49,0-11c0-4.13,1.45-5.6,5.6-5.61C31.48,0,44.52,0,57.57,0Zm2.53,58.9,0-1.11c-1-.58-2-1.66-2.9-1.6s-2.23,1.56-2.1,2.13a3.54,3.54,0,0,0,2.29,2.36C58.17,60.81,59.18,59.56,60.1,58.91Z"/><path class="cls-2" d="M34.66,51.16c0,7.6-.06,15.2,0,22.8,0,2.69-1.21,3.8-3.7,3.8q-13.79,0-27.57-.07C1.11,77.68,0,76.46,0,74.16q0-22.8,0-45.61c0-2.74,1.25-4,3.91-4q13.65,0,27.3.08c2.52,0,3.49,1.26,3.47,3.7C34.63,36,34.66,43.56,34.66,51.16ZM19.31,72c3.07,0,6.36-.2,9.62,0,2.93.23,3.74-.92,3.71-3.68q-.14-17.31,0-34.63c0-2.58-.86-3.47-3.43-3.43-8,.12-15.95.15-23.92,0-2.57,0-3.21,1.05-3.2,3.35.07,11.63.13,23.27,0,34.91,0,2.82,1.06,3.57,3.65,3.45,3.34-.16,6.71,0,9.56,0a18.11,18.11,0,0,0,1,3.61,2.27,2.27,0,0,0,1.92-.06A17.12,17.12,0,0,0,19.31,72ZM12.52,27.68c2.9,2,7.31,1.88,9.31,0Z"/><path class="cls-3" d="M66.16,69.32c-.66,3.72,1.17,4.32,4,4.06a60.82,60.82,0,0,1,6.19,0c1.26,0,2.43,0,2.4,1.87,0,1.68-.59,2.28-2.32,2.27q-17.16-.08-34.33,0c-1.51,0-2.24-.38-2.2-2s.58-2.23,2.17-2.12c1.41.1,2.82,0,4.22,0,1.88,0,3.69.13,3.44-2.67,0-.42.87-1.3,1.36-1.31C56,69.28,61,69.32,66.16,69.32Z"/><path class="cls-4" d="M12.52,27.68h9.31C19.83,29.56,15.42,29.64,12.52,27.68Z"/></g></g></svg>