<svg xmlns="http://www.w3.org/2000/svg" width="180.02" height="51.116" viewBox="0 0 180.02 51.116">
  <g id="Group_1" data-name="Group 1" transform="translate(-1212 702.815)">
    <path id="lara" d="M49.626,11.564a.809.809,0,0,1,.028.209V22.745a.8.8,0,0,1-.4.694l-9.209,5.3V39.25a.8.8,0,0,1-.4.694L20.42,51.01a.859.859,0,0,1-.14.058c-.018.006-.035.017-.054.022a.805.805,0,0,1-.41,0c-.022-.006-.042-.018-.063-.026a.832.832,0,0,1-.132-.054L.4,39.944A.8.8,0,0,1,0,39.25V6.334a.818.818,0,0,1,.028-.21c.006-.023.02-.044.028-.067a.788.788,0,0,1,.051-.124.748.748,0,0,1,.055-.071.815.815,0,0,1,.071-.093.781.781,0,0,1,.079-.06A.652.652,0,0,1,.4,5.64h0L10.011.107a.8.8,0,0,1,.8,0l9.61,5.533h0a.98.98,0,0,1,.088.068.946.946,0,0,1,.078.06.936.936,0,0,1,.072.094.738.738,0,0,1,.054.071.835.835,0,0,1,.052.124c.008.023.022.044.028.068a.809.809,0,0,1,.028.209V26.893l8.008-4.611V11.772a.808.808,0,0,1,.028-.208c.007-.024.02-.045.028-.068a.9.9,0,0,1,.052-.124c.015-.026.037-.047.054-.071a.823.823,0,0,1,.072-.093.768.768,0,0,1,.078-.06.807.807,0,0,1,.088-.069h0l9.611-5.533a.8.8,0,0,1,.8,0l9.61,5.533a.883.883,0,0,1,.09.068c.025.02.054.038.077.06a.935.935,0,0,1,.072.094.6.6,0,0,1,.054.071.793.793,0,0,1,.052.124.572.572,0,0,1,.028.068ZM48.052,22.282V13.158l-3.363,1.936-4.646,2.675v9.124l8.01-4.611Zm-9.61,16.505v-9.13l-4.57,2.61-13.05,7.448v9.216l17.62-10.144ZM1.6,7.719V38.787L19.22,48.93V39.716l-9.2-5.209,0,0,0,0a37.426,37.426,0,0,0-.162-.124l0,0a.762.762,0,0,1-.066-.084.855.855,0,0,1-.06-.078v0a.638.638,0,0,1-.042-.1.592.592,0,0,1-.038-.09h0a.766.766,0,0,1-.016-.117.694.694,0,0,1-.012-.09V12.33L4.965,9.654,1.6,7.72Zm8.81-5.994L2.4,6.334l8,4.609,8.006-4.61L10.41,1.725Zm4.164,28.764,4.645-2.674V7.719L15.858,9.655,11.212,12.33v20.1l3.364-1.937ZM39.243,7.164l-8.006,4.609,8.006,4.609,8.005-4.61L39.243,7.164Zm-.8,10.6L33.8,15.094l-3.363-1.936v9.124l4.645,2.674,3.364,1.937V17.769ZM20.02,38.33l11.743-6.7,5.87-3.35-8-4.606-9.211,5.3-8.4,4.833L20.02,38.33Z" transform="translate(1212 -702.815)" fill="#ff2d20" fill-rule="evenodd"/>
    <path id="logotype.min" d="M4.773.917V23.963h8.338v3.976H.333V.917h4.44Zm24.01,11.465V9.95h4.208V27.94H28.784V25.507a5.8,5.8,0,0,1-2.413,2.123,7.04,7.04,0,0,1-3.146.772,9.134,9.134,0,0,1-3.745-.752,8.758,8.758,0,0,1-2.915-2.066,9.6,9.6,0,0,1-1.89-3.01,10.024,10.024,0,0,1,0-7.24,9.56,9.56,0,0,1,1.891-3.03,8.766,8.766,0,0,1,2.915-2.065,9.134,9.134,0,0,1,3.745-.752,7.04,7.04,0,0,1,3.146.772,5.815,5.815,0,0,1,2.413,2.123ZM28.4,21.145a6.447,6.447,0,0,0,0-4.4,5.58,5.58,0,0,0-1.08-1.815,5.233,5.233,0,0,0-1.68-1.236,5.067,5.067,0,0,0-2.18-.463,4.944,4.944,0,0,0-2.163.463,5.223,5.223,0,0,0-2.72,3.05,6.769,6.769,0,0,0,0,4.4A5.233,5.233,0,0,0,21.3,24.195a4.921,4.921,0,0,0,2.161.463,5.054,5.054,0,0,0,2.181-.463,5.222,5.222,0,0,0,1.68-1.236,5.575,5.575,0,0,0,1.08-1.814Zm7.914,6.794V9.95H47.738v4.141h-7.22v13.85H36.311ZM62.986,12.382V9.95h4.208V27.94H62.986V25.507a5.8,5.8,0,0,1-2.413,2.123,7.037,7.037,0,0,1-3.146.772,9.133,9.133,0,0,1-3.744-.752,8.758,8.758,0,0,1-2.915-2.066,9.6,9.6,0,0,1-1.891-3.01,10.031,10.031,0,0,1,0-7.24,9.56,9.56,0,0,1,1.89-3.03,8.766,8.766,0,0,1,2.916-2.065,9.133,9.133,0,0,1,3.744-.752,7.04,7.04,0,0,1,3.146.772,5.8,5.8,0,0,1,2.413,2.123ZM62.6,21.145a6.462,6.462,0,0,0,0-4.4,5.58,5.58,0,0,0-1.08-1.815,5.233,5.233,0,0,0-1.68-1.236,5.072,5.072,0,0,0-2.181-.463,4.943,4.943,0,0,0-2.162.463,5.229,5.229,0,0,0-2.721,3.05,6.777,6.777,0,0,0,0,4.4A5.227,5.227,0,0,0,55.5,24.195a4.929,4.929,0,0,0,2.162.463,5.057,5.057,0,0,0,2.181-.463,5.222,5.222,0,0,0,1.68-1.236,5.575,5.575,0,0,0,1.08-1.814ZM84.063,9.95h4.262L81.42,27.94H76.13L69.224,9.95h4.262l5.289,13.776ZM97.5,9.487c5.729,0,9.636,5.078,8.9,11.021H92.446a5.054,5.054,0,0,0,5.288,4.552c3.2,0,5.345-2.815,5.346-2.817l2.843,2.2c-2.542,2.713-4.623,3.96-7.882,3.96-5.823,0-9.77-3.684-9.77-9.458A9.312,9.312,0,0,1,97.5,9.487Zm-5.046,7.894h10.084a4.972,4.972,0,0,0-5.072-4.552A4.9,4.9,0,0,0,92.457,17.381Zm16.688,10.558V.917h4.208V27.939Z" transform="translate(1278.667 -691.917)" fill="#ff2d20" fill-rule="evenodd"/>
  </g>
</svg>
