<svg xmlns="http://www.w3.org/2000/svg" xmlns:xlink="http://www.w3.org/1999/xlink" viewBox="0 0 75.69 90.36"><defs><style>.cls-1{fill:url(#Orange);}.cls-2{fill:url(#Orange-2);}.cls-3{fill:url(#Orange-3);}</style><linearGradient id="Orange" y1="45.18" x2="75.69" y2="45.18" gradientUnits="userSpaceOnUse"><stop offset="0" stop-color="#f69453"/><stop offset="0.5" stop-color="#f37521"/><stop offset="1" stop-color="#d4622a"/></linearGradient><linearGradient id="Orange-2" x1="18.08" y1="43.7" x2="57.05" y2="43.7" xlink:href="#Orange"/><linearGradient id="Orange-3" x1="30.93" y1="54.95" x2="44.55" y2="54.95" xlink:href="#Orange"/></defs><g id="Layer_2" data-name="Layer 2"><g id="Layer_1-2" data-name="Layer 1"><path class="cls-1" d="M75.69,27.46c-.68,7.37-.61,14.91-2.19,22.08-3,13.79-11.3,24.5-22.43,32.94A121.58,121.58,0,0,1,39.13,90a3.58,3.58,0,0,1-2.92.11C23,83.4,12.39,74,5.59,60.61A49.67,49.67,0,0,1,.06,38.37C0,30.51.07,22.65,0,14.8a2.63,2.63,0,0,1,2.12-2.92C13.4,8,24.64,4.09,35.92.26a5.49,5.49,0,0,1,3.26,0C50.39,4,61.56,8,72.78,11.79c1.66.57,2.41,1.33,2.35,3.19-.13,4.14,0,8.28,0,12.43Zm-2.87,1.21-.42,0c0-4.08-.05-8.15,0-12.22a2.14,2.14,0,0,0-1.69-2.48C60,10.32,49.39,6.61,38.71,3a4.11,4.11,0,0,0-2.43,0c-10.61,3.61-21.19,7.3-31.8,10.9a2.17,2.17,0,0,0-1.79,2.42c.07,7.43,0,14.86.06,22.3A46.14,46.14,0,0,0,7.58,58.46c6.25,12.91,16.23,22.1,28.8,28.64A3,3,0,0,0,38.86,87a109.44,109.44,0,0,0,10.82-6.89c11-8.46,18.91-19.15,21.61-32.95C72.47,41.15,72.35,34.85,72.82,28.67Z"/><path class="cls-2" d="M23.62,40.32c0-3.27,0-6.26,0-9.24.05-8.08,6.15-14.35,13.94-14.34S51.45,23,51.5,31.1c0,3,0,6,0,9.22,1.2,0,2.24,0,3.28,0,1.67-.09,2.28.7,2.27,2.32,0,7.56,0,15.13,0,22.7,0,3.23-2,5.24-5.23,5.27q-14.24.11-28.48,0c-3.33,0-5.2-2.11-5.22-5.51,0-7.28,0-14.56,0-21.84,0-2.73.19-2.92,2.91-2.93ZM21,43.22c-.06.66-.15,1.21-.15,1.76q0,9.85,0,19.7c0,2.67.57,3.2,3.35,3.2q13.39,0,26.78,0c2.81,0,3.31-.53,3.31-3.44q0-9.54,0-19.06c0-.69-.08-1.38-.13-2.16Zm5.52-3.09H48.62c0-3.58.18-7,0-10.43a10.84,10.84,0,0,0-10.9-10.23A10.84,10.84,0,0,0,26.55,29.68C26.32,33.08,26.51,36.52,26.51,40.13Z"/><path class="cls-3" d="M37.71,64.15c-1.22,0-2.43,0-3.64,0-1.74,0-2.34-.83-1.85-2.46.68-2.27,1-4.28-.52-6.61-1.7-2.66-.4-6.31,2.17-8.13a6.83,6.83,0,0,1,8.17.31c2.43,2,3.37,5.73,1.58,8.29-1.26,1.82-1.06,3.35-.59,5.18.8,3.17.58,3.41-2.75,3.42Zm2.51-2.86a3.33,3.33,0,0,0,0-.8c-.64-2.12-1.3-4,.87-6,1.5-1.33.73-4-.94-5.28a4,4,0,0,0-5.41.57,3.8,3.8,0,0,0,.17,5.4,2.82,2.82,0,0,1,.85,3.57,21.2,21.2,0,0,0-.55,2.51Z"/></g></g></svg>