<svg xmlns="http://www.w3.org/2000/svg" xmlns:xlink="http://www.w3.org/1999/xlink" viewBox="0 0 577.12 331.45"><defs><style>.cls-1{fill:#2f9ef7;}.cls-2{fill:#c4e5fe;}.cls-3,.cls-5,.cls-7,.cls-8,.cls-9{fill:none;stroke-miterlimit:10;}.cls-3,.cls-7,.cls-8,.cls-9{stroke:#414042;}.cls-4{fill:#414042;}.cls-5{stroke:url(#linear-gradient);}.cls-6{fill:url(#linear-gradient-2);}.cls-7{stroke-dasharray:8.31 8.31;}.cls-8{stroke-dasharray:11.42 11.42;}.cls-9{stroke-dasharray:12 12;}.cls-10,.cls-11{font-size:7.41px;}.cls-10,.cls-13{fill:#fff;}.cls-10,.cls-11,.cls-12,.cls-13{font-family:Poppins-Medium, Poppins;font-weight:500;}.cls-11,.cls-12{fill:#1c75bc;}.cls-12,.cls-13{font-size:6.38px;}</style><linearGradient id="linear-gradient" x1="456.42" y1="49.97" x2="456.42" y2="66.67" gradientUnits="userSpaceOnUse"><stop offset="0" stop-color="#00aeef"/><stop offset="1" stop-color="#2b3990"/></linearGradient><linearGradient id="linear-gradient-2" x1="456.44" y1="49.97" x2="456.44" y2="66.67" xlink:href="#linear-gradient"/></defs><g id="Layer_2" data-name="Layer 2"><g id="Layer_1-2" data-name="Layer 1"><circle class="cls-1" cx="24" cy="26.98" r="24"/><circle class="cls-1" cx="291.91" cy="26.98" r="24"/><circle class="cls-1" cx="456.84" cy="307.45" r="24"/><circle class="cls-2" cx="553.12" cy="307.45" r="24"/><circle class="cls-2" cx="212.37" cy="302.42" r="24"/><circle class="cls-2" cx="456" cy="92.28" r="24"/><rect class="cls-2" x="71.2" y="7.59" width="75.24" height="37.95" rx="4.62"/><rect class="cls-2" x="169.99" y="7.59" width="75.24" height="37.95" rx="4.62"/><rect class="cls-2" x="419.48" y="7.59" width="75.24" height="37.95" rx="4.62"/><rect class="cls-2" x="419.48" y="221.91" width="75.24" height="37.95" rx="4.62"/><rect class="cls-2" x="260.41" y="150.75" width="75.24" height="37.95" rx="4.62"/><rect class="cls-2" x="5.06" y="284.7" width="75.24" height="37.95" rx="4.62"/><path class="cls-2" d="M340.26,25.83,365.79.71s2.3-1.67,3.77.11S393.1,24.37,393.1,24.37s2.41,1-.1,3.87S368.51,53,368.51,53s-2.72,1.67-4.71-.21S340.47,29,340.47,29,339.63,27,340.26,25.83Z"/><path class="cls-2" d="M429,168.16,454.53,143s2.31-1.67,3.77.1,23.55,23.55,23.55,23.55,2.41,1.05-.11,3.87-24.48,24.81-24.48,24.81-2.73,1.67-4.71-.21-23.34-23.86-23.34-23.86S428.37,169.31,429,168.16Z"/><path class="cls-2" d="M107.51,302.11,133.05,277s2.3-1.67,3.76.11,23.55,23.54,23.55,23.54,2.41,1.05-.1,3.88-24.49,24.8-24.49,24.8-2.72,1.67-4.71-.21-23.34-23.86-23.34-23.86S106.88,303.26,107.51,302.11Z"/><line class="cls-2" x1="69.42" y1="26.35" x2="52.73" y2="26.51"/><line class="cls-3" x1="63.38" y1="26.41" x2="52.73" y2="26.51"/><path class="cls-4" d="M69.42,26.35a30.09,30.09,0,0,1-8.59-4.67l1.76,4.74-1.67,4.77A30,30,0,0,1,69.42,26.35Z"/><circle class="cls-2" cx="52.2" cy="26.46" r="2.41"/><line class="cls-2" x1="167.65" y1="26.35" x2="150.96" y2="26.51"/><line class="cls-3" x1="161.62" y1="26.41" x2="150.96" y2="26.51"/><path class="cls-4" d="M167.65,26.35a30.09,30.09,0,0,1-8.59-4.67l1.76,4.74-1.67,4.77A30,30,0,0,1,167.65,26.35Z"/><circle class="cls-2" cx="150.44" cy="26.46" r="2.41"/><line class="cls-2" x1="266.72" y1="26.35" x2="250.03" y2="26.51"/><line class="cls-3" x1="260.69" y1="26.41" x2="250.03" y2="26.51"/><path class="cls-4" d="M266.72,26.35a30.09,30.09,0,0,1-8.59-4.67l1.76,4.74-1.67,4.77A30,30,0,0,1,266.72,26.35Z"/><circle class="cls-2" cx="249.51" cy="26.46" r="2.41"/><line class="cls-2" x1="336.49" y1="26.35" x2="319.8" y2="26.51"/><line class="cls-3" x1="330.45" y1="26.41" x2="319.8" y2="26.51"/><path class="cls-4" d="M336.49,26.35a30.09,30.09,0,0,1-8.59-4.67l1.76,4.74L328,31.19A30,30,0,0,1,336.49,26.35Z"/><circle class="cls-2" cx="319.27" cy="26.46" r="2.41"/><line class="cls-2" x1="415.47" y1="26.35" x2="398.77" y2="26.51"/><line class="cls-3" x1="409.43" y1="26.41" x2="398.77" y2="26.51"/><path class="cls-4" d="M415.47,26.35a30.28,30.28,0,0,1-8.6-4.67l1.77,4.74L407,31.19A30.19,30.19,0,0,1,415.47,26.35Z"/><circle class="cls-2" cx="398.25" cy="26.46" r="2.41"/><line class="cls-2" x1="456.52" y1="66.66" x2="456.37" y2="49.97"/><line class="cls-5" x1="456.47" y1="60.63" x2="456.37" y2="49.97"/><path class="cls-6" d="M456.52,66.66a30.11,30.11,0,0,1,4.68-8.59l-4.74,1.77-4.77-1.68A30.35,30.35,0,0,1,456.52,66.66Z"/><circle class="cls-2" cx="456.42" cy="49.45" r="2.41"/><line class="cls-2" x1="456.52" y1="139.22" x2="456.37" y2="122.53"/><line class="cls-3" x1="456.47" y1="133.19" x2="456.37" y2="122.53"/><path class="cls-4" d="M456.52,139.22a30.11,30.11,0,0,1,4.68-8.59l-4.74,1.76-4.77-1.67A30.21,30.21,0,0,1,456.52,139.22Z"/><circle class="cls-2" cx="456.42" cy="122" r="2.41"/><line class="cls-2" x1="456.52" y1="219.31" x2="456.37" y2="202.62"/><line class="cls-3" x1="456.47" y1="213.28" x2="456.37" y2="202.62"/><path class="cls-4" d="M456.52,219.31a30.11,30.11,0,0,1,4.68-8.59l-4.74,1.77-4.77-1.68A30.35,30.35,0,0,1,456.52,219.31Z"/><circle class="cls-2" cx="456.42" cy="202.1" r="2.41"/><line class="cls-2" x1="456.52" y1="282.38" x2="456.37" y2="265.69"/><line class="cls-3" x1="456.47" y1="276.35" x2="456.37" y2="265.69"/><path class="cls-4" d="M456.52,282.38a30.11,30.11,0,0,1,4.68-8.59l-4.74,1.77-4.77-1.68A30.35,30.35,0,0,1,456.52,282.38Z"/><circle class="cls-2" cx="456.42" cy="265.17" r="2.41"/><line class="cls-2" x1="523.95" y1="307.07" x2="485.54" y2="307.23"/><line class="cls-3" x1="517.92" y1="307.1" x2="485.54" y2="307.23"/><path class="cls-4" d="M524,307.07a30,30,0,0,1-8.56-4.72l1.74,4.75-1.7,4.76A30.36,30.36,0,0,1,524,307.07Z"/><circle class="cls-2" cx="485.01" cy="307.18" r="2.41"/><line class="cls-3" x1="514.92" y1="26.56" x2="520.92" y2="26.56"/><line class="cls-7" x1="529.23" y1="26.56" x2="541.7" y2="26.56"/><polyline class="cls-3" points="545.86 26.56 551.86 26.56 551.85 32.56"/><line class="cls-8" x1="551.82" y1="43.98" x2="551.33" y2="266.58"/><line class="cls-3" x1="551.32" y1="272.28" x2="551.3" y2="278.28"/><path class="cls-4" d="M508.88,26.56a30.2,30.2,0,0,1,8.55,4.76l-1.72-4.76,1.72-4.75A30.18,30.18,0,0,1,508.88,26.56Z"/><polyline class="cls-9" points="207.94 65.53 207.49 92.42 367.12 92.42 367.12 58.94"/><path class="cls-4" d="M208.05,59.49a30.48,30.48,0,0,1-4.9,8.47l4.78-1.64,4.73,1.8A30,30,0,0,1,208.05,59.49Z"/><line class="cls-9" x1="352.78" y1="169.45" x2="420.98" y2="169.45"/><path class="cls-4" d="M346.74,169.45a30.18,30.18,0,0,1,8.55,4.75l-1.72-4.75,1.72-4.76A30.2,30.2,0,0,1,346.74,169.45Z"/><text class="cls-10" transform="translate(14.7 28.91)">Entry</text><text class="cls-11" transform="translate(92.32 28.91)">Welcom</text><text class="cls-11" transform="translate(186.09 28.91)">Select Task</text><text class="cls-11" transform="translate(351.36 28.91)">Correct</text><text class="cls-11" transform="translate(443.88 28.91)">Details</text><text class="cls-11" transform="translate(448.2 94.49)">Find</text><text class="cls-12" transform="translate(434.73 171.87)">Search items</text><text class="cls-12" transform="translate(273.05 171.87)">No Items Found</text><text class="cls-12" transform="translate(30.85 306.81)">Display</text><text class="cls-12" transform="translate(121.83 306.81)">Dicision</text><text class="cls-12" transform="translate(202.1 306.81)">Action</text><text class="cls-13" transform="translate(443.63 309.9)">Ordered</text><text class="cls-12" transform="translate(544.1 309.9)">Close</text><text class="cls-12" transform="translate(437.98 238.61)">Item Found</text><text class="cls-12" transform="translate(431.83 247.14)">Goal Complete</text><text class="cls-10" transform="translate(287.38 28.91)">#1</text></g></g></svg>