<svg xmlns="http://www.w3.org/2000/svg" xmlns:xlink="http://www.w3.org/1999/xlink" viewBox="0 0 47.03 96.56"><defs><style>.cls-1{fill:url(#Orange);}.cls-2{fill:url(#Orange-2);}</style><linearGradient id="Orange" y1="48.28" x2="47.03" y2="48.28" gradientUnits="userSpaceOnUse"><stop offset="0" stop-color="#f69453"/><stop offset="0.5" stop-color="#f37521"/><stop offset="1" stop-color="#d4622a"/></linearGradient><linearGradient id="Orange-2" x1="4.09" y1="48.29" x2="42.67" y2="48.29" xlink:href="#Orange"/></defs><g id="Layer_2" data-name="Layer 2"><g id="Layer_1-2" data-name="Layer 1"><path class="cls-1" d="M47,48.16V92.64c0,3.57-.36,3.92-3.94,3.92H3.52C.51,96.55,0,96,0,93V3.51C0,.41.41,0,3.58,0h39.8C46.69,0,47,.34,47,3.67Q47,25.92,47,48.16ZM44.65,84.07A9.48,9.48,0,0,0,45,82.53q0-35,0-70c0-1.47-.58-1.74-1.91-1.74q-19.51,0-39,0c-1.73,0-2,.74-2,2.22.07,3.84,0,7.69,0,11.54,0,18.83,0,37.65,0,56.48,0,2.3.49,3.1,2.94,3.07,9.33-.12,18.66,0,28,0C36.84,84.08,40.75,84.07,44.65,84.07ZM24,87.23c-2.29.65-3.47,1.53-3.31,3.43a2.77,2.77,0,0,0,2.89,2.72c1.61.06,3.36-1.84,2.82-3.29C26,88.92,24.74,88.05,24,87.23Z"/><path class="cls-2" d="M28.24,48.8c3.91,4.16,7.51,8.06,11.18,11.88,1.95,2,1.87,2.12-.24,4.54-1.68,1.93-2.73,1.23-4.09-.26C31.52,61,27.87,57.19,24,53c-1.7,1.82-3.36,3.4-4.74,5.2a4.49,4.49,0,0,0-.38,2.7c.1,2.49-.66,4.55-2.88,5.82a5.49,5.49,0,0,1-6.13-.08c1.33-.93,2.31-1.72,3.38-2.34,1.73-1,1.59-2.56.8-3.8s-2.12-2.37-3.92-1.26c-1.08.67-2.2,1.28-3.34,2A4.83,4.83,0,0,1,11.93,55c3,.49,4.3-1.05,5.92-2.7.86-.88,1.73-1.74,2.78-2.8L13,41.19a16.23,16.23,0,0,0-2.15,2.56c-1.06,2-2.17,2.26-3.76.74L6,43.44c-2.74-2.83-2.61-2.65.73-5,1.81-1.25,3.06-3.29,4.63-4.91A15.64,15.64,0,0,1,21.94,29a4.71,4.71,0,0,1,2.72.65,36.45,36.45,0,0,0-3.21,1.84,20.86,20.86,0,0,0-3.6,2.93c-1.61,1.77-1.35,3.78.27,5.48,1.93,2,3.75,4.12,6.1,6.72,2.27-2.52,4.2-4.49,5.9-6.64.44-.55.29-1.65.24-2.49-.24-4.17,2.8-7.27,6.75-6.77a13.88,13.88,0,0,1,2.3.8,35.74,35.74,0,0,1-3.28,2.35,2.63,2.63,0,0,0-1,4c.84,1.32,2.33,2.37,4.17,1,1-.7,2-1.29,3.06-2a4.89,4.89,0,0,1-5.22,6.39c-3-.43-4.28,1.05-5.92,2.71C30.17,47.13,29,48.13,28.24,48.8Z"/></g></g></svg>