<svg xmlns="http://www.w3.org/2000/svg" viewBox="0 0 46.71 55.92"><defs><style>.cls-1{fill:#bd1f38;}</style></defs><g id="Layer_2" data-name="Layer 2"><g id="Layer_1-2" data-name="Layer 1"><path class="cls-1" d="M39.11,22.25V11.11H33.2C30.75,11.1,30,10.33,30,7.9V2.12H2.15V53.78H39c0-.57.08-1.16.08-1.75,0-3.87.08-7.74,0-11.6A3.48,3.48,0,0,1,41,37a8.24,8.24,0,0,1,.08.87c0,5.1,0,10.2,0,15.31,0,1.9-.89,2.77-2.8,2.77q-17.76,0-35.52,0C.87,55.91,0,55,0,53.09Q0,27.94,0,2.78C0,.85.84,0,2.77,0c9.15,0,18.3,0,27.45,0a3.29,3.29,0,0,1,2,.84c2.72,2.6,5.37,5.26,8,8a3.07,3.07,0,0,1,.82,1.87c.08,3,.14,6,0,8.91-.05,1-.84,1.89-1.3,2.84ZM32,8.94H36.7L32,4.23Z"/><path class="cls-1" d="M42,31.32l.62.54C39,35.5,35.69,39.22,31.93,42.36c-1.66,1.39-4.3,1.61-6.68,2.16.85-2.73.72-5.66,3-7.81,3.2-3.06,6.26-6.24,9.48-9.46l1,.88-.47-.33c-3.51,3.75-7.06,7.48-10.52,11.29a3.63,3.63,0,0,0-.9,2.35,2,2,0,0,0,1.39,1.47,3.88,3.88,0,0,0,2.5-.9C34.45,38.54,38.15,35,42,31.32Z"/><path class="cls-1" d="M20.8,22.56c3.65,0,7.29,0,10.94,0,.79,0,1.95-.24,1.82,1,0,.39-1.24.95-1.91.95-7.24.07-14.47.05-21.7,0-.81,0-1.93.19-1.82-1.06,0-.37,1.12-.9,1.74-.91C13.51,22.52,17.16,22.56,20.8,22.56Z"/><path class="cls-1" d="M20.75,29c-3.64,0-7.29.05-10.93-.05-.6,0-1.65-.59-1.69-1-.13-1.16.95-1,1.7-1h22c.76,0,1.82-.15,1.7,1,0,.41-1.11,1-1.72,1C28.16,29,24.45,29,20.75,29Z"/><path class="cls-1" d="M39.23,28.61l2,2.05c-1.1,1-2.21,2-3.26,3.05-2.27,2.24-4.51,4.5-6.76,6.75-.67.67-1.4,1-2.18.28s-.47-1.5.21-2.18Z"/><path class="cls-1" d="M16.53,18.19c2.35,0,4.7-.05,7,0,.52,0,1,.57,1.53.88-.51.37-1,1-1.55,1.05q-7,.12-13.91,0c-.54,0-1.07-.64-1.6-1,.54-.33,1.07-.91,1.62-.94C11.94,18.13,14.24,18.19,16.53,18.19Z"/><path class="cls-1" d="M16.6,31.32c2.35,0,4.7-.06,7,0,.5,0,1,.62,1.46.94-.49.35-1,1-1.45,1-4.7.07-9.39.08-14.09,0-.51,0-1-.69-1.52-1.06.51-.3,1-.84,1.52-.86C11.9,31.26,14.25,31.32,16.6,31.32Z"/><path class="cls-1" d="M44.76,30.28,39.67,25c1-.71,2.55-2.29,3.15-2a9,9,0,0,1,3.85,3.66C47,27.32,45.53,28.9,44.76,30.28Z"/><path class="cls-1" d="M12.71,7.12c-1.18,0-2.36.07-3.51,0-.41,0-.77-.59-1.16-.9.4-.36.79-1,1.2-1,2.34-.1,4.69-.1,7,0,.42,0,.83.64,1.24,1-.43.33-.83.89-1.3.94A29.14,29.14,0,0,1,12.71,7.12Z"/><path class="cls-1" d="M12.76,9.1a34.5,34.5,0,0,1,3.67.05c.39,0,.72.62,1.08,1-.32.32-.64.92-1,.93-2.51.08-5,.08-7.52,0-.34,0-.66-.69-1-1.07.34-.28.68-.79,1.05-.82C10.3,9,11.53,9.1,12.76,9.1Z"/><path class="cls-1" d="M12.68,45.29a32,32,0,0,1-3.53,0c-.4,0-.74-.62-1.11-1,.38-.33.74-.93,1.13-.94,2.4-.09,4.82-.09,7.22,0,.39,0,.75.62,1.12,1-.38.32-.73.89-1.14.93C15.15,45.36,13.91,45.28,12.68,45.29Z"/><path class="cls-1" d="M38.57,26.47c.68-1.23,1.23-.24,1.78.3,3.61,3.54,3.6,3.55,2.87,4.36Z"/><path class="cls-1" d="M6.7,7.37H4.21V4.9H6.7Z"/><path class="cls-1" d="M4.22,8.85H6.68v2.38C4.08,11.72,4,11.6,4.22,8.85Z"/><path class="cls-1" d="M4.1,17.9H6.66v2.68c-.82-.1-1.87.08-2.29-.35S4.17,18.75,4.1,17.9Z"/><path class="cls-1" d="M6.68,24.83C4,25,4,25,4.22,22.38H6.68Z"/><path class="cls-1" d="M4.3,26.65H6.66v2.41C4.1,29.64,3.84,29.39,4.3,26.65Z"/><path class="cls-1" d="M4.2,31.1A6.91,6.91,0,0,1,5.09,31c.49,0,1,0,1.58,0v2.48C4.09,34,4,33.85,4.2,31.1Z"/><path class="cls-1" d="M4.23,43.05H6.69v2.33C4.17,46,4,45.79,4.23,43.05Z"/></g></g></svg>