<svg xmlns="http://www.w3.org/2000/svg" xmlns:xlink="http://www.w3.org/1999/xlink" viewBox="0 0 199.86 105.13"><defs><style>.cls-1{fill:none;}.cls-2{clip-path:url(#clip-path);}.cls-3{fill:url(#radial-gradient);}.cls-4{clip-path:url(#clip-path-2);}.cls-5{fill:#777bb3;}.cls-6{fill:#fff;}</style><clipPath id="clip-path" transform="translate(-4.16 -5.99)"><path class="cls-1" d="M4.16,58.55c0,29,44.74,52.57,99.93,52.57h0c55.19,0,99.93-23.54,99.93-52.57h0C204,29.52,159.28,6,104.09,6h0C48.9,6,4.16,29.52,4.16,58.55"/></clipPath><radialGradient id="radial-gradient" cx="-219.67" cy="2077.23" r="0.29" gradientTransform="matrix(453.82, 0, 0, -453.82, 99755.61, 942715.73)" gradientUnits="userSpaceOnUse"><stop offset="0" stop-color="#aeb2d5"/><stop offset="0.3" stop-color="#aeb2d5"/><stop offset="0.75" stop-color="#484c89"/><stop offset="1" stop-color="#484c89"/></radialGradient><clipPath id="clip-path-2" transform="translate(-4.16 -5.99)"><rect class="cls-1" width="208.18" height="117.1"/></clipPath></defs><g id="Layer_2" data-name="Layer 2"><g id="Layer_1-2" data-name="Layer 1"><g id="g3438"><g id="g3440"><g class="cls-2"><g id="g3442"><g id="g3448"><g id="g3450"><path id="path3462" class="cls-3" d="M4.16,58.55c0,29,44.74,52.57,99.93,52.57h0c55.19,0,99.93-23.54,99.93-52.57h0C204,29.52,159.28,6,104.09,6h0C48.9,6,4.16,29.52,4.16,58.55" transform="translate(-4.16 -5.99)"/></g></g></g></g></g><g id="g3464"><g class="cls-4"><g id="g3466"><g id="g3472"><path id="path3474" class="cls-5" d="M104.09,107.21c53,0,96-21.78,96-48.66s-43-48.66-96-48.66-96,21.79-96,48.66,43,48.66,96,48.66" transform="translate(-4.16 -5.99)"/></g></g></g></g><g id="g3476"><g class="cls-4"><g id="g3478"><g id="g3484"><path id="path3486" d="M58.46,64.58c4.36,0,7.61-.8,9.67-2.38s3.45-4.29,4.18-8.08c.69-3.55.43-6-.77-7.36s-3.9-2-7.92-2h-7L52.79,64.58ZM35.66,89.07a1.06,1.06,0,0,1-.83-.39,1.08,1.08,0,0,1-.23-.9L44.84,35.1a1.08,1.08,0,0,1,1.06-.88H68c6.93,0,12.1,1.89,15.34,5.6s4.27,9,3,15.52a24,24,0,0,1-7.53,13.49,21.47,21.47,0,0,1-8,4.82,36.47,36.47,0,0,1-11,1.42H50.75L48.2,88.19a1.08,1.08,0,0,1-1.06.88Z" transform="translate(-4.16 -5.99)"/></g><g id="g3488"><path id="path3490" class="cls-6" d="M57.55,45.79h6.07c4.85,0,6.54,1.06,7.11,1.7,1,1,1.13,3.27.52,6.42-.69,3.52-2,6-3.78,7.43s-4.9,2.16-9,2.16H54.11ZM68,33.14H45.9a2.17,2.17,0,0,0-2.13,1.76L33.53,87.57a2.2,2.2,0,0,0,.46,1.8,2.17,2.17,0,0,0,1.67.79H47.14a2.17,2.17,0,0,0,2.13-1.76l2.38-12.25h8a37.71,37.71,0,0,0,11.38-1.47,22.72,22.72,0,0,0,8.44-5.06,25,25,0,0,0,7.86-14.08c1.34-6.9.25-12.43-3.24-16.43s-8.9-6-16.16-6M51.48,65.67h7q6.93,0,10.33-2.62c2.27-1.74,3.79-4.65,4.59-8.73q1.14-5.87-1-8.28t-8.72-2.42H55.76L51.48,65.67M68,35.31q10,0,14.52,5.23t2.75,14.59a23.59,23.59,0,0,1-2.54,7A23.23,23.23,0,0,1,78,68a20.16,20.16,0,0,1-7.63,4.58A35,35,0,0,1,59.69,74H49.86L47.14,88H35.66L45.9,35.31H68" transform="translate(-4.16 -5.99)"/></g><g id="g3492"><path id="path3494" d="M112.62,75.07a1.09,1.09,0,0,1-1.07-1.29l4.53-23.31c.43-2.22.32-3.81-.3-4.48-.38-.41-1.53-1.1-4.92-1.1h-8.2L97,74.19a1.08,1.08,0,0,1-1.06.88H84.51a1.09,1.09,0,0,1-1.06-1.29L93.69,21.1a1.08,1.08,0,0,1,1.06-.88h11.39a1.06,1.06,0,0,1,.83.39,1.08,1.08,0,0,1,.23.9l-2.47,12.71h8.83c6.72,0,11.28,1.19,13.94,3.63s3.55,6.47,2.51,11.82l-4.76,24.52a1.09,1.09,0,0,1-1.07.88Z" transform="translate(-4.16 -5.99)"/></g><g id="g3496"><path id="path3498" class="cls-6" d="M106.14,19.14H94.75a2.16,2.16,0,0,0-2.13,1.75L82.39,73.57a2.15,2.15,0,0,0,.45,1.79,2.17,2.17,0,0,0,1.67.79H95.9A2.17,2.17,0,0,0,98,74.4L103.55,46h7.31c3.39,0,4.1.72,4.13.76.2.22.47,1.24,0,3.53l-4.53,23.31a2.15,2.15,0,0,0,.45,1.79,2.18,2.18,0,0,0,1.68.79h11.56a2.17,2.17,0,0,0,2.13-1.75l4.76-24.52c1.12-5.75.16-10.07-2.84-12.83s-7.66-3.91-14.67-3.91h-7.51l2.22-11.42a2.2,2.2,0,0,0-.46-1.8,2.15,2.15,0,0,0-1.67-.78m0,2.16-2.72,14h10.14q9.57,0,13.2,3.34t2.18,10.82L124.18,74H112.62l4.52-23.31q.78-4-.56-5.42c-.9-1-2.8-1.45-5.72-1.45h-9.1L95.9,74H84.51L94.75,21.3h11.39" transform="translate(-4.16 -5.99)"/></g><g id="g3500"><path id="path3502" d="M148,64.58c4.36,0,7.62-.8,9.68-2.38s3.44-4.29,4.18-8.08c.69-3.55.43-6-.78-7.36s-3.89-2-7.91-2h-7l-3.86,19.87ZM125.23,89.07a1.1,1.1,0,0,1-.84-.39,1.08,1.08,0,0,1-.22-.9L134.4,35.1a1.09,1.09,0,0,1,1.07-.88h22.07c6.93,0,12.09,1.89,15.34,5.6s4.27,9,3,15.52a23.92,23.92,0,0,1-7.54,13.49,21.43,21.43,0,0,1-8,4.82,36.47,36.47,0,0,1-11,1.42h-8.94l-2.55,13.12a1.08,1.08,0,0,1-1.06.88Z" transform="translate(-4.16 -5.99)"/></g><g id="g3504"><path id="path3506" class="cls-6" d="M147.12,45.79h6.07c4.85,0,6.54,1.06,7.11,1.7.95,1,1.13,3.27.52,6.42-.69,3.52-2,6-3.78,7.43s-4.9,2.16-9,2.16h-4.35Zm10.42-12.65H135.47a2.17,2.17,0,0,0-2.13,1.76L123.1,87.57a2.2,2.2,0,0,0,.46,1.8,2.16,2.16,0,0,0,1.67.79h11.48a2.16,2.16,0,0,0,2.12-1.76l2.39-12.25h8a37.69,37.69,0,0,0,11.37-1.47,22.68,22.68,0,0,0,8.45-5.06,25.18,25.18,0,0,0,7.86-14.08c1.34-6.9.25-12.43-3.25-16.43s-8.89-6-16.15-6M141,65.67h7q6.94,0,10.34-2.62c2.27-1.74,3.79-4.65,4.59-8.73q1.14-5.87-1-8.28t-8.72-2.42h-7.86L141,65.67m16.5-30.36q9.94,0,14.52,5.23t2.75,14.59A22.94,22.94,0,0,1,167.6,68,20.19,20.19,0,0,1,160,72.61,34.92,34.92,0,0,1,149.26,74h-9.83l-2.72,14H125.23l10.24-52.68h22.07" transform="translate(-4.16 -5.99)"/></g></g></g></g></g></g></g></svg>