<svg xmlns="http://www.w3.org/2000/svg" xmlns:xlink="http://www.w3.org/1999/xlink" viewBox="0 0 55.69 79.61"><defs><style>.cls-1{fill:url(#Orange);}.cls-2{fill:url(#Orange-2);}.cls-3{fill:url(#Orange-3);}.cls-4{fill:url(#Orange-4);}.cls-5{fill:url(#Orange-5);}.cls-6{fill:url(#Orange-6);}.cls-7{fill:url(#Orange-7);}</style><linearGradient id="Orange" y1="39.81" x2="55.69" y2="39.81" gradientUnits="userSpaceOnUse"><stop offset="0" stop-color="#f69453"/><stop offset="0.5" stop-color="#f37521"/><stop offset="1" stop-color="#d4622a"/></linearGradient><linearGradient id="Orange-2" x1="10.53" y1="35.49" x2="44.16" y2="35.49" xlink:href="#Orange"/><linearGradient id="Orange-3" x1="23.1" y1="68.8" x2="32.31" y2="68.8" xlink:href="#Orange"/><linearGradient id="Orange-4" x1="20.64" y1="7.39" x2="24.97" y2="7.39" xlink:href="#Orange"/><linearGradient id="Orange-5" x1="35.15" y1="7.54" x2="39.53" y2="7.54" xlink:href="#Orange"/><linearGradient id="Orange-6" x1="27.92" y1="7.54" x2="32.2" y2="7.54" xlink:href="#Orange"/><linearGradient id="Orange-7" x1="20.96" y1="35.76" x2="34.02" y2="35.76" xlink:href="#Orange"/></defs><g id="Layer_2" data-name="Layer 2"><g id="Layer_1-2" data-name="Layer 1"><path class="cls-1" d="M47.49,0c4,1.08,6.9,3.26,7.92,7.45a11,11,0,0,1,.27,2.63q0,29.69,0,59.38c0,6.23-3.79,10.11-10,10.13q-18,0-36,0C3.93,79.56,0,75.67,0,69.87Q0,39.83,0,9.78C0,4.84,2.44,2,8.11,0ZM3,57.93H52.5V15.18H3Zm49.34,2.83H3.07c0,3.52-.21,7,.06,10.45a6.13,6.13,0,0,0,6.43,5.64q18.25.12,36.51,0c3.13,0,5.94-2,6.22-4.79C52.66,68.35,52.38,64.57,52.38,60.76ZM3.11,12H52.67c.56-6.16-2.06-9.07-8-9.07H10.84C5,2.94,2.34,6,3.11,12Z"/><path class="cls-2" d="M41.73,26.09c-.59.89-1,1.59-1.49,2.24-1.7,2.32-1.32,3.28,1.52,3.82q.43.08.87.12c1.1.08,1.86.42,1.39,1.75a1.32,1.32,0,0,0,0,.35c-.12,1.33.2,3-.49,3.89s-2.33.76-3.57,1.1a1.68,1.68,0,0,0-.86,2.73c3,3.54,1.77,3.32-.64,6-1.1,1.22-2.08,1.35-3.3.21a4.25,4.25,0,0,0-2-1.36c-1.44-.12-2.09.82-2.26,2.29-.37,3-.43,3-3.49,3-.47,0-.95,0-1.42,0a1.73,1.73,0,0,1-2-1.7c-.08-.7-.19-1.4-.33-2.09a1.71,1.71,0,0,0-2.89-1.11c-3.3,2.58-2.84,2.2-5.71-.45-1.38-1.27-1.61-2.34-.27-3.7a6.35,6.35,0,0,0,.95-1.28,1.75,1.75,0,0,0-1-2.58,9.32,9.32,0,0,0-1.74-.3c-1.67-.08-2.52-.83-2.32-2.58a9.37,9.37,0,0,0,0-1.06c0-3,.07-3.05,2.94-3.47,2.62-.39,3.09-1.49,1.55-3.58-1.79-2.42-1.79-2.42.3-4.51a11.8,11.8,0,0,0,1-1c1-1.26,2-1.19,3.18-.24A5.08,5.08,0,0,0,21.89,24c1.55.11,1.84-1.24,2.09-2.51.55-2.79.58-2.78,3.41-2.78.41,0,.83,0,1.24,0a2,2,0,0,1,2.45,1.88c.09.64.28,1.27.43,1.9.43,1.85,1.65,2.34,3.15,1.27a7.81,7.81,0,0,0,.84-.65c1.32-1.27,2.51-1.29,3.7.24C39.94,24.32,40.84,25.14,41.73,26.09Zm-4.51-1.21c-.3.2-.55.35-.78.53a4.22,4.22,0,0,1-4.81.76c-2-.82-2.93-1.87-3.06-3.92,0-.42-.62-.8-.95-1.19a6.94,6.94,0,0,0-.92,1.27c-.4,1-.4,2.31-1.08,2.83a8.22,8.22,0,0,1-4,1.65c-.86.09-1.9-.8-2.73-1.43-1-.75-1.41-.3-1.86.52a6.47,6.47,0,0,0,.55.8c1.34,1.51,1.44,2.92.66,4.94s-1.86,2.82-3.81,2.9a1.13,1.13,0,0,0-.66.21c-.23.2-.52.51-.51.76a1,1,0,0,0,.53.75c.67.22,1.42.2,2.07.45s1.44.54,1.69,1c1.12,2.39,2.28,4.86-.36,7.1-.07.06-.07.21-.1.31.5,1,1.08,1,1.95.34a5.23,5.23,0,0,1,2.63-1.24,5,5,0,0,1,4.93,4.51c.14,1.08.57,1.46,1.71.91-.13-2.2.56-3.47,2.91-4.59,2.7-1.29,3.9.45,5.61,1.27,1.17-.48.92-1.07.44-1.94-.55-1-1.28-2.27-1.1-3.28.46-2.62,1.71-4.78,4.95-4.58a3,3,0,0,0,.78-.14c.57-1.37-.1-1.75-1.21-2-.91-.17-2.17-.23-2.59-.82a10.85,10.85,0,0,1-1.74-4.18c-.13-.72.7-1.67,1.2-2.45S38.63,25.52,37.22,24.88Z"/><path class="cls-3" d="M32.3,68.86c0,4.89.41,4.58-4.58,4.58-4.81,0-4.63.38-4.62-4.59,0-5.32-.28-4.66,4.64-4.67C32.94,64.17,32.26,63.68,32.3,68.86Zm-6.14,1.62h3.21V67.19H26.16Z"/><path class="cls-4" d="M22.84,5.63c1,.91,2.08,1.46,2.12,2.1.1,1.27-1.1,1.42-2.17,1.42S20.51,9,20.65,7.69C20.72,7.05,21.84,6.52,22.84,5.63Z"/><path class="cls-5" d="M37.56,6c.69.55,1.85,1,1.95,1.68.2,1.27-1,1.52-2.07,1.51s-2.21,0-2.29-1.35S36.17,6.27,37.56,6Z"/><path class="cls-6" d="M30.42,6c.61.58,1.66,1.11,1.76,1.77.19,1.39-1.07,1.41-2.09,1.41s-2.15,0-2.17-1.42S29.05,6.34,30.42,6Z"/><path class="cls-7" d="M27.51,42.27A6.6,6.6,0,0,1,21,35.76a6.68,6.68,0,0,1,6.57-6.52,6.52,6.52,0,0,1,0,13ZM24,35.72a3.51,3.51,0,0,0,3.49,3.63,3.55,3.55,0,1,0,.13-7.09A3.39,3.39,0,0,0,24,35.72Z"/></g></g></svg>