<svg xmlns="http://www.w3.org/2000/svg" viewBox="0 0 767.32 426.76"><defs><style>.cls-1{fill:#fff;}</style></defs><g id="Layer_2" data-name="Layer 2"><g id="Layer_1-2" data-name="Layer 1"><rect class="cls-1" x="4.94" width="59.16" height="4.85"/><rect class="cls-1" x="77.67" width="14.55" height="4.85"/><path class="cls-1" d="M0,69.78H4.4l14.22,49.41L33.94,69.78h5l15.4,49.41L68.43,69.78h4.4l-15.95,55h-5L36.45,75.2,21,124.77H16Z"/><path class="cls-1" d="M110.78,110.79H83.21l-5.34,14h-4.4l21.37-55h4.4l21.29,55h-4.4Zm-1.49-3.93L97,74.88l-12.26,32Z"/><path class="cls-1" d="M168.85,69.78v55h-3.69L132.71,77.48v47.29h-4.17v-55h3.62l32.52,47.29V69.78Z"/><path class="cls-1" d="M216.31,73.7H199v51.07h-4.24V73.7H177.5V69.78h38.81Z"/><path class="cls-1" d="M279.72,73.7H262.43v51.07h-4.24V73.7H240.9V69.78h38.82Z"/><path class="cls-1" d="M282.08,97.27a28.36,28.36,0,1,1,28.36,28.37A28.2,28.2,0,0,1,282.08,97.27Zm52.56,0a24.2,24.2,0,1,0-24.2,24.36A24.09,24.09,0,0,0,334.64,97.27Z"/><path class="cls-1" d="M422.64,101.28c0,13.28-10.14,24.36-26.56,24.36-17.05,0-28.91-12.65-28.91-28.37S379,68.91,395.77,68.91a27.08,27.08,0,0,1,23.64,13.28l-3.69,2.2c-3.61-6.91-11.31-11.47-20-11.47-14.46,0-24.44,10.84-24.44,24.35s10,24.36,24.75,24.36c13.36,0,21.45-8.25,22.31-18.54H395.06V99.16h27.58Z"/><path class="cls-1" d="M437.25,69.78v55h-4.16v-55Z"/><path class="cls-1" d="M445.11,69.78h4.56l18.15,49.57,18.23-49.57h4.47l-20.5,55h-4.4Z"/><path class="cls-1" d="M530.12,120.84v3.93H498.46v-55h31.27V73.7h-27.1V95.07h25.14V99H502.63v21.84Z"/><path class="cls-1" d="M579.47,102.15v22.62H575.3V102.15l-20-32.37H560l17.45,28.36,17.36-28.36h4.71Z"/><path class="cls-1" d="M600.06,97.27a28.36,28.36,0,1,1,28.36,28.37A28.2,28.2,0,0,1,600.06,97.27Zm52.56,0a24.2,24.2,0,1,0-24.2,24.36A24.09,24.09,0,0,0,652.62,97.27Z"/><path class="cls-1" d="M666.14,106.39V69.78h4.16v36.61c0,9,5.58,15.24,16,15.24s16-6.29,16-15.24V69.78h4.16v36.61c0,11.63-8.09,19.25-20.19,19.25S666.14,118,666.14,106.39Z"/><path class="cls-1" d="M740.86,102.22H723.49v22.55h-4.16v-55H741a16.21,16.21,0,0,1,4.17,31.89l13.67,23.1h-4.79ZM723.49,98.3H741a12.3,12.3,0,0,0,0-24.6H723.49Z"/><path class="cls-1" d="M21.53,190.56H4.16v22.55H0v-55H21.68A16.22,16.22,0,0,1,25.85,190l13.67,23.1H34.73ZM4.16,186.63H21.68a12.3,12.3,0,0,0,0-24.59H4.16Z"/><path class="cls-1" d="M79.83,199.12H52.25l-5.34,14h-4.4l21.37-55h4.4l21.29,55h-4.4Zm-1.5-3.93-12.25-32-12.26,32Z"/><path class="cls-1" d="M90.2,158.11h4.4l14.22,49.42,15.32-49.42h5l15.4,49.42,14.14-49.42H163l-15.95,55h-5l-15.39-49.58-15.48,49.58h-5Z"/><path class="cls-1" d="M196.27,162v22h25.38V188H196.27v25.14h-4.16v-55h30.48V162Z"/><path class="cls-1" d="M229.67,185.61A28.36,28.36,0,1,1,258,214,28.2,28.2,0,0,1,229.67,185.61Zm52.56,0A24.2,24.2,0,1,0,258,210,24.1,24.1,0,0,0,282.23,185.61Z"/><path class="cls-1" d="M293.78,185.61A28.37,28.37,0,1,1,322.14,214,28.2,28.2,0,0,1,293.78,185.61Zm52.56,0A24.2,24.2,0,1,0,322.14,210,24.1,24.1,0,0,0,346.34,185.61Z"/><path class="cls-1" d="M391.68,162H374.4v51.07h-4.25V162H352.87v-3.93h38.81Z"/><path class="cls-1" d="M428.06,199.12H400.48l-5.34,14h-4.4l21.37-55h4.4l21.29,55h-4.4Zm-1.49-3.93-12.26-32-12.25,32Z"/><path class="cls-1" d="M496.18,189.62c0,13.27-10.13,24.35-26.55,24.35-17.05,0-28.92-12.65-28.92-28.36s11.87-28.36,28.6-28.36A27.11,27.11,0,0,1,493,170.52l-3.69,2.2c-3.62-6.91-11.32-11.47-20-11.47-14.45,0-24.43,10.85-24.43,24.36s10,24.35,24.75,24.35c13.35,0,21.44-8.24,22.31-18.54H468.61v-3.93h27.57Z"/><path class="cls-1" d="M538.3,209.18v3.93H506.64v-55h31.27V162H510.8v21.37h25.14v3.93H510.8v21.84Z"/><path class="cls-1" d="M603.28,162H586v51.07h-4.24V162H564.46v-3.93h38.82Z"/><path class="cls-1" d="M652.23,158.11v55h-4.17V186.79h-32v26.32h-4.17v-55h4.17v24.75h32V158.11Z"/><path class="cls-1" d="M697.56,209.18v3.93H665.9v-55h31.27V162h-27.1v21.37h25.14v3.93H670.07v21.84Z"/><path class="cls-1" d="M54.93,266.35c0,14.33-11.52,25.85-26.39,25.85H17.23v23.7H0V240.5H28.54C43.41,240.5,54.93,252,54.93,266.35Zm-17.23,0c0-5.49-3.88-9.69-9.16-9.69H17.23V276H28.54C33.82,276,37.7,271.84,37.7,266.35Z"/><path class="cls-1" d="M89,291.12H80.79V315.9H63.55V240.5H93.71a25.78,25.78,0,0,1,25.85,25.85,24.87,24.87,0,0,1-13.89,21.87l16,27.68H103.19ZM80.79,276H93.71c4.74,0,8.62-4.2,8.62-9.69s-3.88-9.69-8.62-9.69H80.79Z"/><path class="cls-1" d="M125.49,278.2a39.21,39.21,0,1,1,39.21,39.2A38.88,38.88,0,0,1,125.49,278.2Zm61.18,0c0-13.47-9.69-22.41-22-22.41s-22,8.94-22,22.41,9.69,22.4,22,22.4S186.67,291.66,186.67,278.2Z"/><path class="cls-1" d="M230.84,257.09v14.54h28v16.59h-28V315.9H213.61V240.5h45.77v16.59Z"/><path class="cls-1" d="M317,299.31V315.9H269.62V240.5h46.85v16.59H286.85v12.49h26.93V286H286.85v13.36Z"/><path class="cls-1" d="M322.94,298.77l14.86-8.62c2.7,6.25,7.33,10.45,15.84,10.45,8.18,0,10.23-3.23,10.23-6.14,0-4.63-4.31-6.46-15.62-9.58s-22.19-8.51-22.19-22.95S338.34,239,351.38,239c12.38,0,22.07,5.93,27.57,17l-14.54,8.51c-2.59-5.39-6.14-8.73-13-8.73-5.39,0-8.08,2.7-8.08,5.71,0,3.45,1.83,5.82,13.57,9.37,11.41,3.45,24.23,7.44,24.23,23.38,0,14.54-11.63,23.15-28,23.15C337.26,317.4,327.14,309.86,322.94,298.77Z"/><path class="cls-1" d="M383.8,298.77l14.86-8.62c2.7,6.25,7.33,10.45,15.84,10.45,8.18,0,10.23-3.23,10.23-6.14,0-4.63-4.31-6.46-15.62-9.58s-22.19-8.51-22.19-22.95S399.2,239,412.24,239c12.38,0,22.08,5.93,27.57,17l-14.54,8.51c-2.59-5.39-6.14-8.73-13-8.73-5.39,0-8.08,2.7-8.08,5.71,0,3.45,1.83,5.82,13.57,9.37,11.42,3.45,24.23,7.44,24.23,23.38,0,14.54-11.63,23.15-28,23.15C398.13,317.4,388,309.86,383.8,298.77Z"/><path class="cls-1" d="M467.28,240.5v75.4H450.05V240.5Z"/><path class="cls-1" d="M477,278.2a39.21,39.21,0,1,1,39.2,39.2A38.87,38.87,0,0,1,477,278.2Zm61.18,0c0-13.47-9.7-22.41-22-22.41s-22,8.94-22,22.41,9.7,22.4,22,22.4S538.16,291.66,538.16,278.2Z"/><path class="cls-1" d="M624.33,240.5v75.4H611.41L582.32,275V315.9H565.09V240.5H578l29.08,40.93V240.5Z"/><path class="cls-1" d="M681.42,304.05h-28l-3.77,11.85H630.8l25.63-75.4h22L704,315.9H685.19Zm-5.17-16.16-8.83-27.68-8.83,27.68Z"/><path class="cls-1" d="M754.67,299.31V315.9H710.51V240.5h17.24v58.81Z"/><path class="cls-1" d="M413.79,366.44H394.4v58.81H377.17V366.44H357.78V349.85h56Z"/><path class="cls-1" d="M413.79,387.55A39.21,39.21,0,1,1,453,426.76,38.88,38.88,0,0,1,413.79,387.55Zm61.18,0c0-13.46-9.69-22.4-22-22.4s-22,8.94-22,22.4,9.69,22.4,22,22.4S475,401,475,387.55Z"/><path class="cls-1" d="M500.83,400.91V349.85h17.23V399.4c0,5.71,2.7,10.55,11.85,10.55s11.85-4.84,11.85-10.55V349.85H559v51.06c0,16.15-12.49,25.85-29.08,25.85S500.83,417.06,500.83,400.91Z"/><path class="cls-1" d="M568.16,387.55c0-22.19,16.47-39.21,39.2-39.21,13.68,0,25.74,6.79,32.31,17.45l-14.86,8.62c-3.34-5.82-9.8-9.26-17.45-9.26-13.36,0-22,8.94-22,22.4s8.61,22.4,22,22.4c7.65,0,14.22-3.44,17.45-9.26l14.86,8.62c-6.46,10.66-18.52,17.45-32.31,17.45C584.63,426.76,568.16,409.74,568.16,387.55Z"/><path class="cls-1" d="M705.92,349.85v75.4H688.69V395.3H665v29.95H647.76v-75.4H665v28.87h23.7V349.85Z"/><path class="cls-1" d="M750.09,371.39c0-3.77-2.48-6.24-8-6.24-5.93,0-9.48,4-11.63,9l-14.87-8.51c4.74-11.09,15.19-17.34,27.14-17.34,12.28,0,24.56,7.54,24.56,21.55,0,16-17.23,21-17.23,28.43H732.86C732.86,385.72,750.09,380.87,750.09,371.39Zm-18.85,45.13a10.23,10.23,0,1,1,10.23,10.24A10.29,10.29,0,0,1,731.24,416.52Z"/></g></g></svg>