<svg xmlns="http://www.w3.org/2000/svg" viewBox="0 0 321.1 107.82"><defs><style>.cls-1{fill:#06d9fe;}.cls-2{fill:#10dafd;}</style></defs><g id="Layer_2" data-name="Layer 2"><g id="Layer_1-2" data-name="Layer 1"><path class="cls-1" d="M25,8.15a24,24,0,0,1,3.15-5.09,12.22,12.22,0,0,1,8-3L37.89.1A43.53,43.53,0,0,1,52.12,6.2l2.72,2,5.31,4.49c.51.77,1,.39,1.46,0,1.68-1.51,3.38-3,5.07-4.5a4,4,0,0,0,1.58-1.18,91,91,0,0,1,7.9-4.57A26.88,26.88,0,0,1,84.33,0l3.44.09a23.17,23.17,0,0,1,4.56,2.15,19.75,19.75,0,0,1,4,5.87,65.12,65.12,0,0,1,1.6,8.05l-.23,8q-.64,4-1.28,8c-.54.93-.51,1.62.73,1.91s2.18.61,3.27.91l8,3.49,3.13,1.76L116.46,44,120,48.33a12.93,12.93,0,0,1,1.26,8,19,19,0,0,1-4.58,7.11,45.47,45.47,0,0,1-8.2,5.92l-6.58,3-1.46.5c-1,.3-2,.63-3.06.9-.76.21-1.13.58-.93,1.43.41,1.75.77,3.5,1.16,5.26q.27,4,.56,8a59.54,59.54,0,0,1-.77,8,22.53,22.53,0,0,1-3.89,8l-1.18,1.1a13.25,13.25,0,0,1-8,2.2,37.26,37.26,0,0,1-8-2.14A6.54,6.54,0,0,0,74,104.53l-5.71-3.61-5.47-4.44c-.83-.57-1.17-2.51-2.72-1a96.84,96.84,0,0,1-7.9,6.4l-4.48,2.7-3.57,1.63a33.91,33.91,0,0,1-8,1.66,12.36,12.36,0,0,1-8-3.16l-.07-.07A21.22,21.22,0,0,1,24,96.52c-.23-2.69-.45-5.37-.67-8.06l.75-8c1.5-7.64,2.69-5.39-4.11-7.72l-1.07-.41L12,69a52.9,52.9,0,0,1-8.11-6.25A22.11,22.11,0,0,1,.24,56.33a12.19,12.19,0,0,1,1.23-8L3.91,45,9.65,40.3,12,39,20,35.34c1.45-.44,2.88-1,4.35-1.3,1.22-.28,1.27-.9.78-1.83l-1.42-8.07-.24-8A53,53,0,0,1,25,8.15Zm35.2,13.49a8.62,8.62,0,0,0-2,2.17,39.6,39.6,0,0,0-4.54,5.63l6.56-.3a56,56,0,0,0,7.53.14,36.59,36.59,0,0,0-4.19-5.17c-.74-.9-1.49-1.8-2.24-2.69C60.83,20.83,60.45,21,60.17,21.64Zm5.51-5.55c-1.16.5-1.29,1.13-.35,2s1.9,2,2.84,3a14.44,14.44,0,0,0,2.46,3.05C71.77,25.78,72.94,27.36,74,29a2.11,2.11,0,0,0,2.2.94C79,30.22,81.59,31,84.33,31c1.82.4,3.65.79,5.47,1.21.82.18,1.23-.1,1.39-.94a38.07,38.07,0,0,0,1.08-7.11l.14-1.91a13,13,0,0,0,0-5.86.19.19,0,0,0,0-.27,14.08,14.08,0,0,0-2.12-8c-1.26-2.52-3.38-3.14-6-2.72a16.29,16.29,0,0,0-7.71,2.68.41.41,0,0,0-.33.13,37.08,37.08,0,0,0-8.45,5.93A7.29,7.29,0,0,0,65.68,16.09ZM33.08,40.28a48.43,48.43,0,0,0,2.4,6.62c.08.22.22.72.62.23l3.83-6.8a26.16,26.16,0,0,0,2.74-4.69,30.91,30.91,0,0,0-6.58,1C31.7,37.05,31.68,37.07,33.08,40.28ZM67.5,78.93l.23-.26-.29-.1a45.69,45.69,0,0,0-7.21.13,38.48,38.48,0,0,0-6.61-.14l1.7,1.9a35.38,35.38,0,0,0,4.85,5.72c.52,1,1.07.71,1.62,0a52.55,52.55,0,0,0,4.57-5.72A3.08,3.08,0,0,0,67.5,78.93ZM55.9,16.08a17.09,17.09,0,0,0-3.73-3.16,35.75,35.75,0,0,0-8.31-5.38,16.31,16.31,0,0,0-7.76-2.1A4.66,4.66,0,0,0,31,8a14.51,14.51,0,0,0-2.16,8.12,28.15,28.15,0,0,0,.32,8c.1,1,.14,2,.32,2.95,1,5.39,1,5.39,6.26,4.21a1.87,1.87,0,0,0,.35-.17l8-1.08c1.16-.13,2.43.17,3.27-1,1.15-1.65,2.35-3.25,3.52-4.87a4.43,4.43,0,0,0,1.26-1.59c1.36-1.51,2.69-3.05,4.09-4.53C57.11,17.17,56.84,16.59,55.9,16.08ZM81.52,40.25,84,44.65a6.6,6.6,0,0,0,1.79,2.83,47.65,47.65,0,0,0,2.66-7.2c1.31-2.78,1.32-2.8-1.55-3.39-.83-.17-1.68-.25-2.52-.38a21.94,21.94,0,0,0-5.84-.83ZM55,88.49a15.85,15.85,0,0,0-2.78-3.28l-3.7-4.77a3.64,3.64,0,0,0-4.32-2.52l-8.08-1c-.64-.15-1.28-.33-1.93-.44-4-.72-4.53-.28-4.5,4a26,26,0,0,0-.83,8,19.05,19.05,0,0,0,.83,8c.84,4.08,3,6,6.44,5.92a13.64,13.64,0,0,0,8-2.32,17.33,17.33,0,0,0,6.16-3.54,5.58,5.58,0,0,0,1.88-1.34c1-.78,2-1.53,3-2.35,2.37-2.07,2.36-2.09,0-4.32C55.1,88.53,55,88.52,55,88.49ZM76.27,78c-2-.34-2.36,1.31-3.14,2.48-1.94,2.44-3.84,4.92-5.84,7.31-2.86,3.45-2.89,3.42.77,6.21a.85.85,0,0,0,.19.06,12.62,12.62,0,0,0,3.21,2.5,17.93,17.93,0,0,0,4.82,3.11,17.65,17.65,0,0,0,8.06,2.79c4,.41,6.23-1.31,7.44-5.86a28.26,28.26,0,0,0,.68-13,7.45,7.45,0,0,0-.41-3.11c0-.39,0-.79-.07-1.18-.56-3.82-.56-3.82-4.36-3l-3.29.7Zm24.15-10.86a21.67,21.67,0,0,0,5.76-2.7,6.26,6.26,0,0,0,2.28-1.31c2.88-1.67,5.46-3.66,7-6.73s.74-5.3-2.41-8.13a14.33,14.33,0,0,0-4.58-3.52,30.35,30.35,0,0,0-8-3.9c-1.37-.5-2.75-1-4.1-1.53s-2-.28-2.45,1.19a70.78,70.78,0,0,1-4.36,11.13c-.87,1.75-.9,3.23.34,4.73A37.09,37.09,0,0,0,92.35,62a6.47,6.47,0,0,0,.88,2.37c2,5.88.4,5.15,6.31,3.21A7.36,7.36,0,0,0,100.42,67.11ZM30.36,48.28,28.08,42.5c-.16-.64-.37-1.26-.48-1.91-.26-1.65-1.09-2.05-2.62-1.4s-3.32,1.28-5,1.92a28.75,28.75,0,0,0-8.09,4.21,10.75,10.75,0,0,0-3.62,2.94c-3,2.79-3.69,5.12-2.31,8.06a14.24,14.24,0,0,0,5.92,6.2,9.2,9.2,0,0,0,2.9,1.85A18.32,18.32,0,0,0,20,66.89a32,32,0,0,0,5.74,2.21c.68.23,1.27.29,1.54-.64,1.17-4.16,3-8.07,4.45-12.13a3.48,3.48,0,0,0,.38-4.3C31.38,50.84,30.92,49.53,30.36,48.28ZM36.1,71.45a41.35,41.35,0,0,0,6.91.94l-4.92-8a20.14,20.14,0,0,0-2.18-4,2.8,2.8,0,0,0-.43.56c-.76,2-1.54,4-2.26,5.94C31.79,70.83,31.81,70.83,36.1,71.45ZM40,56.39A39.43,39.43,0,0,0,44,63.78l.33.65a79.7,79.7,0,0,0,4.8,7.86A2,2,0,0,0,51,73.2a168.45,168.45,0,0,0,19.46,0c.65-.05,1.38.07,1.69-.75a119.66,119.66,0,0,0,9.34-16.07c.62-1,1.68-2,.91-3.37q-1.29-2.34-2.57-4.68a33.59,33.59,0,0,0-3.54-6.12,4.91,4.91,0,0,0-1.15-1.94c-.49-.85-1-1.66-1.46-2.55-1.1-2.36-2.79-3.53-5.46-3-2.68-.1-5.36-.57-8-.15a52.38,52.38,0,0,0-8,.19,3.09,3.09,0,0,0-3.71,1.82C47.82,37.83,47,39,46.24,40.26A15.13,15.13,0,0,0,44,44.05a14.42,14.42,0,0,0-2.39,4.21c-.64,1.15-1.21,2.36-1.94,3.45A3.46,3.46,0,0,0,40,56.39ZM84.34,71.47c1.36-.23,2.72-.5,4.09-.69,1.07-.15,1.3-.64.89-1.62-.66-1.58-1.24-3.19-1.86-4.79a13.93,13.93,0,0,0-1.85-4.23l-7,12.14A29.42,29.42,0,0,0,84.34,71.47Z"/><path class="cls-2" d="M312.26,32.22l.07,8c-.36,1.47.18,2.08,1.71,1.91,1.16-.14,2.36.16,3.53-.19,2.72-.14,1.92,1.84,2.12,3.36.25,1.87-1,1.8-2.15,1.89s-2.53,0-3.79-.11c-1.1-.08-1.55.3-1.52,1.45.08,2.59.07,5.18.1,7.77v8.05c0,2.68-.54,5.4.43,8,1.06,2.22,2.15,2.66,4.78,1.93.86,0,1.38-.77,2.25-1,.22.46.45.92.65,1.4,1.2,3,.95,3.55-2.21,4.51a11.32,11.32,0,0,1-8.74-.72c-2-1.57-2.75-3.77-3.19-6.14q0-4-.05-8V48.28c.23-.88-.14-1.22-1-1.18-1.26,0-2.52.06-3.78.09-.56-.13-1.09-.12-1.23-1-.55-3.46-.11-4.06,3.31-4.06a9.61,9.61,0,0,1,1.2,0c1.36.18,1.69-.47,1.65-1.73-.09-2.73-.05-5.47-.06-8.2l3.15-.31Z"/><path class="cls-1" d="M60.21,64.75c-.88-.21-1.89.35-2.67-.45a17.05,17.05,0,0,1-5.34-3.62,20.64,20.64,0,0,1-2.13-4.35,12.43,12.43,0,0,1,1.23-8l.94-1.41a12.49,12.49,0,0,1,8-3.93,12.43,12.43,0,0,1,8,2.93l2,2.43a14,14,0,0,1,1.21,8A16.62,16.62,0,0,1,68.2,61.8Q66.1,63.06,64,64.33Z"/><path class="cls-2" d="M296.25,72.4c.77.69.92,1.34,0,2.09s-1.93,1.78-2.89,2.68A19.87,19.87,0,0,1,279,79.24c-.8-.17-1.53-.88-2.45-.42-3-1.1-5-3.55-7.22-5.65l-.55-.77a25.92,25.92,0,0,1-3.26-8.12,30.3,30.3,0,0,1,.05-8,25.61,25.61,0,0,1,3.32-8l.47-.62A21.91,21.91,0,0,1,277.38,42c5.57-1.46,10.95-1.23,16,1.75,1,.94,2,1.88,3,2.81.55.51.74,1,.18,1.66l-3.14,2.58c-1.09-.78-1.71-2.11-3.05-2.6a7.72,7.72,0,0,0-5-1.82,11,11,0,0,0-8.12,1.79,11.5,11.5,0,0,0-5.51,8.12,15,15,0,0,0,0,8c1.15,6.73,7.48,11.41,13.66,10.1a7.68,7.68,0,0,0,5.27-2c1.18-.53,1.77-1.72,2.76-2.46Z"/><path class="cls-2" d="M164.71,28.41C171,30,175,33.89,176.46,40.25a28.91,28.91,0,0,1-.43,8,23.31,23.31,0,0,1-3.25,5.61l-3,2.39c-1.7.54-3.28,1.52-5.11,1.64-1.16.07-1.2.53-.62,1.35,1.19,1.69,2.36,3.39,3.54,5.08a70.77,70.77,0,0,0,5.18,7.76.28.28,0,0,0,.16.29c1.29,2.07,2.58,4.14,4.08,6.52h-4.2c-2.65.43-4-1-5.29-3.16-2.32-3.9-4.9-7.64-7.37-11.45a31.79,31.79,0,0,0-3.4-5.27c-2.67-.71-5.38-.23-8.07-.27-1.64-.36-2.57,0-2.29,2,.16,1.18.13,2.4.18,3.59a39.06,39.06,0,0,0,0,8.09c0,1.6-.17,3.2-.13,4.8,0,1.18-.29,1.71-1.57,1.63-1.53-.09-3.08,0-4.62,0-.07-2.16-.13-4.32-.2-6.47a59.77,59.77,0,0,0,0-8,60.07,60.07,0,0,0,0-8.05,67.23,67.23,0,0,0,0-8,60.07,60.07,0,0,0,0-8,59.62,59.62,0,0,0,0-8c.45-1.38-.45-2.95.6-4.25a65.36,65.36,0,0,0,8,0,60.07,60.07,0,0,0,8.05,0C159.37,28.23,162.06,27.89,164.71,28.41ZM146.55,48.26c-.06.9-.05,1.82-.18,2.71-.27,1.9.51,2.52,2.3,2a59.77,59.77,0,0,0,8,0c2.75.14,5.53.46,8.05-1.1a6.84,6.84,0,0,0,3.92-3.6,9.27,9.27,0,0,0,.77-8.06,7.54,7.54,0,0,0-4.66-5.34c-2.54-1.49-5.32-1.16-8.08-1.07h-8c-1.74-.59-2.5,0-2.3,1.86.16,1.52-.18,3.07.19,4.59A40.15,40.15,0,0,0,146.55,48.26Z"/><path class="cls-2" d="M214.43,72.47c1.92,2.21-.62,2.66-1.49,3.76-8.06,4.72-16.09,4.93-24.07-.2l-3.5-3.66a28.5,28.5,0,0,1-3.24-8,39.09,39.09,0,0,1,.12-8,27.35,27.35,0,0,1,3.42-8L188.88,45A33.37,33.37,0,0,1,192.13,43q11.52-5.14,20.82,3.42l1.46,1.89a28.56,28.56,0,0,1,3.12,8c.07.65.16,1.31.22,2,.37,4,.36,4-3.58,4.06a11.71,11.71,0,0,0-1.18.09H188.88c-1.12-.17-.8.65-.71,1.14.66,3.55,2,6.7,5.12,8.83a7.48,7.48,0,0,0,3.61,1.9,12.21,12.21,0,0,0,8.07.16,9.32,9.32,0,0,0,4.88-2c1.24-.31,1.81-1.69,3.1-1.93Zm-2.34-14.92a1.5,1.5,0,0,0-.2-1.25,11.61,11.61,0,0,0-15-9.94,6.92,6.92,0,0,0-3.92,2c-2.87,2-4.17,4.95-4.83,8.24-.1.51-.55,1.47.72,1.37H211.8C212.08,57.94,212.14,57.79,212.09,57.55Z"/><path class="cls-2" d="M256,56.32V72.4c0,1.2-.08,2.41-.09,3.61,0,2.75,0,2.75-2.69,2.94-3-.23-3-.23-3.26-3.67l-4.79,3.16a25,25,0,0,1-8,1.4,16.63,16.63,0,0,1-8-3.07,19.91,19.91,0,0,1-3.26-4.37,16.65,16.65,0,0,1-.54-8,14.14,14.14,0,0,1,3.77-6.11,16.28,16.28,0,0,1,8-2.89c4.77,0,9.15,1.09,12.87,4.68V56.33c.44-6-1.84-9.31-7-10A14.51,14.51,0,0,0,230.74,50c-.45.41-.75,1.19-1.61.92a14.25,14.25,0,0,0-2-3.05c-.22-1.56,1.44-1.78,2-2.78a26,26,0,0,1,8-3.63,39.19,39.19,0,0,1,8-.08,16,16,0,0,1,8,3.86l1.92,3.11A29.37,29.37,0,0,1,256,56.32ZM237.12,75.19a11.64,11.64,0,0,0,8-.51,7.76,7.76,0,0,0,3.64-2.26,2.44,2.44,0,0,0,1.29-2.29c-.07-1.92-.08-3.84-.11-5.76-.88-2.15-2.74-3.05-4.77-3.72a11.42,11.42,0,0,0-8.07-.6,7.19,7.19,0,0,0-5.42,4.24c-1.26,2.9-1.14,5.63.95,8.13A6.44,6.44,0,0,0,237.12,75.19Z"/></g></g></svg>