<svg xmlns="http://www.w3.org/2000/svg" xmlns:xlink="http://www.w3.org/1999/xlink" viewBox="0 0 87 86.85"><defs><style>.cls-1{fill:url(#Orange);}.cls-2{fill:url(#Orange-2);}.cls-3{fill:url(#Orange-3);}</style><linearGradient id="Orange" y1="43.43" x2="87" y2="43.43" gradientUnits="userSpaceOnUse"><stop offset="0" stop-color="#f69453"/><stop offset="0.5" stop-color="#f37521"/><stop offset="1" stop-color="#d4622a"/></linearGradient><linearGradient id="Orange-2" x1="15.66" y1="41.16" x2="71.36" y2="41.16" xlink:href="#Orange"/><linearGradient id="Orange-3" x1="38.9" y1="54.97" x2="55.27" y2="54.97" xlink:href="#Orange"/></defs><g id="Layer_2" data-name="Layer 2"><g id="Layer_1-2" data-name="Layer 1"><path class="cls-1" d="M87,46.74c-1.06,4.3-1.56,8.84-3.26,12.86C77,75.43,65,84.6,47.8,86.58,25.5,89.15,4.09,73.35.48,49.81c-.15-1-.32-2.05-.48-3.07V40.05c.8-3.63,1.18-7.41,2.48-10.85C8.89,12.24,21.11,2.2,39.2.25A43.16,43.16,0,0,1,86.55,37.17L87,40.05ZM3.38,43.28a40.13,40.13,0,1,0,40.09-40A40.12,40.12,0,0,0,3.38,43.28Z"/><path class="cls-2" d="M60,66l-2.48-3.34C65.82,55.84,68.64,47.19,66,36.48c-.94.49-1.72.91-2.51,1.3-1.81.9-3.28.6-4.08-.82s-.3-2.94,1.58-4c.79-.45,1.59-.89,2.38-1.32-1.63-5.17-10.63-11.13-17.22-11.21,0,1.07.05,2.15,0,3.22a2.51,2.51,0,0,1-2.7,2.73c-1.75,0-2.6-1.07-2.67-2.76,0-1,0-2.08,0-3.1C34.8,20.08,25.88,26,23.19,32c1.11.66,2.26,1.29,3.35,2,1.53,1,2,2.54,1.12,3.85a2.63,2.63,0,0,1-3.78.88c-.92-.48-1.81-1-2.72-1.54-2.67,6.15-1.38,18.4,9,25.93l-2.23,3.33c-7.08-4-14.27-15-11.76-28.26C18.37,26.55,28.73,17,40.19,16c13.44-1.14,24.91,5.85,29.42,17.93A27.8,27.8,0,0,1,60,66Z"/><path class="cls-3" d="M55.27,46.67c-2.33,4.74-4.55,9.54-7,14.2a4.74,4.74,0,0,1-5.79,2.53c-2.31-.77-4-2.79-3.46-5a7,7,0,0,1,2.47-4C45.82,51.51,50.4,49,54.89,46.3Z"/></g></g></svg>