<svg xmlns="http://www.w3.org/2000/svg" viewBox="0 0 51.3 65.84"><defs><style>.cls-1{fill:#bd1f38;}</style></defs><g id="Layer_2" data-name="Layer 2"><g id="Layer_1-2" data-name="Layer 1"><path class="cls-1" d="M39.47,22.88c-1.28,1.43-2.27,2.62-3.37,3.7-.31.31-1,.29-1.44.42,0-.54-.22-1.28.05-1.61,1.59-1.93,3.28-3.78,4.95-5.64.59-.66,1.17-.51,1.72.1,1.5,1.67,3,3.29,4.48,5,.28.34.1,1.06.13,1.61-.5-.11-1.14-.06-1.47-.36-1-.91-1.84-1.95-2.91-3.1-.24,1.69-.46,3.15-.65,4.62a5.74,5.74,0,0,1-3.81,5A99.9,99.9,0,0,1,25.68,36a102,102,0,0,1-10.22,1.34c-4.57.53-6.6,3.11-6.05,7.67.05.43-.39.92-.6,1.38-.42-.35-1.12-.63-1.21-1-.85-4,.63-7.82,5.16-9.19,2.51-.76,5.23-.8,7.83-1.28,4.19-.78,8.43-1.43,12.53-2.56C38.38,30.87,39.58,28.91,39.47,22.88Z"/><path class="cls-1" d="M42.8,0a8.56,8.56,0,0,1,8.5,8.57,8.52,8.52,0,0,1-17,0A8.56,8.56,0,0,1,42.8,0Zm0,1.89a6.41,6.41,0,0,0-6.64,6.59,6.64,6.64,0,0,0,13.27.15A6.4,6.4,0,0,0,42.78,1.89Z"/><path class="cls-1" d="M17.09,57.42a8.62,8.62,0,0,1-8.68,8.42A8.72,8.72,0,0,1,0,57.26a8.84,8.84,0,0,1,8.65-8.57A8.76,8.76,0,0,1,17.09,57.42Zm-1.86-.13A6.52,6.52,0,0,0,8.6,50.64,6.67,6.67,0,0,0,8.46,64,6.56,6.56,0,0,0,15.23,57.29Z"/><path class="cls-1" d="M24.12,49a37.22,37.22,0,0,1-3-2.68c-.26-.3-.11-1-.14-1.48.5.06,1.15-.05,1.46.23A33.82,33.82,0,0,1,25,47.81a34.4,34.4,0,0,1,2.51-2.75c.31-.27,1-.14,1.47-.19,0,.5.1,1.17-.16,1.47A34,34,0,0,1,26,48.86a28.62,28.62,0,0,1,2.63,2.45c.32.36.26,1,.37,1.58-.57-.1-1.29,0-1.68-.33-.79-.66-1.39-1.53-2.8-2.6A16.76,16.76,0,0,1,23,52.13c-.53.55-1.12,1.78-2.1.74s.19-1.5.75-2A28.08,28.08,0,0,1,24.12,49Z"/><path class="cls-1" d="M20.46,26.36A27.79,27.79,0,0,1,18,29c-.36.3-1.07.17-1.62.23.09-.52,0-1.17.3-1.51a35.09,35.09,0,0,1,2.75-2.62,32.28,32.28,0,0,1-2.72-2.32c-.3-.32-.23-1-.33-1.49.55.05,1.26-.09,1.61.2a28.91,28.91,0,0,1,2.59,2.85,33.6,33.6,0,0,1,2.37-2.88c.32-.3,1-.21,1.52-.3-.07.55,0,1.25-.25,1.61a27.29,27.29,0,0,1-2.63,2.5,29.79,29.79,0,0,1,2.65,2.46c.29.33.22,1,.31,1.49-.55-.06-1.26.08-1.61-.21A27.94,27.94,0,0,1,20.46,26.36Z"/><path class="cls-1" d="M41.07,39.67a24.75,24.75,0,0,1-2.63-2.32c-.34-.4-.28-1.14-.4-1.72a4.7,4.7,0,0,1,1.73.47,26.84,26.84,0,0,1,2.49,2.55,17.71,17.71,0,0,1,2-2.5c.43-.37,1.21-.33,1.84-.48C46,36.26,46,37,45.61,37.4a23.31,23.31,0,0,1-2.54,2.26c1,.84,1.67,1.39,2.31,2s1.55,1.21.65,2-1.51-.18-2.05-.76-1.1-1.38-1.86-2.37a26.34,26.34,0,0,1-2.41,2.72c-.4.33-1.14.27-1.72.39.15-.58.12-1.31.47-1.72A24.18,24.18,0,0,1,41.07,39.67Z"/></g></g></svg>