<svg xmlns="http://www.w3.org/2000/svg" xmlns:xlink="http://www.w3.org/1999/xlink" viewBox="0 0 84.17 84.55"><defs><style>.cls-1{fill:url(#Orange);}.cls-2{fill:url(#Orange-2);}.cls-3{fill:url(#Orange-3);}.cls-4{fill:url(#Orange-4);}.cls-5{fill:url(#Orange-5);}.cls-6{fill:url(#Orange-6);}.cls-7{fill:url(#Orange-7);}.cls-8{fill:url(#Orange-8);}.cls-9{fill:url(#Orange-9);}.cls-10{fill:url(#Orange-10);}.cls-11{fill:url(#Orange-11);}.cls-12{fill:url(#Orange-12);}.cls-13{fill:url(#Orange-13);}.cls-14{fill:url(#Orange-14);}.cls-15{fill:url(#Orange-15);}.cls-16{fill:url(#Orange-16);}.cls-17{fill:url(#Orange-17);}.cls-18{fill:url(#Orange-18);}.cls-19{fill:url(#Orange-19);}.cls-20{fill:url(#Orange-20);}.cls-21{fill:url(#Orange-21);}</style><linearGradient id="Orange" x1="36.82" y1="5.28" x2="47.36" y2="5.28" gradientUnits="userSpaceOnUse"><stop offset="0" stop-color="#f69453"/><stop offset="0.5" stop-color="#f37521"/><stop offset="1" stop-color="#d4622a"/></linearGradient><linearGradient id="Orange-2" x1="36.06" y1="79.25" x2="48.12" y2="79.25" xlink:href="#Orange"/><linearGradient id="Orange-3" x1="74.02" y1="42.3" x2="84.17" y2="42.3" xlink:href="#Orange"/><linearGradient id="Orange-4" x1="0" y1="42.28" x2="10.4" y2="42.28" xlink:href="#Orange"/><linearGradient id="Orange-5" x1="27.63" y1="42.28" x2="56.63" y2="42.28" xlink:href="#Orange"/><linearGradient id="Orange-6" x1="5.3" y1="65.21" x2="33.16" y2="65.21" xlink:href="#Orange"/><linearGradient id="Orange-7" x1="5.13" y1="19.23" x2="33.08" y2="19.23" xlink:href="#Orange"/><linearGradient id="Orange-8" x1="51.19" y1="65.24" x2="78.84" y2="65.24" xlink:href="#Orange"/><linearGradient id="Orange-9" x1="51.25" y1="19.36" x2="78.84" y2="19.36" xlink:href="#Orange"/><linearGradient id="Orange-10" x1="21.13" y1="22.47" x2="23.59" y2="22.47" xlink:href="#Orange"/><linearGradient id="Orange-11" x1="60.6" y1="22.47" x2="63.03" y2="22.47" xlink:href="#Orange"/><linearGradient id="Orange-12" x1="15.87" y1="42.31" x2="18.28" y2="42.31" xlink:href="#Orange"/><linearGradient id="Orange-13" x1="21.12" y1="42.26" x2="23.53" y2="42.26" xlink:href="#Orange"/><linearGradient id="Orange-14" x1="60.63" y1="42.26" x2="63.1" y2="42.26" xlink:href="#Orange"/><linearGradient id="Orange-15" x1="65.84" y1="42.26" x2="68.25" y2="42.26" xlink:href="#Orange"/><linearGradient id="Orange-16" x1="21.14" y1="62.06" x2="23.57" y2="62.06" xlink:href="#Orange"/><linearGradient id="Orange-17" x1="60.62" y1="62.1" x2="63.02" y2="62.1" xlink:href="#Orange"/><linearGradient id="Orange-18" x1="41" y1="17.19" x2="43.17" y2="17.19" xlink:href="#Orange"/><linearGradient id="Orange-19" x1="40.99" y1="22.45" x2="43.34" y2="22.45" xlink:href="#Orange"/><linearGradient id="Orange-20" x1="40.83" y1="62.11" x2="43.22" y2="62.11" xlink:href="#Orange"/><linearGradient id="Orange-21" x1="40.92" y1="67.39" x2="43.19" y2="67.39" xlink:href="#Orange"/></defs><g id="Layer_2" data-name="Layer 2"><g id="Layer_1-2" data-name="Layer 1"><path class="cls-1" d="M46.6,0a7,7,0,0,1,.71,2c.09,2.25,0,4.5,0,6.76,0,1.26-.54,1.82-1.8,1.8-2.32,0-4.63,0-7,0-1.12,0-1.79-.4-1.79-1.62,0-2.44,0-4.88,0-7.31A5,5,0,0,1,37.58,0Zm-2,7.92V2.79h-5V7.92Z"/><path class="cls-2" d="M36.07,84.55c.06-.91-.18-2,.23-2.71,1.38-2.37,3-4.6,4.5-6.9.87-1.32,1.7-1.3,2.56,0,1.51,2.29,3.13,4.52,4.51,6.89.41.71.17,1.8.23,2.71Zm3.26-2.82h5.52l-2.76-4.09Z"/><path class="cls-3" d="M84.17,46.6c-.82,1.17-1.73,1.06-2.62.12S80.06,45,79.17,44a23.66,23.66,0,0,1-2.9,2.68c-.57.37-1.49.21-2.25.29a6.06,6.06,0,0,1,.53-2.07A25.17,25.17,0,0,1,77,42.28a23.61,23.61,0,0,1-2.56-2.78c-.36-.52-.24-1.37-.33-2.07.72.12,1.63,0,2.11.4a19.27,19.27,0,0,1,2.37,2.81c1.18-1.13,2-1.85,2.78-2.66a1.94,1.94,0,0,1,2.79-.4V38.7l-3.25,3.58,3.25,3.56Z"/><path class="cls-4" d="M0,41.34a16.44,16.44,0,0,1,.94-1.82,5,5,0,0,1,5.87-2.15,5.32,5.32,0,0,1,3.58,5.19,5.52,5.52,0,0,1-3.94,4.75A5.1,5.1,0,0,1,.66,44.53C.43,44.1.22,43.65,0,43.21Zm5.12,3.57a2.45,2.45,0,0,0,2.74-2.42,2.48,2.48,0,0,0-2.49-2.86,2.45,2.45,0,0,0-2.73,2.43A2.43,2.43,0,0,0,5.12,44.91Z"/><path class="cls-5" d="M47.91,43.16l5.83,3.39A5.31,5.31,0,0,1,56,53.88a4.47,4.47,0,0,1-4.39,2.88c-6.31,0-12.62,0-18.94,0-2.77,0-4.54-1.87-4.91-4.6s.35-4.73,3.12-5.89a47.66,47.66,0,0,0,5.4-3.08,13.35,13.35,0,0,1-1.73-9.68c.86-3.85,3.37-5.73,7.8-5.67,4.17.06,6.58,2,7.33,5.8A13.52,13.52,0,0,1,47.91,43.16Zm-6,11h9.75c1,0,2,0,2.09-1.3S54.78,50,53,49s-3.51-1.92-5.2-3a3.22,3.22,0,0,0-3.41-.36,5,5,0,0,1-3.79.19c-2.14-1.08-3.65-.25-5.3.8-1.32.83-2.67,1.63-4,2.34-1.76.91-.93,2.33-.82,3.61s1,1.51,2.13,1.5C35.64,54.09,38.77,54.11,41.89,54.11ZM36.64,36a31.56,31.56,0,0,0,.78,4A4.76,4.76,0,0,0,42,43.56a4.38,4.38,0,0,0,4.7-3.5A20.35,20.35,0,0,0,47,33.45a3.58,3.58,0,0,0-2.08-2.54C40.32,29.66,36.43,30.33,36.64,36Z"/><path class="cls-6" d="M5.3,52.1l2.33-.68c4,13,12.43,21.46,25.53,25.45L32.63,79C21.23,76.91,9,66.28,5.3,52.1Z"/><path class="cls-7" d="M5.13,32.48C9.56,18.62,18.44,9.64,32.2,5.29c.24.52.42.89.56,1.28s.2.7.32,1.14A38.05,38.05,0,0,0,17,17,38.89,38.89,0,0,0,7.59,33.18Z"/><path class="cls-8" d="M51.65,79l-.46-1.57c4.24-2.31,8.5-4.15,12.24-6.75,6.12-4.26,10.1-10.29,12.46-17.36.75-2.25.81-2.26,3-1.19C75.43,65.59,63.79,76.5,51.65,79Z"/><path class="cls-9" d="M51.25,7.68l.39-2c9.6-.28,24.23,14.16,27.2,26.7-2.18,1.11-2.19,1.1-3-1.11Q70.07,14.35,53.23,8.41C52.6,8.19,52,8,51.25,7.68Z"/><path class="cls-10" d="M21.13,23.64V21.31h2.46v2.33Z"/><path class="cls-11" d="M63,21.32v2.3H60.6v-2.3Z"/><path class="cls-12" d="M18.28,43.51H15.87V41.1h2.41Z"/><path class="cls-13" d="M21.12,43.46v-2.4h2.41v2.4Z"/><path class="cls-14" d="M63.1,41.08v2.36H60.63V41.08Z"/><path class="cls-15" d="M65.84,43.46V41.05h2.41v2.41Z"/><path class="cls-16" d="M21.14,60.89h2.43v2.34H21.14Z"/><path class="cls-17" d="M63,63.27h-2.4V60.94H63Z"/><path class="cls-18" d="M43.17,18.37H41V16h2.17Z"/><path class="cls-19" d="M41,21.3h2.24l.11,2.29H41Z"/><path class="cls-20" d="M43.22,61v2.27H41L40.83,61Z"/><path class="cls-21" d="M40.92,68.55V66.23h2.27v2.32Z"/></g></g></svg>