<svg xmlns="http://www.w3.org/2000/svg" xmlns:xlink="http://www.w3.org/1999/xlink" viewBox="0 0 1727.33 770.94"><defs><style>.cls-1{fill:#4d4d4d;}.cls-2{fill:#0f176f;}.cls-3{fill:url(#Orange);}.cls-4{fill:url(#Orange-2);}.cls-5{fill:url(#Orange-3);}.cls-6{fill:url(#Orange-4);}.cls-7{fill:url(#Orange-5);}.cls-8{fill:url(#Orange-6);}.cls-9{font-size:27.57px;}.cls-10,.cls-9{fill:#fff;font-family:Poppins-SemiBold, Poppins;font-weight:600;}.cls-10{font-size:20.78px;}</style><linearGradient id="Orange" y1="658.67" x2="211.21" y2="658.67" gradientUnits="userSpaceOnUse"><stop offset="0" stop-color="#f69453"/><stop offset="0.5" stop-color="#f37521"/><stop offset="1" stop-color="#d4622a"/></linearGradient><linearGradient id="Orange-2" x1="557.53" y1="105.6" x2="768.73" y2="105.6" xlink:href="#Orange"/><linearGradient id="Orange-3" x1="962.47" y1="110.11" x2="1173.67" y2="110.11" xlink:href="#Orange"/><linearGradient id="Orange-4" x1="1311.9" y1="311.4" x2="1523.1" y2="311.4" xlink:href="#Orange"/><linearGradient id="Orange-5" x1="1516.12" y1="665.33" x2="1727.33" y2="665.33" xlink:href="#Orange"/><linearGradient id="Orange-6" x1="207.05" y1="309.27" x2="418.26" y2="309.27" xlink:href="#Orange"/></defs><g id="Layer_2" data-name="Layer 2"><g id="Layer_1-2" data-name="Layer 1"><polygon class="cls-1" points="88.93 757.95 84.39 757.16 84.48 756.59 89.02 757.39 88.93 757.95"/><polygon class="cls-1" points="89.12 756.83 84.58 756.03 84.68 755.47 89.22 756.25 89.12 756.83"/><path class="cls-1" d="M94.69,728.17l-4.5-1c2-9.34,4.19-18.77,6.53-28l4.46,1.12C98.86,709.51,96.68,718.89,94.69,728.17Z"/><polygon class="cls-1" points="1640.52 708.77 1640.38 708.22 1644.86 707.13 1645 707.7 1640.52 708.77"/><polygon class="cls-1" points="1640.25 707.66 1640.11 707.1 1644.59 706.02 1644.72 706.57 1640.25 707.66"/><path class="cls-1" d="M1639.43,704.32c-2.27-9.21-4.74-18.52-7.35-27.65l4.43-1.27c2.62,9.19,5.11,18.55,7.4,27.82Z"/><polygon class="cls-1" points="101.89 697.53 97.42 696.39 97.57 695.83 102.03 696.98 101.89 697.53"/><rect class="cls-1" x="99.73" y="693.26" width="0.57" height="4.61" transform="translate(-598.48 618.64) rotate(-75.53)"/><path class="cls-1" d="M110,668.29,105.56,667c2.72-9.16,5.65-18.39,8.71-27.44l4.36,1.48C115.6,650,112.68,659.19,110,668.29Z"/><polygon class="cls-1" points="1623.73 649.3 1623.55 648.75 1627.93 647.33 1628.11 647.87 1623.73 649.3"/><rect class="cls-1" x="1623.17" y="646.93" width="4.61" height="0.57" transform="translate(-120.67 537.51) rotate(-18.12)"/><path class="cls-1" d="M1622.3,645c-3-9-6.19-18.1-9.51-27l4.32-1.6c3.34,8.95,6.55,18.08,9.56,27.15Z"/><rect class="cls-1" x="117.18" y="634.97" width="0.58" height="4.61" transform="translate(-523.7 543.36) rotate(-71.22)"/><rect class="cls-1" x="117.56" y="633.88" width="0.58" height="4.61" transform="translate(-522.11 540.92) rotate(-71.04)"/><path class="cls-1" d="M130,609.7l-4.3-1.65c3.44-8.94,7.1-17.93,10.87-26.74l4.23,1.82C137,591.88,133.37,600.82,130,609.7Z"/><rect class="cls-1" x="1602.03" y="589.89" width="4.61" height="0.57" transform="translate(-103.65 660.89) rotate(-22.57)"/><polygon class="cls-1" points="1601.88 590.28 1601.66 589.75 1605.91 587.98 1606.13 588.5 1601.88 590.28"/><path class="cls-1" d="M1600.56,587.12c-3.68-8.73-7.57-17.5-11.56-26.09l4.18-1.95c4,8.64,7.93,17.47,11.62,26.25Z"/><rect class="cls-1" x="139.6" y="577.01" width="0.58" height="4.61" transform="translate(-447.51 478.67) rotate(-66.7)"/><rect class="cls-1" x="140.06" y="575.95" width="0.58" height="4.61" transform="translate(-445.94 476.52) rotate(-66.51)"/><path class="cls-1" d="M154.48,552.82l-4.15-2c4.13-8.62,8.47-17.3,12.92-25.78l4.08,2.14C162.91,535.62,158.59,544.25,154.48,552.82Z"/><rect class="cls-1" x="1576.12" y="533.77" width="4.61" height="0.57" transform="translate(-70.34 775.3) rotate(-27.02)"/><rect class="cls-1" x="1575.6" y="532.75" width="4.61" height="0.57" transform="translate(-69.34 779.02) rotate(-27.16)"/><path class="cls-1" d="M1574.42,531.3c-4.35-8.42-8.92-16.88-13.57-25.13l4-2.27c4.68,8.31,9.27,16.82,13.64,25.28Z"/><rect class="cls-1" x="166.48" y="521.02" width="0.58" height="4.61" transform="translate(-373.92 426.7) rotate(-62.19)"/><rect class="cls-1" x="167.02" y="520" width="0.58" height="4.61" transform="translate(-372.48 425.25) rotate(-62.05)"/><path class="cls-1" d="M183.39,498.07l-4-2.31c4.79-8.27,9.8-16.57,14.89-24.68l3.9,2.46C193.13,481.59,188.15,489.85,183.39,498.07Z"/><polygon class="cls-1" points="1546.38 481.54 1546.08 481.04 1550.01 478.64 1550.31 479.12 1546.38 481.54"/><polygon class="cls-1" points="1545.78 480.56 1545.49 480.07 1549.41 477.66 1549.71 478.15 1545.78 480.56"/><path class="cls-1" d="M1544,477.64c-5-8.05-10.21-16.13-15.5-24l3.83-2.57c5.32,7.93,10.56,16.05,15.58,24.16Z"/><polygon class="cls-1" points="199.72 471.11 195.83 468.65 196.14 468.15 200.03 470.63 199.72 471.11"/><polygon class="cls-1" points="200.34 470.14 196.45 467.67 196.75 467.19 200.65 469.65 200.34 470.14"/><path class="cls-1" d="M216.46,445.77l-3.79-2.61c5.42-7.87,11.06-15.76,16.76-23.43l3.7,2.75C227.46,430.11,221.85,437.94,216.46,445.77Z"/><polygon class="cls-1" points="1512.15 430.19 1511.81 429.72 1515.54 427.02 1515.87 427.47 1512.15 430.19"/><polygon class="cls-1" points="1511.47 429.25 1511.14 428.8 1514.86 426.08 1515.2 426.55 1511.47 429.25"/><path class="cls-1" d="M1509.45,426.49c-5.61-7.65-11.44-15.31-17.32-22.75l3.62-2.86c5.91,7.49,11.77,15.19,17.42,22.88Z"/><rect class="cls-1" x="232.88" y="416.26" width="0.57" height="4.61" transform="matrix(0.6, -0.8, 0.8, 0.6, -241.65, 354.4)"/><polygon class="cls-1" points="235.53 419.26 231.84 416.5 232.18 416.04 235.87 418.8 235.53 419.26"/><path class="cls-1" d="M253.49,396.23l-3.58-2.9c6-7.43,12.24-14.85,18.52-22.05l3.47,3C265.66,381.47,259.47,388.84,253.49,396.23Z"/><polygon class="cls-1" points="1474.01 381.62 1473.63 381.18 1477.14 378.2 1477.51 378.63 1474.01 381.62"/><polygon class="cls-1" points="1473.26 380.74 1472.89 380.31 1476.39 377.32 1476.77 377.76 1473.26 380.74"/><path class="cls-1" d="M1471,378.14c-6.19-7.2-12.59-14.38-19-21.35l3.39-3.13c6.48,7,12.92,14.24,19.14,21.47Z"/><polygon class="cls-1" points="273.79 372.15 270.32 369.12 270.7 368.68 274.17 371.72 273.79 372.15"/><polygon class="cls-1" points="274.54 371.29 271.08 368.25 271.46 367.82 274.92 370.86 274.54 371.29"/><path class="cls-1" d="M294.23,349.73l-3.35-3.17c6.58-6.94,13.36-13.85,20.17-20.54l3.23,3.29C307.51,336,300.76,342.83,294.23,349.73Z"/><polygon class="cls-1" points="1432.19 336.12 1431.79 335.72 1435.06 332.47 1435.47 332.89 1432.19 336.12"/><rect class="cls-1" x="1430.51" y="333.2" width="4.61" height="0.57" transform="translate(182.24 1108.23) rotate(-44.88)"/><path class="cls-1" d="M1429,332.89c-6.73-6.7-13.68-13.37-20.64-19.82l3.13-3.38c7,6.49,14,13.19,20.76,19.93Z"/><polygon class="cls-1" points="316.32 327.31 313.1 324.01 313.52 323.6 316.73 326.91 316.32 327.31"/><polygon class="cls-1" points="317.14 326.51 313.93 323.2 314.33 322.81 317.55 326.11 317.14 326.51"/><path class="cls-1" d="M338.43,306.54l-3.09-3.41c7.08-6.41,14.38-12.77,21.68-18.91l3,3.52C352.73,293.85,345.47,300.17,338.43,306.54Z"/><rect class="cls-1" x="1385.95" y="291.77" width="4.61" height="0.57" transform="matrix(0.65, -0.76, 0.76, 0.65, 261.66, 1154.23)"/><rect class="cls-1" x="1385.08" y="291.03" width="4.61" height="0.57" transform="translate(262.62 1154.21) rotate(-49.35)"/><path class="cls-1" d="M1383.49,291c-7.23-6.16-14.68-12.27-22.12-18.17l2.86-3.61c7.49,5.93,15,12.08,22.25,18.28Z"/><rect class="cls-1" x="360.63" y="281.65" width="0.57" height="4.61" transform="translate(-98.11 297.42) rotate(-39.87)"/><polygon class="cls-1" points="363.06 285.18 360.11 281.63 360.56 281.26 363.49 284.81 363.06 285.18"/><path class="cls-1" d="M385.81,266.93,383,263.28c7.55-5.83,15.32-11.61,23.07-17.16l2.68,3.75C401.05,255.39,393.33,261.13,385.81,266.93Z"/><polygon class="cls-1" points="1338.59 255.47 1338.13 255.14 1340.86 251.42 1341.33 251.76 1338.59 255.47"/><rect class="cls-1" x="1336.5" y="252.48" width="4.61" height="0.58" transform="translate(344.04 1183.75) rotate(-53.79)"/><path class="cls-1" d="M1334.89,252.77c-7.69-5.58-15.6-11.1-23.48-16.4l2.57-3.83c7.93,5.33,15.88,10.88,23.62,16.5Z"/><rect class="cls-1" x="409.69" y="243.86" width="0.57" height="4.61" transform="matrix(0.82, -0.58, 0.58, 0.82, -66.83, 282.61)"/><rect class="cls-1" x="410.63" y="243.19" width="0.57" height="4.61" transform="translate(-66.28 283.03) rotate(-35.35)"/><path class="cls-1" d="M436.1,231.13l-2.52-3.86c8-5.23,16.16-10.38,24.32-15.31l2.39,3.94C452.17,220.81,444,225.93,436.1,231.13Z"/><polygon class="cls-1" points="1287.35 220.81 1286.86 220.52 1289.29 216.6 1289.78 216.9 1287.35 220.81"/><rect class="cls-1" x="1285.04" y="217.81" width="4.61" height="0.58" transform="translate(424.69 1198.23) rotate(-58.26)"/><path class="cls-1" d="M1283.44,218.41c-8.1-5-16.41-9.86-24.7-14.53l2.27-4c8.33,4.7,16.69,9.62,24.84,14.62Z"/><rect class="cls-1" x="461.5" y="210" width="0.57" height="4.61" transform="translate(-43.44 267.71) rotate(-30.95)"/><rect class="cls-1" x="462.49" y="209.42" width="0.57" height="4.61" transform="translate(-43.07 267.49) rotate(-30.88)"/><path class="cls-1" d="M489,199.36l-2.22-4c8.36-4.59,16.92-9.09,25.43-13.37l2.07,4.12C505.81,190.32,497.3,194.79,489,199.36Z"/><rect class="cls-1" x="1232.03" y="187.78" width="4.61" height="0.58" transform="translate(500.74 1198.41) rotate(-62.68)"/><rect class="cls-1" x="1231" y="187.25" width="4.61" height="0.58" transform="translate(502.04 1198.22) rotate(-62.76)"/><path class="cls-1" d="M1229.44,188.15c-8.47-4.33-17.14-8.55-25.77-12.57l1.94-4.17c8.68,4,17.41,8.28,25.93,12.63Z"/><rect class="cls-1" x="515.76" y="180.3" width="0.57" height="4.61" transform="translate(-27.27 249.35) rotate(-26.49)"/><rect class="cls-1" x="516.79" y="179.79" width="0.57" height="4.61" transform="translate(-27.12 248.27) rotate(-26.33)"/><path class="cls-1" d="M544.15,171.82l-1.89-4.2c8.68-3.91,17.56-7.73,26.37-11.33l1.74,4.27C561.61,164.14,552.79,167.93,544.15,171.82Z"/><rect class="cls-1" x="1175.77" y="161.44" width="4.61" height="0.58" transform="translate(571.74 1184.66) rotate(-67.16)"/><rect class="cls-1" x="1174.71" y="161" width="4.61" height="0.58" transform="translate(573.28 1184.45) rotate(-67.26)"/><path class="cls-1" d="M1173.21,162.19c-8.8-3.65-17.78-7.18-26.7-10.5l1.61-4.32c9,3.34,18,6.9,26.85,10.57Z"/><polygon class="cls-1" points="573.03 159.48 571.3 155.21 571.84 154.99 573.55 159.27 573.03 159.48"/><polygon class="cls-1" points="574.09 159.06 572.37 154.78 572.91 154.56 574.61 158.84 574.09 159.06"/><path class="cls-1" d="M601.36,148.66l-1.56-4.33c9-3.24,18.16-6.35,27.26-9.26l1.4,4.39C619.41,142.35,610.29,145.45,601.36,148.66Z"/><rect class="cls-1" x="1117.59" y="139.59" width="4.61" height="0.58" transform="translate(635.56 1159.27) rotate(-71.71)"/><rect class="cls-1" x="1116.49" y="139.23" width="4.61" height="0.58" transform="translate(636.1 1158.43) rotate(-71.76)"/><path class="cls-1" d="M1115.07,140.72c-9-2.93-18.24-5.74-27.37-8.34l1.26-4.44c9.18,2.62,18.45,5.45,27.53,8.4Z"/><rect class="cls-1" x="630.48" y="134.01" width="0.57" height="4.61" transform="translate(-11.82 195.71) rotate(-17.48)"/><rect class="cls-1" x="631.58" y="133.67" width="0.57" height="4.61" transform="translate(-11.72 195.52) rotate(-17.43)"/><path class="cls-1" d="M660.29,130l-1.22-4.45c9.21-2.52,18.6-4.9,27.9-7.08l1,4.48C678.78,125.16,669.45,127.53,660.29,130Z"/><polygon class="cls-1" points="1060.04 125.03 1059.48 124.89 1060.58 120.41 1061.14 120.55 1060.04 125.03"/><polygon class="cls-1" points="1058.92 124.75 1058.37 124.62 1059.46 120.14 1060.02 120.28 1058.92 124.75"/><path class="cls-1" d="M1055.59,123.94c-9.23-2.21-18.63-4.29-27.94-6.17l.91-4.52c9.37,1.89,18.82,4,28.1,6.21Z"/><polygon class="cls-1" points="690.81 122.34 689.78 117.86 690.34 117.73 691.37 122.22 690.81 122.34"/><rect class="cls-1" x="691.41" y="117.48" width="0.57" height="4.61" transform="translate(-9.26 157.81) rotate(-12.93)"/><path class="cls-1" d="M720.49,116.09l-.86-4.52c9.38-1.79,18.92-3.43,28.36-4.88l.7,4.56C739.3,112.69,729.82,114.32,720.49,116.09Z"/><polygon class="cls-1" points="999.5 112.61 998.93 112.52 999.68 107.97 1000.25 108.06 999.5 112.61"/><rect class="cls-1" x="996.15" y="109.82" width="4.61" height="0.57" transform="matrix(0.16, -0.99, 0.99, 0.16, 729.94, 1078.06)"/><path class="cls-1" d="M995,111.88c-9.37-1.49-18.91-2.82-28.34-4l.56-4.58c9.48,1.16,19.07,2.5,28.5,4Z"/><rect class="cls-1" x="751.18" y="106.19" width="0.57" height="4.61" transform="translate(-7.78 112.57) rotate(-8.52)"/><polygon class="cls-1" points="752.66 110.65 751.98 106.09 752.55 106.01 753.22 110.57 752.66 110.65"/><path class="cls-1" d="M781.6,106.9l-.5-4.58c9.48-1,19.12-1.94,28.65-2.65l.35,4.6C800.62,105,791,105.86,781.6,106.9Z"/><rect class="cls-1" x="935.78" y="102.35" width="4.61" height="0.57" transform="translate(755.85 1028.56) rotate(-85.11)"/><rect class="cls-1" x="934.64" y="102.26" width="4.61" height="0.57" transform="matrix(0.08, -1, 1, 0.08, 756.72, 1027.69)"/><path class="cls-1" d="M933.61,104.58c-9.46-.75-19.06-1.34-28.56-1.76l.2-4.6c9.55.42,19.22,1,28.73,1.77Z"/><polygon class="cls-1" points="812.95 104.06 812.63 99.46 813.2 99.42 813.52 104.02 812.95 104.06"/><rect class="cls-1" x="813.93" y="99.36" width="0.57" height="4.61" transform="translate(-5.08 56.5) rotate(-3.96)"/><path class="cls-1" d="M843.25,102.49l-.16-4.61c8.85-.29,17.84-.44,26.72-.44h2.07v4.6h-2.06C861,102.05,852.05,102.2,843.25,102.49Z"/><rect class="cls-1" x="873.87" y="99.49" width="4.61" height="0.57" transform="translate(769.06 975.08) rotate(-89.52)"/><rect class="cls-1" x="872.73" y="99.48" width="4.61" height="0.57" transform="translate(769.66 974.14) rotate(-89.63)"/><path class="cls-2" d="M459,432.36a30.05,30.05,0,1,1,30,30.06A29.79,29.79,0,0,1,459,432.36Zm46.89,0c0-10.32-7.43-17.17-16.84-17.17s-16.84,6.85-16.84,17.17,7.43,17.18,16.84,17.18S505.87,442.68,505.87,432.36Z"/><path class="cls-2" d="M565.56,420v41.28H553.18v-3.88c-2.23,3.05-6.36,5-11.81,5-8.34,0-15.44-5.95-15.44-17.09V420h12.39v23.53c0,5.12,3.22,7.51,7.18,7.51,4.54,0,7.68-2.64,7.68-8.5V420Z"/><path class="cls-2" d="M599.41,419.15v14c-5.12-.83-12.39,1.24-12.39,9.41v18.66H574.64V420H587v7.35C588.68,421.79,594.21,419.15,599.41,419.15Z"/><path class="cls-2" d="M622.11,403.46H636l10,40.46,11.15-40.46h10.73L679,443.92l10-40.46h13.87l-15.94,57.8h-15l-9.42-34.1-9.41,34.1H638Z"/><path class="cls-2" d="M724.24,451.35a10.79,10.79,0,0,0,7.92-3.13l9.91,5.69c-4.05,5.62-10.16,8.51-18,8.51-14.12,0-22.87-9.5-22.87-21.8s8.92-21.8,22-21.8c12.06,0,21,9.33,21,21.8a24,24,0,0,1-.49,4.95H714.33C715.9,449.87,719.69,451.35,724.24,451.35Zm7.59-15c-1.32-4.79-5-6.53-8.75-6.53-4.71,0-7.84,2.31-9,6.53Z"/><path class="cls-2" d="M795.57,440.62c0,12.3-8.92,21.8-19.74,21.8-5.53,0-9.57-1.9-12.3-5v3.88H751.15v-57.8h12.38v20.4c2.73-3.14,6.77-5,12.3-5C786.65,418.82,795.57,428.32,795.57,440.62Zm-12.39,0c0-6.19-4.13-10.07-9.82-10.07s-9.83,3.88-9.83,10.07,4.13,10.07,9.83,10.07S783.18,446.81,783.18,440.62Z"/><path class="cls-2" d="M857.48,452.18H836l-2.89,9.08H818.68l19.65-57.8h16.84l19.65,57.8H860.37Zm-4-12.39-6.77-21.22L840,439.79Z"/><path class="cls-2" d="M923.78,440.62c0,12.3-8.92,21.8-19.74,21.8-5.53,0-9.57-1.9-12.3-5v20.39H879.36V420h12.38v3.88c2.73-3.14,6.77-5,12.3-5C914.86,418.82,923.78,428.32,923.78,440.62Zm-12.39,0c0-6.19-4.13-10.07-9.82-10.07s-9.83,3.88-9.83,10.07,4.13,10.07,9.83,10.07S911.39,446.81,911.39,440.62Z"/><path class="cls-2" d="M975.21,440.62c0,12.3-8.92,21.8-19.73,21.8-5.54,0-9.58-1.9-12.31-5v20.39H930.79V420h12.38v3.88c2.73-3.14,6.77-5,12.31-5C966.29,418.82,975.21,428.32,975.21,440.62Zm-12.39,0c0-6.19-4.12-10.07-9.82-10.07s-9.83,3.88-9.83,10.07,4.13,10.07,9.83,10.07S962.82,446.81,962.82,440.62Z"/><path class="cls-2" d="M982.22,401h12.39v60.27H982.22Z"/><path class="cls-2" d="M1002.45,408.91a7.43,7.43,0,1,1,7.43,7.43A7.51,7.51,0,0,1,1002.45,408.91Zm1.24,11.07h12.38v41.28h-12.38Z"/><path class="cls-2" d="M1023.09,440.62a21.84,21.84,0,0,1,40.54-11.23l-10.82,6.28a8.55,8.55,0,0,0-8-4.63c-5.37,0-9.33,3.88-9.33,9.58s4,9.58,9.33,9.58c3.63,0,6.69-1.74,8-4.63l10.82,6.2A21.08,21.08,0,0,1,1045,462.42,21.39,21.39,0,0,1,1023.09,440.62Z"/><path class="cls-2" d="M1110.11,420v41.28h-12.39v-3.88c-2.72,3.14-6.77,5-12.3,5-10.82,0-19.73-9.5-19.73-21.8s8.91-21.8,19.73-21.8c5.53,0,9.58,1.9,12.3,5V420Zm-12.39,20.64c0-6.19-4.13-10.07-9.82-10.07s-9.83,3.88-9.83,10.07,4.13,10.07,9.83,10.07S1097.72,446.81,1097.72,440.62Z"/><path class="cls-2" d="M1134.87,431.87v14.61c0,3.55,3.06,3.88,8.5,3.55v11.23c-16.18,1.65-20.88-3.22-20.88-14.78V431.87h-6.61V420h6.61v-7.85l12.38-3.71V420h8.5v11.89Z"/><path class="cls-2" d="M1149.15,408.91a7.43,7.43,0,1,1,7.43,7.43A7.51,7.51,0,0,1,1149.15,408.91Zm1.24,11.07h12.38v41.28h-12.38Z"/><path class="cls-2" d="M1169.79,440.62a21.88,21.88,0,1,1,21.88,21.8A21.64,21.64,0,0,1,1169.79,440.62Zm31.37,0c0-5.86-4.12-9.74-9.49-9.74s-9.5,3.88-9.5,9.74,4.13,9.74,9.5,9.74S1201.16,446.48,1201.16,440.62Z"/><path class="cls-2" d="M1260.19,435.91v25.35h-12.38V437.73c0-5.12-3.22-7.51-7.18-7.51-4.54,0-7.68,2.64-7.68,8.5v22.54h-12.39V420H1233v3.88c2.23-3.06,6.35-5,11.8-5C1253.09,418.82,1260.19,424.77,1260.19,435.91Z"/><path class="cls-2" d="M668.92,531.43c0,16.35-12.13,28.9-28.07,28.9H617.73v-57.8h23.12C656.79,502.53,668.92,515.08,668.92,531.43Zm-12.71,0c0-9.91-6.28-16.18-15.36-16.18h-9.91v32.37h9.91C649.93,547.62,656.21,541.34,656.21,531.43Z"/><path class="cls-2" d="M696.91,550.42a10.76,10.76,0,0,0,7.92-3.14l9.91,5.7c-4,5.62-10.15,8.51-18,8.51-14.12,0-22.87-9.5-22.87-21.8s8.92-21.8,22-21.8c12.06,0,21,9.33,21,21.8a24,24,0,0,1-.5,4.95H687C688.57,548.94,692.37,550.42,696.91,550.42Zm7.59-15c-1.32-4.79-5-6.53-8.75-6.53-4.7,0-7.84,2.31-9,6.53Z"/><path class="cls-2" d="M762.21,519.05l-15.27,41.28h-14l-15.27-41.28h13.7l8.59,26.17,8.59-26.17Z"/><path class="cls-2" d="M786.07,550.42a10.77,10.77,0,0,0,7.93-3.14l9.9,5.7c-4,5.62-10.15,8.51-18,8.51-14.12,0-22.88-9.5-22.88-21.8s8.92-21.8,22-21.8c12,0,21,9.33,21,21.8a24,24,0,0,1-.5,4.95H776.16C777.73,548.94,781.53,550.42,786.07,550.42Zm7.6-15c-1.32-4.79-5-6.53-8.76-6.53-4.7,0-7.84,2.31-9,6.53Z"/><path class="cls-2" d="M813,500.06h12.39v60.27H813Z"/><path class="cls-2" d="M832.38,539.69a21.88,21.88,0,1,1,21.88,21.8A21.64,21.64,0,0,1,832.38,539.69Zm31.38,0c0-5.86-4.13-9.74-9.5-9.74s-9.49,3.88-9.49,9.74,4.13,9.74,9.49,9.74S863.76,545.55,863.76,539.69Z"/><path class="cls-2" d="M927.58,539.69c0,12.3-8.92,21.8-19.74,21.8-5.53,0-9.58-1.9-12.3-5v20.39H883.16V519.05h12.38v3.88c2.72-3.14,6.77-5,12.3-5C918.66,517.89,927.58,527.39,927.58,539.69Zm-12.39,0c0-6.19-4.13-10.07-9.82-10.07s-9.83,3.88-9.83,10.07,4.13,10.07,9.83,10.07S915.19,545.88,915.19,539.69Z"/><path class="cls-2" d="M996.51,535v25.35H984.13V536.06c0-4.13-2-6.77-6-6.77-4.13,0-6.44,2.89-6.44,7.76v23.28H959.36V536.06c0-4.13-2-6.77-6-6.77-4.13,0-6.44,2.89-6.44,7.76v23.28H934.59V519.05H947v3.8c1.9-2.81,5.53-5,11.07-5,4.87,0,8.5,2,10.81,5.45,2.31-3.3,6.11-5.45,12-5.45C990.32,517.89,996.51,524.66,996.51,535Z"/><path class="cls-2" d="M1026,550.42a10.77,10.77,0,0,0,7.93-3.14l9.91,5.7c-4,5.62-10.16,8.51-18,8.51-14.12,0-22.87-9.5-22.87-21.8s8.91-21.8,22-21.8c12,0,21,9.33,21,21.8a24,24,0,0,1-.5,4.95h-29.31C1017.64,548.94,1021.44,550.42,1026,550.42Zm7.6-15c-1.32-4.79-5-6.53-8.75-6.53-4.71,0-7.85,2.31-9,6.53Z"/><path class="cls-2" d="M1092.52,535v25.35h-12.38V536.8c0-5.12-3.22-7.51-7.18-7.51-4.55,0-7.68,2.64-7.68,8.5v22.54h-12.39V519.05h12.39v3.88c2.23-3.06,6.35-5,11.8-5C1085.42,517.89,1092.52,523.84,1092.52,535Z"/><path class="cls-2" d="M1116.71,530.94v14.61c0,3.55,3,3.88,8.5,3.55v11.23c-16.18,1.65-20.88-3.22-20.88-14.78V530.94h-6.61V519.05h6.61V511.2l12.38-3.71v11.56h8.5v11.89Z"/><path class="cls-2" d="M772.94,621.42a19.86,19.86,0,0,1-20.22,19.82h-8.67V659.4H730.84V601.6h21.88A19.86,19.86,0,0,1,772.94,621.42Zm-13.21,0c0-4.21-3-7.43-7-7.43h-8.67v14.86h8.67C756.76,628.85,759.73,625.63,759.73,621.42Z"/><path class="cls-2" d="M803.08,617.29v14c-5.12-.83-12.39,1.24-12.39,9.41V659.4H778.31V618.12h12.38v7.35C792.34,619.93,797.88,617.29,803.08,617.29Z"/><path class="cls-2" d="M805.55,638.76a21.88,21.88,0,1,1,21.88,21.8A21.64,21.64,0,0,1,805.55,638.76Zm31.38,0c0-5.86-4.13-9.74-9.5-9.74s-9.49,3.88-9.49,9.74,4.12,9.74,9.49,9.74S836.93,644.62,836.93,638.76Z"/><path class="cls-2" d="M854.26,638.76a21.84,21.84,0,0,1,40.54-11.23L884,633.8a8.55,8.55,0,0,0-8-4.62c-5.36,0-9.33,3.88-9.33,9.58s4,9.58,9.33,9.58c3.64,0,6.69-1.74,8-4.63l10.82,6.2a21.08,21.08,0,0,1-18.66,10.65A21.39,21.39,0,0,1,854.26,638.76Z"/><path class="cls-2" d="M919.9,649.49a10.76,10.76,0,0,0,7.92-3.14l9.91,5.7c-4.05,5.62-10.16,8.51-18,8.51-14.12,0-22.87-9.5-22.87-21.8s8.92-21.8,22-21.8c12.06,0,21,9.33,21,21.8a24,24,0,0,1-.49,5H910C911.56,648,915.35,649.49,919.9,649.49Zm7.59-15c-1.32-4.79-5-6.53-8.75-6.53-4.71,0-7.84,2.31-9,6.53Z"/><path class="cls-2" d="M977.19,647c0,9.49-8.26,13.54-17.17,13.54-8.26,0-14.53-3.14-17.75-9.83L953,644.62c1.07,3.14,3.39,4.87,7,4.87,3,0,4.46-.91,4.46-2.56,0-4.54-20.31-2.14-20.31-16.43,0-9,7.59-13.54,16.18-13.54,6.69,0,12.63,3,16.1,8.84l-10.57,5.69c-1.16-2.14-2.81-3.63-5.53-3.63-2.15,0-3.47.83-3.47,2.31C956.88,634.88,977.19,631.74,977.19,647Z"/><path class="cls-2" d="M1013.35,647c0,9.49-8.26,13.54-17.17,13.54-8.26,0-14.53-3.14-17.75-9.83l10.73-6.11c1.07,3.14,3.38,4.87,7,4.87,3,0,4.46-.91,4.46-2.56,0-4.54-20.32-2.14-20.32-16.43,0-9,7.6-13.54,16.19-13.54,6.69,0,12.63,3,16.1,8.84L1002,631.49c-1.16-2.14-2.81-3.63-5.53-3.63-2.15,0-3.47.83-3.47,2.31C993,634.88,1013.35,631.74,1013.35,647Z"/><circle class="cls-3" cx="105.6" cy="658.67" r="105.6"/><circle class="cls-4" cx="663.13" cy="105.6" r="105.6"/><circle class="cls-5" cx="1068.07" cy="110.11" r="105.6"/><circle class="cls-6" cx="1417.5" cy="311.4" r="105.6"/><circle class="cls-7" cx="1621.73" cy="665.33" r="105.6"/><circle class="cls-8" cx="312.65" cy="309.27" r="105.6"/><text class="cls-9" transform="translate(9.98 671.56)">RESEARCHING</text><text class="cls-9" transform="translate(984.47 120.43)">DEVELOPING</text><text class="cls-9" transform="translate(230.56 290.24)">VALIDATING<tspan x="52.2" y="33.08">AND</tspan><tspan x="18.43" y="66.17">IDEATION</tspan></text><text class="cls-9" transform="translate(589.4 78.9)">DESIGNING<tspan x="44.83" y="33.08">AND</tspan><tspan x="-21.75" y="66.17">PROTOTYPING</tspan></text><text class="cls-10" transform="translate(1328.28 281.71)">GOING THROUGH<tspan x="24.25" y="24.94">THE TESTING</tspan><tspan x="19.93" y="49.88">AND QUALITY</tspan><tspan x="25.47" y="74.82">ASSURANCE</tspan><tspan x="54.99" y="99.75">PHASE</tspan></text><text class="cls-10" transform="translate(1564.36 631.64)">PROVIDING <tspan x="-17.69" y="24.94">MAINTENANCE </tspan><tspan x="34.84" y="49.88">AND</tspan><tspan x="10.35" y="74.82">SUPPORT</tspan></text></g></g></svg>