<svg xmlns="http://www.w3.org/2000/svg" xmlns:xlink="http://www.w3.org/1999/xlink" viewBox="0 0 125.81 111.77"><defs><style>.cls-1{fill:url(#Orange);}.cls-2{fill:url(#Orange-2);}</style><linearGradient id="Orange" x1="25.8" y1="71.53" x2="125.81" y2="71.53" gradientUnits="userSpaceOnUse"><stop offset="0" stop-color="#f69453"/><stop offset="0.5" stop-color="#f37521"/><stop offset="1" stop-color="#d4622a"/></linearGradient><linearGradient id="Orange-2" x1="0" y1="33.87" x2="62.04" y2="33.87" xlink:href="#Orange"/></defs><g id="Layer_2" data-name="Layer 2"><g id="Layer_1-2" data-name="Layer 1"><path class="cls-1" d="M25.8,111.77V74h8.94v28.8H97.35V74.74L73.94,97,52.22,74.12l8-6.55L72.1,80.28c8.55-8.5,16.74-16.6,24.83-24.81.63-.64.69-2,.71-3.06.08-4,0-7.92,0-12.23H68.88v-8.9h37.68V45.79c3.24-3.13,5.59-5.52,8.07-7.76s5.1-3.29,8.16-1c3.64,2.76,4.07,5.58.84,9.09-4.66,5.07-9.71,9.8-14.28,15a10.17,10.17,0,0,0-2.48,6.06c-.2,14.75-.11,29.5-.11,44.61Z"/><path class="cls-2" d="M15.79,63.32c-1.25,3.9-3.62,5-10,4.15C1.88,67,.06,64.74,0,60.3c0-6.89,0-13.78,0-20.67,0-5,2-6.94,7.06-7,2.59,0,5.18.26,8.78.46,4.2-6.89,8.88-14.27,13.22-21.86,1.16-2,1.51-4.63,1.82-7C31.42.28,33.46-1.18,36.69,1c1.82,1.24,3.63,3.74,3.81,5.81.29,3.31-.71,6.75-1.3,10.11-.51,2.89-1.2,5.74-1.74,8.27,6.22-.3,11.82-1.08,17.34-.7,6.28.44,7.48,2.8,6.08,9a4.75,4.75,0,0,0,.33,2.23c.2.65.91,1.29.82,1.85Q60.77,46,59.28,54.35c-.23,1.26-1.2,2.47-1.15,3.67.15,3.76-1.66,6.07-5,7.23a21.6,21.6,0,0,1-6.79,1.51c-6.89,0-13.79-.06-20.64-.64C22.45,65.84,19.27,64.34,15.79,63.32Z"/></g></g></svg>