<svg xmlns="http://www.w3.org/2000/svg" xmlns:xlink="http://www.w3.org/1999/xlink" viewBox="0 0 76.25 95"><defs><style>.cls-1{fill:url(#Orange);}.cls-2{fill:url(#Orange-2);}.cls-3{fill:url(#Orange-3);}</style><linearGradient id="Orange" y1="30.84" x2="75.22" y2="30.84" gradientUnits="userSpaceOnUse"><stop offset="0" stop-color="#f69453"/><stop offset="0.5" stop-color="#f37521"/><stop offset="1" stop-color="#d4622a"/></linearGradient><linearGradient id="Orange-2" x1="22.06" y1="69.42" x2="76.25" y2="69.42" xlink:href="#Orange"/><linearGradient id="Orange-3" x1="47.35" y1="0.43" x2="76.06" y2="0.43" xlink:href="#Orange"/></defs><g id="Layer_2" data-name="Layer 2"><g id="Layer_1-2" data-name="Layer 1"><path class="cls-1" d="M75.22.86q-14,14-27.95,28.09C36.64,39.61,26,50.22,15.38,60.91c-1.07,1.08-1.56,1-2.55,0Q7,54.82.89,48.94c-1.13-1.09-1.23-1.67,0-2.85Q23.17,23.94,45.36,1.68c.54-.54,1-1.12,1.57-1.68h.42a4.16,4.16,0,0,0,2.26.21c7.91,0,15.82,0,23.73,0C74,.26,74.92-.33,75.22.86Z"/><path class="cls-2" d="M46.93,95Q35.35,83.35,23.76,71.68c-2.27-2.28-2.28-2.28,0-4.58q11-10.95,21.93-21.92a3.92,3.92,0,0,1,3.09-1.34c8.37.07,16.74,0,25.1,0h2.34L58.79,61.26c-2.29,2.28-4.53,4.62-6.89,6.83-1,1-1.13,1.46,0,2.55,7.9,7.8,15.71,15.7,23.54,23.57a8.27,8.27,0,0,1,.65.79Z"/><path class="cls-3" d="M75.22.86C74.61.14,73.79.44,73.06.44c-7.85,0-15.69,0-23.54,0-.73,0-1.56.3-2.17-.41H76.06A1.4,1.4,0,0,1,75.22.86Z"/></g></g></svg>