<svg xmlns="http://www.w3.org/2000/svg" xmlns:xlink="http://www.w3.org/1999/xlink" viewBox="0 0 113.25 114.29"><defs><style>.cls-1{fill:url(#Orange);}.cls-2{fill:url(#Orange-2);}.cls-3{fill:url(#Orange-3);}.cls-4{fill:url(#Orange-4);}</style><linearGradient id="Orange" x1="26.02" y1="70.53" x2="113.25" y2="70.53" gradientUnits="userSpaceOnUse"><stop offset="0" stop-color="#f69453"/><stop offset="0.5" stop-color="#f37521"/><stop offset="1" stop-color="#d4622a"/></linearGradient><linearGradient id="Orange-2" x1="38.92" y1="70.42" x2="100.27" y2="70.42" xlink:href="#Orange"/><linearGradient id="Orange-3" x1="0" y1="37.75" x2="74.57" y2="37.75" xlink:href="#Orange"/><linearGradient id="Orange-4" x1="52.23" y1="70.58" x2="87.27" y2="70.58" xlink:href="#Orange"/></defs><g id="Layer_2" data-name="Layer 2"><g id="Layer_1-2" data-name="Layer 1"><path class="cls-1" d="M35.37,43.92l4,4.5C25.46,69,34,90.64,47.37,100.57A37.36,37.36,0,0,0,99.26,47.82C88.82,34,67.55,27.19,47.81,40L44.06,35.6C55.33,25,81.49,21.74,99.44,38.48a43.76,43.76,0,1,1-59.79,63.91C23.39,87,21.32,58.73,35.37,43.92Z"/><path class="cls-2" d="M42.83,56l4,5.71c-3.55,10.62-1.09,23.06,10.82,30a24.1,24.1,0,0,0,28.81-3.57,24.35,24.35,0,0,0,4.86-28.66c-5.57-10.78-16-15-29.65-12.13l-5.3-4.2c10.16-6.84,27.41-3.49,36.81,7.66A30.7,30.7,0,0,1,51,94.93C38.85,85.72,35.37,68.52,42.83,56Z"/><path class="cls-3" d="M47.92,56.72l5.09.63,1-1.16a55.56,55.56,0,0,1-5.24-4.12c-7.49-7.4-14.83-15-22.36-22.31a9.51,9.51,0,0,0-4.79-2.36C14.91,26.31,8.79,21.48,7.74,14.81,7.09,10.66,5,8,2.23,5.46,1.5,4.78.52,4.15.2,3.29A10.53,10.53,0,0,1,.06,0,26.38,26.38,0,0,1,3.39.27c.41.08.75.63,1.08,1a20.34,20.34,0,0,0,11.1,6.81c6.57,1.53,10.28,6.64,11.66,13.38a10.68,10.68,0,0,0,2.58,5.11c8.84,9,17.84,17.88,27.31,27.32l-.48-5.65.5-.31c2.78,4.74,5.6,9.46,8.34,14.22,1.14,2,2.09,3.54,5,3.57,3.09,0,4.44,2.57,4,5.63s-2.37,4.33-5.28,4.12-5-2.18-4.47-4.92c.57-3-1.08-3.84-3-5C57,62.83,52.35,60,47.66,57.25Z"/><path class="cls-4" d="M53.07,64.87c3.5,1.2,5.75,2.56,5.61,6.81-.19,5.56,5.23,10.18,10.91,10.23A11.62,11.62,0,0,0,80.92,71.44a11.36,11.36,0,0,0-8.81-11.88C67,58.51,67,58.51,64.84,53.79a17.1,17.1,0,0,1,19.81,7.42A17.89,17.89,0,0,1,82.18,83a17.6,17.6,0,0,1-21.07,3C53.65,81.81,50.59,73.94,53.07,64.87Z"/></g></g></svg>