<svg xmlns="http://www.w3.org/2000/svg" xmlns:xlink="http://www.w3.org/1999/xlink" viewBox="0 0 106.07 106.07"><defs><style>.cls-1{fill:url(#Orange);}.cls-2{fill:url(#Orange-2);}.cls-3{fill:url(#Orange-3);}.cls-4{fill:url(#Orange-4);}.cls-5{fill:url(#Orange-5);}.cls-6{fill:url(#Orange-6);}</style><linearGradient id="Orange" y1="53.04" x2="106.07" y2="53.04" gradientUnits="userSpaceOnUse"><stop offset="0" stop-color="#f69453"/><stop offset="0.5" stop-color="#f37521"/><stop offset="1" stop-color="#d4622a"/></linearGradient><linearGradient id="Orange-2" x1="23.43" y1="53.03" x2="82.63" y2="53.03" xlink:href="#Orange"/><linearGradient id="Orange-3" x1="61.97" y1="54.34" x2="71.64" y2="54.34" xlink:href="#Orange"/><linearGradient id="Orange-4" x1="48.55" y1="58.32" x2="58.16" y2="58.32" xlink:href="#Orange"/><linearGradient id="Orange-5" x1="35.18" y1="60.84" x2="44.89" y2="60.84" xlink:href="#Orange"/><linearGradient id="Orange-6" x1="35.48" y1="37.71" x2="58.44" y2="37.71" xlink:href="#Orange"/></defs><g id="Layer_2" data-name="Layer 2"><g id="Layer_1-2" data-name="Layer 1"><path class="cls-1" d="M30.1,17.85c4.49-1.74,8.48-3.2,12.37-4.87a3.52,3.52,0,0,0,1.77-2.2c.54-2.76.86-5.56,1.13-8.36C45.53.76,46.22,0,47.94,0c3.27,0,6.54.07,9.81,0,1.73,0,2.44.74,2.62,2.38.3,2.79.56,5.61,1.13,8.35a4,4,0,0,0,2,2.33c3.35,1.57,6.78,3,10.25,4.3a3.46,3.46,0,0,0,2.77-.25c2.41-1.62,4.68-3.44,6.94-5.26a2.11,2.11,0,0,1,3.3.18q3.31,3.44,6.74,6.74c1.39,1.33,1.42,2.58.25,4-1.65,2.06-3.17,4.21-4.84,6.24a2.65,2.65,0,0,0-.34,3.37,99.49,99.49,0,0,1,4.18,10c.46,1.3,1,1.91,2.37,2,2.8.24,5.58.71,8.37,1,1.7.21,2.61,1,2.57,2.83-.07,3.18-.09,6.36,0,9.54.05,1.91-.93,2.54-2.6,2.73-2.8.32-5.61.6-8.36,1.15A3.53,3.53,0,0,0,93,63.57q-2.33,5.06-4.27,10.27a3.49,3.49,0,0,0,.17,2.77A74.18,74.18,0,0,0,94,83.33c1.3,1.53,1.1,2.63-.29,3.93-2.19,2-4.31,4.18-6.36,6.35-1.3,1.38-2.51,1.55-4,.36-2.49-2-4.88-5-7.63-5.44s-5.58,2.58-8.57,3.18c-4.52.91-5.73,3.34-6.18,7.71-.76,7.37.94,6.67-7.48,6.6-9.27-.09-7.4,1.51-8.55-7.88-.41-3.35-1.31-5.29-4.91-6-2.68-.57-5.2-2.09-7.67-3.41a2.35,2.35,0,0,0-3.1.25c-2.09,1.75-4.37,3.27-6.45,5-1.46,1.23-2.57,1.29-3.93-.17-2.16-2.34-4.42-4.58-6.73-6.75-1.27-1.19-1.27-2.2-.23-3.51,2-2.55,5.17-5,5.63-7.83.42-2.6-2.58-5.57-3.19-8.55C13.42,62.63,11,61.4,6.64,61-.7,60.2.05,61.9,0,53.46,0,51.74.1,50,0,48.29s.77-2.63,2.51-2.82c2.79-.31,5.6-.6,8.36-1.14A3.52,3.52,0,0,0,13,42.56c1.59-3.44,3-7,4.4-10.5a3.22,3.22,0,0,0-.21-2.55,83,83,0,0,0-5.11-6.71c-1.23-1.47-1.28-2.58.18-3.93,2.33-2.16,4.57-4.42,6.75-6.74,1.19-1.27,2.2-1.27,3.5-.22C25.14,14,27.81,16.06,30.1,17.85ZM3.51,57.37c3.19.47,6.14,1,9.11,1.33,1.88.22,2.69,1.08,3.31,2.91a106.37,106.37,0,0,0,4.83,11.76c.78,1.63.88,2.75-.26,4.16-2,2.44-3.82,5-5.6,7.34l6.23,6.31c2.32-1.83,4.74-3.59,7-5.56,1.61-1.42,2.85-1.45,4.81-.42a68.52,68.52,0,0,0,11.22,4.72c2.11.65,3,1.54,3.24,3.62.31,3,.8,6,1.2,9h8.8c.48-3.19,1-6.22,1.38-9.29.2-1.82,1.14-2.48,2.8-3.08a114.23,114.23,0,0,0,12-5c1.68-.83,2.71-.81,4.09.35,2.4,2,4.94,3.88,7.47,5.85l6.08-6.41c-2-2.6-3.91-5.15-5.93-7.59C84.15,76,84.22,75,85,73.42a90.27,90.27,0,0,0,5-11.71c.68-2.1,1.57-3,3.67-3.21,3-.28,6.06-.77,9.05-1.17V48.68c-3.18-.41-6.14-.85-9.12-1.16a3.57,3.57,0,0,1-3.38-2.84,103,103,0,0,0-5-12c-.83-1.68-.81-2.71.34-4.09,2-2.41,3.87-4.94,5.67-7.26L85,14.94c-2.58,2-5.12,3.88-7.55,5.89-1.33,1.09-2.37,1-3.91.25-4-1.89-8.18-3.36-12.19-5.22A4.59,4.59,0,0,1,59,13.22c-.71-3.17-1-6.42-1.47-9.73H48.73c-.5,3.19-1.06,6.3-1.44,9.42-.21,1.7-1,2.37-2.61,2.94a129.47,129.47,0,0,0-12,4.92c-1.64.78-2.76.83-4.16-.3-2.44-2-5-3.81-7.1-5.4l-6.57,6c2,2.56,3.93,5.09,6,7.51,1.11,1.31,1,2.35.29,3.9-1.89,4-3.37,8.17-5.23,12.18a4.66,4.66,0,0,1-2.62,2.44c-3.17.71-6.43,1-9.74,1.46Z"/><path class="cls-2" d="M82.63,53.14A29.6,29.6,0,1,1,53.28,23.58,29.53,29.53,0,0,1,82.63,53.14ZM53.14,79.26A26.24,26.24,0,1,0,26.6,53.19,26.23,26.23,0,0,0,53.14,79.26Z"/><path class="cls-3" d="M62,54.12c0-4.26.07-8.53,0-12.79,0-2.13.56-3.13,2.93-3.07,7.81.2,6.63-.89,6.69,6.6s-.06,14.87,0,22.31c0,2.29-.6,3.3-3,3.25-7.39-.17-6.54.83-6.59-6.51C62,60.65,62,57.38,62,54.12Zm3.33-12.46V67h2.9V41.66Z"/><path class="cls-4" d="M58.13,58.21c0,3.09-.08,6.18,0,9.27.06,2-.79,2.74-2.74,2.72-8.3-.07-6.7.64-6.82-6.48-.07-4.81.06-9.63,0-14.44-.05-2.12.69-2.89,2.84-2.84,7.66.2,6.65-1,6.73,6.6C58.15,54.76,58.13,56.49,58.13,58.21ZM54.81,67V49.84H52V67Z"/><path class="cls-5" d="M35.2,60.69c0-2.35,0-4.71,0-7.06,0-1.53.58-2.35,2.24-2.33,8.8.1,7.31-1,7.42,7,0,3.16,0,6.33,0,9.49,0,1.83-.66,2.67-2.53,2.65-8.22-.08-7.07.87-7.15-6.72C35.19,62.68,35.2,61.68,35.2,60.69Zm3.37-6V67h2.9V54.67Z"/><path class="cls-6" d="M53,34.8c-.83-.41-1.23-.63-1.64-.8-1.19-.48-2.77-.94-1.91-2.53.28-.53,2.25-.6,3.22-.25,6.83,2.53,6.84,2.59,4.07,8.86-.54,1.21-.75,3.37-2.77,2.53s-.45-2.46-.16-3.75c0-.24.06-.49.14-1L40,43.65a6.14,6.14,0,0,1-2,.76,10.46,10.46,0,0,1-2.52-.59c.45-.75.73-1.89,1.38-2.19,4.21-1.9,8.51-3.62,12.77-5.41C50.63,35.81,51.62,35.37,53,34.8Z"/></g></g></svg>