<svg xmlns="http://www.w3.org/2000/svg" xmlns:xlink="http://www.w3.org/1999/xlink" viewBox="0 0 112.12 112.51"><defs><style>.cls-1{fill:url(#Orange);}.cls-2{fill:url(#Orange-2);}.cls-3{fill:url(#Orange-3);}.cls-4{fill:url(#Orange-4);}.cls-5{fill:url(#Orange-5);}.cls-6{fill:url(#Orange-6);}.cls-7{fill:url(#Orange-7);}.cls-8{fill:url(#Orange-8);}.cls-9{fill:url(#Orange-9);}.cls-10{fill:url(#Orange-10);}.cls-11{fill:url(#Orange-11);}.cls-12{fill:url(#Orange-12);}</style><linearGradient id="Orange" x1="26.45" y1="26.27" x2="80.52" y2="26.27" gradientUnits="userSpaceOnUse"><stop offset="0" stop-color="#f69453"/><stop offset="0.5" stop-color="#f37521"/><stop offset="1" stop-color="#d4622a"/></linearGradient><linearGradient id="Orange-2" x1="33.08" y1="11.28" x2="80.94" y2="11.28" xlink:href="#Orange"/><linearGradient id="Orange-3" x1="0.53" y1="68.95" x2="37.35" y2="68.95" xlink:href="#Orange"/><linearGradient id="Orange-4" x1="74.71" y1="69.06" x2="111.35" y2="69.06" xlink:href="#Orange"/><linearGradient id="Orange-5" x1="0.57" y1="104.03" x2="37.42" y2="104.03" xlink:href="#Orange"/><linearGradient id="Orange-6" x1="74.71" y1="103.6" x2="111.35" y2="103.6" xlink:href="#Orange"/><linearGradient id="Orange-7" x1="74.52" y1="86.34" x2="111.36" y2="86.34" xlink:href="#Orange"/><linearGradient id="Orange-8" x1="0.62" y1="86.72" x2="37.44" y2="86.72" xlink:href="#Orange"/><linearGradient id="Orange-9" x1="0" y1="54.65" x2="37.19" y2="54.65" xlink:href="#Orange"/><linearGradient id="Orange-10" x1="74.88" y1="54.66" x2="112.12" y2="54.66" xlink:href="#Orange"/><linearGradient id="Orange-11" x1="84.86" y1="31.27" x2="94.67" y2="31.27" xlink:href="#Orange"/><linearGradient id="Orange-12" x1="17.09" y1="34.29" x2="25.52" y2="34.29" xlink:href="#Orange"/></defs><g id="Layer_2" data-name="Layer 2"><g id="Layer_1-2" data-name="Layer 1"><path class="cls-1" d="M27.06,13.9h8.07c11.44,0,22.88.08,34.32-.06,2.86,0,4.26.89,5.07,3.66,1.67,5.68,3.63,11.29,5.55,16.9.92,2.67.64,4.31-2.71,4.3-13.67,0-27.34,0-41-.1-1.12,0-2.93-.82-3.22-1.66-2.39-7.16-4.51-14.4-6.68-21.63C26.4,15.09,26.67,14.78,27.06,13.9Z"/><path class="cls-2" d="M80.07,22.57c-.8-2.33-1.76-4.62-2.36-7-1-4-3.5-5.46-7.49-5.43-11,.11-22,.06-33,0-1.76,0-4.07.77-4.14-2.47S35,4.2,37.45,4.28c3.27.09,6.55-.19,9.81,0,5.05.39,9.34-1.61,14-3.07C66.84-.48,73.18.12,79.2,0c.55,0,1.61,2.29,1.64,3.53.17,6.24.08,12.48.08,18.72Z"/><path class="cls-3" d="M.71,60.85A49.3,49.3,0,0,0,37.17,61c.06,1.46.15,2.64.16,3.81.12,9.61-.27,10.76-10.07,11.91C20.62,77.52,13.71,76.66,7,76,2.43,75.47-.1,72.65.66,67.58A49.51,49.51,0,0,0,.71,60.85ZM19,68.62,15.41,71c.91.7,1.86,2,2.71,2,1.3-.09,2.54-1.13,3.8-1.77Zm-8.84,5.31,3.23-2.8c-1-.59-2-1.7-3-1.64-1.15.07-2.25,1.12-3.38,1.75Zm17.77,0,3.24-2.79c-1-.6-2-1.71-3-1.66-1.16.06-2.25,1.11-3.38,1.74Z"/><path class="cls-4" d="M111.17,60.91c.07,1.41.17,2.44.18,3.46.1,9.84-.61,11.29-10.59,12.48a70.65,70.65,0,0,1-19.41-.79c-6.08-1-6.62-2.44-6.63-8.48,0-2.06,0-4.13,0-6.61C87,65.53,99.05,65.69,111.17,60.91ZM92.61,73.85l3.16-2.49c-1.06-.67-2.11-1.86-3.17-1.86s-2.22,1.12-3.33,1.76Zm9.42.09,3.15-2.68c-1.11-.64-2.19-1.7-3.33-1.77-1-.07-2,1-3,1.6ZM84.1,68.52l-3.16,2.59c1.1.65,2.17,1.76,3.3,1.83,1,.06,2-1.06,3-1.66Z"/><path class="cls-5" d="M.71,95.55c12.5,4.73,24.35,4.76,36.61,0,0,3.52.3,6.77-.14,9.92a5.75,5.75,0,0,1-2.92,3.86A38.31,38.31,0,0,1,4,109.44c-1.53-.63-2.79-3.22-3.16-5.1C.31,101.64.71,98.75.71,95.55Zm17.84,13L22,105.66c-1.15-.65-2.27-1.73-3.45-1.8-1-.06-2.07,1.06-3.1,1.65Zm9.22-5.74-3,3.09c1.16.59,2.32,1.61,3.5,1.63,1,0,1.93-1.16,2.9-1.82Zm-17.58,5.86,3.12-2.72c-1.1-.66-2.17-1.79-3.3-1.85-1-.06-2,1.09-3,1.7Z"/><path class="cls-6" d="M74.72,95.56a48.72,48.72,0,0,0,36.63,0v4.77c0,8.26-.89,10-9.19,10.93a80.75,80.75,0,0,1-20.66-.55c-6.46-1-6.79-2.24-6.78-8.69Zm16,13.81,2.1-1.22,3-2.44c-1-.66-1.95-1.86-2.93-1.86-1.2,0-3.15.78-3.42,1.64C89.14,106.56,90.21,108.06,90.68,109.37ZM102,103l-3.13,2.51c1,.72,2.08,2,3.13,2s2.19-1.2,3.29-1.88ZM84.1,108.66l3.17-2.92c-1-.6-2.07-1.73-3-1.66-1.13.07-2.18,1.2-3.26,1.87Z"/><path class="cls-7" d="M111.35,78.26v4.07c.06,9-1.16,11.12-10.23,11.9-6.82.59-13.84-.21-20.68-1-4-.49-6.54-3.13-5.78-7.86a47.43,47.43,0,0,0,0-7A49.37,49.37,0,0,0,111.35,78.26ZM92.65,85.7l-3.44,3c1.16.64,2.29,1.73,3.48,1.8,1,.05,2.06-1.09,3.09-1.7Zm9.27.14-3.07,2.6c1.05.72,2.09,2,3.14,2s2.16-1.22,3.24-1.91ZM84.3,91.71l3-3.14C86.11,88,84.94,87,83.77,87c-1,0-1.91,1.17-2.86,1.82Z"/><path class="cls-8" d="M.71,78.23c12.43,4.83,24.3,4.71,36.61.11,0,3.56.36,6.84-.16,10a6.33,6.33,0,0,1-3.4,4,39.88,39.88,0,0,1-29.12.21c-2.81-1-4.29-2.87-4-6.1C.9,84,.71,81.42.71,78.23ZM18.5,91.47,22,88.59c-1.13-.66-2.25-1.76-3.42-1.83-1-.06-2.07,1.06-3.11,1.66Zm9.56-.13,3.09-2.61c-1.06-.71-2.12-2-3.18-2S25.82,88,24.74,88.69Zm-17.87.37,3.16-3c-1-.61-2-1.73-3-1.68-1.17.06-2.29,1.1-3.43,1.72Z"/><path class="cls-9" d="M0,54.65C2,53.31,3.22,52,4.76,51.44a39.54,39.54,0,0,1,28.7,0c1.46.54,2.5,2.2,3.73,3.34-1.18,1-2.19,2.53-3.57,3.05a40,40,0,0,1-29.14,0C3.05,57.29,1.91,56,0,54.65Z"/><path class="cls-10" d="M112.12,54.59c-2.06,1.44-3.33,2.75-4.87,3.33a39.69,39.69,0,0,1-28.72-.07c-1.44-.54-2.44-2.22-3.65-3.38,1.2-1,2.25-2.44,3.63-3a40.32,40.32,0,0,1,28.74-.21C108.79,51.84,110.06,53.17,112.12,54.59Z"/><path class="cls-11" d="M91.16,21.32c-6.3-.39-6.3-.39-6.3-3.33,9.81-1.49,9.81-1.49,9.81,8,0,6.23,0,12.45,0,18.53-3,1.76-3.53.26-3.52-2.14C91.18,35.44,91.16,28.51,91.16,21.32Z"/><path class="cls-12" d="M25.52,26.94l-4.62.8c0,5,.06,9.84,0,14.71,0,2.7-.14,2.7-3.75,2.38,0-6-.16-12.11.15-18.16,0-1,2-2.6,3.26-2.79C22.57,23.57,25.63,22.73,25.52,26.94Z"/></g></g></svg>