<svg xmlns="http://www.w3.org/2000/svg" xmlns:xlink="http://www.w3.org/1999/xlink" viewBox="0 0 86.55 107.84"><defs><style>.cls-1{fill:url(#Orange);}.cls-2{fill:url(#Orange-2);}.cls-3{fill:url(#Orange-3);}</style><linearGradient id="Orange" y1="35.01" x2="85.39" y2="35.01" gradientUnits="userSpaceOnUse"><stop offset="0" stop-color="#f69453"/><stop offset="0.5" stop-color="#f37521"/><stop offset="1" stop-color="#d4622a"/></linearGradient><linearGradient id="Orange-2" x1="25.04" y1="78.8" x2="86.55" y2="78.8" xlink:href="#Orange"/><linearGradient id="Orange-3" x1="53.75" y1="0.49" x2="86.34" y2="0.49" xlink:href="#Orange"/></defs><g id="Layer_2" data-name="Layer 2"><g id="Layer_1-2" data-name="Layer 1"><path class="cls-1" d="M85.39,1Q69.52,16.92,53.65,32.87C41.59,45,29.48,57,17.46,69.14c-1.22,1.22-1.77,1.12-2.9,0C10.12,64.52,5.61,60,1,55.56c-1.29-1.25-1.39-1.9,0-3.25Q26.29,27.19,51.49,1.91C52.1,1.29,52.68.64,53.27,0h.48a4.67,4.67,0,0,0,2.56.24c9,0,18,0,26.94,0C84,.29,85.05-.38,85.39,1Z"/><path class="cls-2" d="M53.27,107.84Q40.13,94.6,27,81.36c-2.57-2.59-2.59-2.58,0-5.2Q39.46,63.73,51.9,51.28a4.49,4.49,0,0,1,3.51-1.52c9.49.08,19,0,28.49,0h2.65L66.73,69.53c-2.6,2.59-5.14,5.25-7.82,7.76-1.16,1.09-1.28,1.66,0,2.89C67.84,89,76.71,98,85.6,106.93a10.87,10.87,0,0,1,.74.91Z"/><path class="cls-3" d="M85.39,1C84.7.16,83.76.5,82.93.49c-8.91,0-17.81,0-26.72,0-.83,0-1.76.34-2.46-.46H86.34A1.58,1.58,0,0,1,85.39,1Z"/></g></g></svg>